<?xml version="1.0" encoding="UTF-8" standalone="no"?>
<!DOCTYPE svg PUBLIC "-//W3C//DTD SVG 1.1//EN"
 "http://www.w3.org/Graphics/SVG/1.1/DTD/svg11.dtd">
<!-- Generated by graphviz version 8.1.0 (0)
 -->
<!-- Title: G Pages: 1 -->
<svg width="720pt" height="214pt"
 viewBox="0.00 0.00 720.00 214.39" xmlns="http://www.w3.org/2000/svg" xmlns:xlink="http://www.w3.org/1999/xlink">
<g id="graph0" class="graph" transform="scale(0.711938 0.711938) rotate(0) translate(36 265.14)">
<title>G</title>
<g id="clust8" class="cluster">
<title>cluster_1</title>
<polygon fill="whitesmoke" stroke="whitesmoke" points="120.64,-91.32 120.64,-220.32 281.31,-220.32 281.31,-91.32 120.64,-91.32"/>
<text text-anchor="middle" x="200.98" y="-203.02" font-family="Helvetica,Arial,sans-serif" font-size="14.00">1</text>
</g>
<g id="clust9" class="cluster">
<title>cluster_2</title>
<polygon fill="whitesmoke" stroke="whitesmoke" points="337.31,-58.32 337.31,-187.32 497.98,-187.32 497.98,-58.32 337.31,-58.32"/>
<text text-anchor="middle" x="417.65" y="-170.02" font-family="Helvetica,Arial,sans-serif" font-size="14.00">2</text>
</g>
<g id="clust10" class="cluster">
<title>cluster_3</title>
<polygon fill="whitesmoke" stroke="whitesmoke" points="553.98,-58.32 553.98,-187.32 714.65,-187.32 714.65,-58.32 553.98,-58.32"/>
<text text-anchor="middle" x="634.32" y="-170.02" font-family="Helvetica,Arial,sans-serif" font-size="14.00">3</text>
</g>
<g id="clust11" class="cluster">
<title>cluster_4</title>
<polygon fill="whitesmoke" stroke="whitesmoke" points="770.65,-21.32 770.65,-150.32 931.32,-150.32 931.32,-21.32 770.65,-21.32"/>
<text text-anchor="middle" x="850.99" y="-133.02" font-family="Helvetica,Arial,sans-serif" font-size="14.00">4</text>
</g>
<!-- Absorb -->
<g id="node1" class="node">
<title>Absorb</title>
<ellipse fill="white" stroke="lightgrey" cx="850.99" cy="-195.32" rx="45.72" ry="18"/>
<text text-anchor="middle" x="850.99" y="-188.37" font-family="Helvetica,Arial,sans-serif" font-size="16.00">Absorb</text>
</g>
<!-- IPV -->
<g id="node2" class="node">
<title>IPV</title>
<ellipse fill="white" stroke="lightgrey" cx="28.32" cy="-117.32" rx="28.32" ry="18"/>
<text text-anchor="middle" x="28.32" y="-110.37" font-family="Helvetica,Arial,sans-serif" font-size="16.00">IPV</text>
</g>
<!-- 1 -->
<g id="node3" class="node">
<title>1</title>
<ellipse fill="white" stroke="black" cx="200.98" cy="-117.32" rx="72.34" ry="18"/>
<text text-anchor="middle" x="200.98" y="-110.37" font-family="Helvetica,Arial,sans-serif" font-size="16.00">3,0,0,0,0,0,0</text>
</g>
<!-- IPV&#45;&gt;1 -->
<g id="edge1" class="edge">
<title>IPV&#45;&gt;1</title>
<path fill="none" stroke="#c3a92f" d="M57.12,-117.32C73.68,-117.32 95.66,-117.32 117.4,-117.32"/>
<polygon fill="#c3a92f" stroke="#c3a92f" points="117.37,-120.82 127.37,-117.32 117.37,-113.82 117.37,-120.82"/>
<text text-anchor="middle" x="88.14" y="-102.12" font-family="Helvetica,Arial,sans-serif" font-size="16.00" fill="#c3a92f">1</text>
</g>
<!-- 2 -->
<g id="node4" class="node">
<title>2</title>
<ellipse fill="white" stroke="black" cx="200.98" cy="-171.32" rx="72.34" ry="18"/>
<text text-anchor="middle" x="200.98" y="-164.37" font-family="Helvetica,Arial,sans-serif" font-size="16.00">1,1,0,0,0,0,0</text>
</g>
<!-- 1&#45;&gt;2 -->
<g id="edge2" class="edge">
<title>1&#45;&gt;2</title>
<path fill="none" stroke="#5666e0" d="M200.98,-135.46C200.98,-137.63 200.98,-139.8 200.98,-141.97"/>
<polygon fill="#5666e0" stroke="#5666e0" points="197.48,-141.83 200.98,-151.83 204.48,-141.83 197.48,-141.83"/>
<text text-anchor="middle" x="205.48" y="-139.05" font-family="Helvetica,Arial,sans-serif" font-size="16.00" fill="#5666e0">3</text>
</g>
<!-- 3 -->
<g id="node5" class="node">
<title>3</title>
<ellipse fill="white" stroke="black" cx="417.65" cy="-84.32" rx="72.34" ry="18"/>
<text text-anchor="middle" x="417.65" y="-77.37" font-family="Helvetica,Arial,sans-serif" font-size="16.00">3,0,0,1,0,0,0</text>
</g>
<!-- 1&#45;&gt;3 -->
<g id="edge3" class="edge">
<title>1&#45;&gt;3</title>
<path fill="none" stroke="#4d4f99" d="M263.49,-107.86C288.75,-103.98 318.19,-99.45 344.46,-95.41"/>
<polygon fill="#4d4f99" stroke="#4d4f99" points="344.77,-98.75 354.12,-93.78 343.71,-91.84 344.77,-98.75"/>
<text text-anchor="middle" x="304.92" y="-85.6" font-family="Helvetica,Arial,sans-serif" font-size="16.00" fill="#4d4f99">3</text>
</g>
<!-- 2&#45;&gt;Absorb -->
<g id="edge15" class="edge">
<title>2&#45;&gt;Absorb</title>
<path fill="none" stroke="#530122" d="M238.51,-187.02C265.29,-197.65 302.85,-210.74 337.31,-216.32 503.99,-243.3 704.9,-218.82 797.98,-204.28"/>
<polygon fill="#530122" stroke="#530122" points="798.46,-207.59 807.78,-202.57 797.36,-200.68 798.46,-207.59"/>
<text text-anchor="middle" x="519.69" y="-213.11" font-family="Helvetica,Arial,sans-serif" font-size="16.00" fill="#530122">1</text>
</g>
<!-- 4 -->
<g id="node6" class="node">
<title>4</title>
<ellipse fill="white" stroke="black" cx="417.65" cy="-138.32" rx="72.34" ry="18"/>
<text text-anchor="middle" x="417.65" y="-131.37" font-family="Helvetica,Arial,sans-serif" font-size="16.00">1,1,0,0,1,0,0</text>
</g>
<!-- 2&#45;&gt;4 -->
<g id="edge4" class="edge">
<title>2&#45;&gt;4</title>
<path fill="none" stroke="#e64497" d="M263.49,-161.86C288.75,-157.98 318.19,-153.45 344.46,-149.41"/>
<polygon fill="#e64497" stroke="#e64497" points="344.77,-152.75 354.12,-147.78 343.71,-145.84 344.77,-152.75"/>
<text text-anchor="middle" x="304.92" y="-139.6" font-family="Helvetica,Arial,sans-serif" font-size="16.00" fill="#e64497">1</text>
</g>
<!-- 5 -->
<g id="node7" class="node">
<title>5</title>
<ellipse fill="white" stroke="black" cx="634.32" cy="-84.32" rx="72.34" ry="18"/>
<text text-anchor="middle" x="634.32" y="-77.37" font-family="Helvetica,Arial,sans-serif" font-size="16.00">1,1,0,1,0,0,0</text>
</g>
<!-- 2&#45;&gt;5 -->
<g id="edge5" class="edge">
<title>2&#45;&gt;5</title>
<path fill="none" stroke="#cecb39" d="M242.02,-186.55C301.56,-206.55 415.29,-234.37 497.98,-191.32 536.48,-171.27 519.28,-137.38 553.98,-111.32 559.25,-107.36 565.14,-103.96 571.26,-101.04"/>
<polygon fill="#cecb39" stroke="#cecb39" points="572.22,-104.01 580.02,-96.84 569.45,-97.58 572.22,-104.01"/>
<text text-anchor="middle" x="412.76" y="-197.87" font-family="Helvetica,Arial,sans-serif" font-size="16.00" fill="#cecb39">1</text>
</g>
<!-- 3&#45;&gt;5 -->
<g id="edge6" class="edge">
<title>3&#45;&gt;5</title>
<path fill="none" stroke="#1964de" d="M490.43,-84.32C509.76,-84.32 530.83,-84.32 550.71,-84.32"/>
<polygon fill="#1964de" stroke="#1964de" points="550.6,-87.82 560.6,-84.32 550.6,-80.82 550.6,-87.82"/>
<text text-anchor="middle" x="521.59" y="-69.12" font-family="Helvetica,Arial,sans-serif" font-size="16.00" fill="#1964de">3</text>
</g>
<!-- 8 -->
<g id="node10" class="node">
<title>8</title>
<ellipse fill="white" stroke="black" cx="850.99" cy="-47.32" rx="72.34" ry="18"/>
<text text-anchor="middle" x="850.99" y="-40.37" font-family="Helvetica,Arial,sans-serif" font-size="16.00">0,0,0,0,0,0,0</text>
</g>
<!-- 3&#45;&gt;8 -->
<g id="edge7" class="edge">
<title>3&#45;&gt;8</title>
<path fill="none" stroke="#5a53fb" d="M447.02,-67.52C473.62,-52.82 515.01,-32.57 553.98,-24.32 633.66,-7.45 727.75,-20.17 788.11,-32.37"/>
<polygon fill="#5a53fb" stroke="#5a53fb" points="787.1,-35.95 797.6,-34.56 788.53,-29.09 787.1,-35.95"/>
<text text-anchor="middle" x="617.09" y="-1.3" font-family="Helvetica,Arial,sans-serif" font-size="16.00" fill="#5a53fb">3</text>
</g>
<!-- 4&#45;&gt;Absorb -->
<g id="edge16" class="edge">
<title>4&#45;&gt;Absorb</title>
<path fill="none" stroke="#4ff17b" d="M450.74,-154.7C477.56,-167.44 517.21,-184.12 553.98,-191.32 637.07,-207.59 735.81,-204.58 795.64,-200.36"/>
<polygon fill="#4ff17b" stroke="#4ff17b" points="795.64,-203.79 805.35,-199.56 795.12,-196.81 795.64,-203.79"/>
<text text-anchor="middle" x="622.6" y="-185.71" font-family="Helvetica,Arial,sans-serif" font-size="16.00" fill="#4ff17b">1</text>
</g>
<!-- 6 -->
<g id="node8" class="node">
<title>6</title>
<ellipse fill="white" stroke="black" cx="634.32" cy="-138.32" rx="72.34" ry="18"/>
<text text-anchor="middle" x="634.32" y="-131.37" font-family="Helvetica,Arial,sans-serif" font-size="16.00">1,1,0,1,1,0,0</text>
</g>
<!-- 4&#45;&gt;6 -->
<g id="edge8" class="edge">
<title>4&#45;&gt;6</title>
<path fill="none" stroke="#8e6d1d" d="M490.43,-138.32C509.76,-138.32 530.83,-138.32 550.71,-138.32"/>
<polygon fill="#8e6d1d" stroke="#8e6d1d" points="550.6,-141.82 560.6,-138.32 550.6,-134.82 550.6,-141.82"/>
<text text-anchor="middle" x="521.59" y="-123.12" font-family="Helvetica,Arial,sans-serif" font-size="16.00" fill="#8e6d1d">1</text>
</g>
<!-- 4&#45;&gt;8 -->
<g id="edge9" class="edge">
<title>4&#45;&gt;8</title>
<path fill="none" stroke="#f87e11" d="M468.52,-125.32C478.68,-121.59 488.99,-116.97 497.98,-111.32 528.05,-92.42 521.4,-68.44 553.98,-54.32 626.84,-22.74 719.55,-26.72 781.63,-34.85"/>
<polygon fill="#f87e11" stroke="#f87e11" points="781.08,-38.45 791.47,-36.35 782.04,-31.51 781.08,-38.45"/>
<text text-anchor="middle" x="618.77" y="-19.5" font-family="Helvetica,Arial,sans-serif" font-size="16.00" fill="#f87e11">1</text>
</g>
<!-- 5&#45;&gt;Absorb -->
<g id="edge17" class="edge">
<title>5&#45;&gt;Absorb</title>
<path fill="none" stroke="#d45735" d="M683.37,-97.85C693.95,-101.6 704.9,-106.1 714.65,-111.32 742.32,-126.13 744.17,-137.49 770.65,-154.32 783.27,-162.33 797.64,-170.13 810.65,-176.73"/>
<polygon fill="#d45735" stroke="#d45735" points="808.77,-180.2 819.28,-181.53 811.89,-173.94 808.77,-180.2"/>
<text text-anchor="middle" x="747" y="-124.67" font-family="Helvetica,Arial,sans-serif" font-size="16.00" fill="#d45735">1</text>
</g>
<!-- 5&#45;&gt;6 -->
<g id="edge10" class="edge">
<title>5&#45;&gt;6</title>
<path fill="none" stroke="#9c99f8" d="M634.32,-102.46C634.32,-104.63 634.32,-106.8 634.32,-108.97"/>
<polygon fill="#9c99f8" stroke="#9c99f8" points="630.82,-108.83 634.32,-118.83 637.82,-108.83 630.82,-108.83"/>
<text text-anchor="middle" x="638.82" y="-106.05" font-family="Helvetica,Arial,sans-serif" font-size="16.00" fill="#9c99f8">1</text>
</g>
<!-- 5&#45;&gt;8 -->
<g id="edge11" class="edge">
<title>5&#45;&gt;8</title>
<path fill="none" stroke="#4119d1" d="M694.83,-74.06C721.23,-69.51 752.48,-64.12 779.99,-59.38"/>
<polygon fill="#4119d1" stroke="#4119d1" points="780.47,-62.68 789.73,-57.53 779.28,-55.78 780.47,-62.68"/>
<text text-anchor="middle" x="738.3" y="-50.59" font-family="Helvetica,Arial,sans-serif" font-size="16.00" fill="#4119d1">1</text>
</g>
<!-- 6&#45;&gt;Absorb -->
<g id="edge18" class="edge">
<title>6&#45;&gt;Absorb</title>
<path fill="none" stroke="#63e984" d="M685.11,-151.54C720.24,-160.87 767.05,-173.3 801.82,-182.53"/>
<polygon fill="#63e984" stroke="#63e984" points="800.63,-186.1 811.2,-185.28 802.43,-179.33 800.63,-186.1"/>
<text text-anchor="middle" x="744.37" y="-153.27" font-family="Helvetica,Arial,sans-serif" font-size="16.00" fill="#63e984">1</text>
</g>
<!-- 6&#45;&gt;8 -->
<g id="edge12" class="edge">
<title>6&#45;&gt;8</title>
<path fill="none" stroke="#0f05b4" d="M682.27,-124.56C693.12,-120.77 704.46,-116.31 714.65,-111.32 741.44,-98.18 743.87,-87.45 770.65,-74.32 777.66,-70.88 785.21,-67.7 792.77,-64.82"/>
<polygon fill="#0f05b4" stroke="#0f05b4" points="793.84,-67.79 802.04,-61.08 791.44,-61.21 793.84,-67.79"/>
<text text-anchor="middle" x="738.15" y="-77.62" font-family="Helvetica,Arial,sans-serif" font-size="16.00" fill="#0f05b4">2</text>
</g>
<!-- 7 -->
<g id="node9" class="node">
<title>7</title>
<ellipse fill="white" stroke="black" cx="850.99" cy="-101.32" rx="72.34" ry="18"/>
<text text-anchor="middle" x="850.99" y="-94.37" font-family="Helvetica,Arial,sans-serif" font-size="16.00">0,0,0,0,0,0,0</text>
</g>
<!-- 7&#45;&gt;8 -->
<g id="edge13" class="edge">
<title>7&#45;&gt;8</title>
<path fill="none" stroke="#d2123a" d="M894.28,-86.45C905.06,-80.49 907.89,-74.52 902.77,-68.56"/>
<polygon fill="#d2123a" stroke="#d2123a" points="905.21,-65.26 895.1,-62.08 901.02,-70.87 905.21,-65.26"/>
<text text-anchor="middle" x="898.39" y="-70" font-family="Helvetica,Arial,sans-serif" font-size="16.00" fill="#d2123a">1</text>
</g>
<!-- 8&#45;&gt;7 -->
<g id="edge14" class="edge">
<title>8&#45;&gt;7</title>
<path fill="none" stroke="#0b6c9d" d="M807.88,-62.08C797.01,-68.05 794.1,-74.01 799.12,-79.98"/>
<polygon fill="#0b6c9d" stroke="#0b6c9d" points="796.6,-83.22 806.69,-86.45 800.82,-77.63 796.6,-83.22"/>
<text text-anchor="middle" x="803.51" y="-68.76" font-family="Helvetica,Arial,sans-serif" font-size="16.00" fill="#0b6c9d">1</text>
</g>
</g>
</svg>
