<?xml version="1.0" encoding="UTF-8" standalone="no"?>
<!DOCTYPE svg PUBLIC "-//W3C//DTD SVG 1.1//EN"
 "http://www.w3.org/Graphics/SVG/1.1/DTD/svg11.dtd">
<!-- Generated by graphviz version 12.0.0 (0)
 -->
<!-- Title: G Pages: 1 -->
<svg width="805pt" height="576pt"
 viewBox="0.00 0.00 804.78 576.00" xmlns="http://www.w3.org/2000/svg" xmlns:xlink="http://www.w3.org/1999/xlink">
<g id="graph0" class="graph" transform="scale(0.666667 0.666667) rotate(0) translate(36 828)">
<title>G</title>
<!-- Absorb -->
<g id="node1" class="node">
<title>Absorb</title>
<ellipse fill="white" stroke="lightgrey" cx="1093.08" cy="-288" rx="42.08" ry="18"/>
<text text-anchor="middle" x="1093.08" y="-281.62" font-family="Helvetica,Arial,sans-serif" font-size="15.00">Absorb</text>
</g>
<!-- IPV -->
<g id="node2" class="node">
<title>IPV</title>
<ellipse fill="white" stroke="lightgrey" cx="453.5" cy="-774" rx="27" ry="18"/>
<text text-anchor="middle" x="453.5" y="-767.62" font-family="Helvetica,Arial,sans-serif" font-size="15.00">IPV</text>
</g>
<!-- 4 -->
<g id="node6" class="node">
<title>4</title>
<ellipse fill="white" stroke="black" cx="663.7" cy="-774" rx="33.1" ry="18"/>
<text text-anchor="middle" x="663.7" y="-767.62" font-family="Helvetica,Arial,sans-serif" font-size="15.00">3,3,3</text>
</g>
<!-- IPV&#45;&gt;4 -->
<g id="edge1" class="edge">
<title>IPV&#45;&gt;4</title>
<path fill="none" stroke="#04f938" d="M480.87,-774C515.6,-774 577.15,-774 618.92,-774"/>
<polygon fill="#04f938" stroke="#04f938" points="618.89,-777.5 628.89,-774 618.89,-770.5 618.89,-777.5"/>
<text text-anchor="middle" x="545.77" y="-759.75" font-family="Helvetica,Arial,sans-serif" font-size="15.00" fill="#04f938">1</text>
</g>
<!-- 1 -->
<g id="node3" class="node">
<title>1</title>
<ellipse fill="white" stroke="black" cx="33.1" cy="-504" rx="33.1" ry="18"/>
<text text-anchor="middle" x="33.1" y="-497.62" font-family="Helvetica,Arial,sans-serif" font-size="15.00">3,3,0</text>
</g>
<!-- 2 -->
<g id="node4" class="node">
<title>2</title>
<ellipse fill="white" stroke="black" cx="243.3" cy="-558" rx="33.1" ry="18"/>
<text text-anchor="middle" x="243.3" y="-551.62" font-family="Helvetica,Arial,sans-serif" font-size="15.00">3,3,1</text>
</g>
<!-- 1&#45;&gt;2 -->
<g id="edge2" class="edge">
<title>1&#45;&gt;2</title>
<path fill="none" stroke="#014b91" d="M58.8,-492.19C99.93,-490.83 181.79,-512.39 220.74,-535.16"/>
<polygon fill="#014b91" stroke="#014b91" points="218.54,-537.9 228.83,-540.45 222.37,-532.04 218.54,-537.9"/>
<text text-anchor="middle" x="108.27" y="-499.42" font-family="Helvetica,Arial,sans-serif" font-size="15.00" fill="#014b91">6.32e+00</text>
</g>
<!-- 5 -->
<g id="node7" class="node">
<title>5</title>
<ellipse fill="white" stroke="black" cx="243.3" cy="-450" rx="33.1" ry="18"/>
<text text-anchor="middle" x="243.3" y="-443.62" font-family="Helvetica,Arial,sans-serif" font-size="15.00">2,3,0</text>
</g>
<!-- 1&#45;&gt;5 -->
<g id="edge3" class="edge">
<title>1&#45;&gt;5</title>
<path fill="none" stroke="#3a6a5b" d="M63.49,-496.38C99.58,-487.02 160.99,-471.09 201.6,-460.55"/>
<polygon fill="#3a6a5b" stroke="#3a6a5b" points="202.46,-463.95 211.26,-458.05 200.7,-457.17 202.46,-463.95"/>
<text text-anchor="middle" x="101.8" y="-464.22" font-family="Helvetica,Arial,sans-serif" font-size="15.00" fill="#3a6a5b">2.11e+00</text>
</g>
<!-- 8 -->
<g id="node10" class="node">
<title>8</title>
<ellipse fill="white" stroke="black" cx="243.3" cy="-342" rx="33.1" ry="18"/>
<text text-anchor="middle" x="243.3" y="-335.62" font-family="Helvetica,Arial,sans-serif" font-size="15.00">3,2,0</text>
</g>
<!-- 1&#45;&gt;8 -->
<g id="edge4" class="edge">
<title>1&#45;&gt;8</title>
<path fill="none" stroke="#edff2e" d="M52.94,-489.34C89.78,-460.68 171.48,-397.1 214.53,-363.61"/>
<polygon fill="#edff2e" stroke="#edff2e" points="216.41,-366.58 222.15,-357.68 212.11,-361.05 216.41,-366.58"/>
<text text-anchor="middle" x="102.99" y="-412.22" font-family="Helvetica,Arial,sans-serif" font-size="15.00" fill="#edff2e">2.11e+00</text>
</g>
<!-- 2&#45;&gt;1 -->
<g id="edge5" class="edge">
<title>2&#45;&gt;1</title>
<path fill="none" stroke="#54f7bf" d="M217.66,-569.81C176.71,-571.18 95.3,-549.8 56.14,-527.12"/>
<polygon fill="#54f7bf" stroke="#54f7bf" points="58.06,-524.2 47.77,-521.69 54.25,-530.07 58.06,-524.2"/>
<text text-anchor="middle" x="105.4" y="-534.22" font-family="Helvetica,Arial,sans-serif" font-size="15.00" fill="#54f7bf">4.21e+01</text>
</g>
<!-- 3 -->
<g id="node5" class="node">
<title>3</title>
<ellipse fill="white" stroke="black" cx="453.5" cy="-666" rx="33.1" ry="18"/>
<text text-anchor="middle" x="453.5" y="-659.62" font-family="Helvetica,Arial,sans-serif" font-size="15.00">3,3,2</text>
</g>
<!-- 2&#45;&gt;3 -->
<g id="edge6" class="edge">
<title>2&#45;&gt;3</title>
<path fill="none" stroke="#43015a" d="M275.92,-554.37C320.39,-566.91 399.87,-609.55 434.99,-641.09"/>
<polygon fill="#43015a" stroke="#43015a" points="432.24,-643.3 441.84,-647.79 437.14,-638.29 432.24,-643.3"/>
<text text-anchor="middle" x="323.96" y="-583.48" font-family="Helvetica,Arial,sans-serif" font-size="15.00" fill="#43015a">3.37e+00</text>
</g>
<!-- 6 -->
<g id="node8" class="node">
<title>6</title>
<ellipse fill="white" stroke="black" cx="453.5" cy="-558" rx="33.1" ry="18"/>
<text text-anchor="middle" x="453.5" y="-551.62" font-family="Helvetica,Arial,sans-serif" font-size="15.00">2,3,1</text>
</g>
<!-- 2&#45;&gt;6 -->
<g id="edge7" class="edge">
<title>2&#45;&gt;6</title>
<path fill="none" stroke="#5a4795" d="M276.83,-558C312.35,-558 369.43,-558 408.83,-558"/>
<polygon fill="#5a4795" stroke="#5a4795" points="408.68,-561.5 418.68,-558 408.68,-554.5 408.68,-561.5"/>
<text text-anchor="middle" x="311.33" y="-543.75" font-family="Helvetica,Arial,sans-serif" font-size="15.00" fill="#5a4795">2.53e+00</text>
</g>
<!-- 9 -->
<g id="node11" class="node">
<title>9</title>
<ellipse fill="white" stroke="black" cx="453.5" cy="-342" rx="33.1" ry="18"/>
<text text-anchor="middle" x="453.5" y="-335.62" font-family="Helvetica,Arial,sans-serif" font-size="15.00">3,2,1</text>
</g>
<!-- 2&#45;&gt;9 -->
<g id="edge8" class="edge">
<title>2&#45;&gt;9</title>
<path fill="none" stroke="#eaaad4" d="M259.61,-542.12C295.71,-504.67 386.32,-410.66 429.25,-366.12"/>
<polygon fill="#eaaad4" stroke="#eaaad4" points="431.7,-368.62 436.12,-359 426.66,-363.77 431.7,-368.62"/>
<text text-anchor="middle" x="375.93" y="-439.87" font-family="Helvetica,Arial,sans-serif" font-size="15.00" fill="#eaaad4">2.53e+00</text>
</g>
<!-- 3&#45;&gt;2 -->
<g id="edge9" class="edge">
<title>3&#45;&gt;2</title>
<path fill="none" stroke="#3325c4" d="M420.87,-669.63C376.49,-657.11 297.25,-614.63 262.02,-583.1"/>
<polygon fill="#3325c4" stroke="#3325c4" points="264.75,-580.87 255.15,-576.4 259.87,-585.89 264.75,-580.87"/>
<text text-anchor="middle" x="309.94" y="-612.12" font-family="Helvetica,Arial,sans-serif" font-size="15.00" fill="#3325c4">4.72e+01</text>
</g>
<!-- 3&#45;&gt;4 -->
<g id="edge10" class="edge">
<title>3&#45;&gt;4</title>
<path fill="none" stroke="#859c1e" d="M486.12,-662.37C530.59,-674.91 610.07,-717.55 645.19,-749.09"/>
<polygon fill="#859c1e" stroke="#859c1e" points="642.44,-751.3 652.04,-755.79 647.34,-746.29 642.44,-751.3"/>
<text text-anchor="middle" x="536.03" y="-691.48" font-family="Helvetica,Arial,sans-serif" font-size="15.00" fill="#859c1e">9.43e&#45;01</text>
</g>
<!-- 7 -->
<g id="node9" class="node">
<title>7</title>
<ellipse fill="white" stroke="black" cx="663.7" cy="-666" rx="33.1" ry="18"/>
<text text-anchor="middle" x="663.7" y="-659.62" font-family="Helvetica,Arial,sans-serif" font-size="15.00">2,3,2</text>
</g>
<!-- 3&#45;&gt;7 -->
<g id="edge11" class="edge">
<title>3&#45;&gt;7</title>
<path fill="none" stroke="#5b52da" d="M487.03,-666C522.55,-666 579.63,-666 619.03,-666"/>
<polygon fill="#5b52da" stroke="#5b52da" points="618.88,-669.5 628.88,-666 618.88,-662.5 618.88,-669.5"/>
<text text-anchor="middle" x="521.53" y="-651.75" font-family="Helvetica,Arial,sans-serif" font-size="15.00" fill="#5b52da">1.89e+00</text>
</g>
<!-- 10 -->
<g id="node12" class="node">
<title>10</title>
<ellipse fill="white" stroke="black" cx="663.7" cy="-450" rx="33.1" ry="18"/>
<text text-anchor="middle" x="663.7" y="-443.62" font-family="Helvetica,Arial,sans-serif" font-size="15.00">3,2,2</text>
</g>
<!-- 3&#45;&gt;10 -->
<g id="edge12" class="edge">
<title>3&#45;&gt;10</title>
<path fill="none" stroke="#eb6000" d="M469.81,-650.12C505.91,-612.67 596.52,-518.66 639.45,-474.12"/>
<polygon fill="#eb6000" stroke="#eb6000" points="641.9,-476.62 646.32,-467 636.86,-471.77 641.9,-476.62"/>
<text text-anchor="middle" x="586.13" y="-547.87" font-family="Helvetica,Arial,sans-serif" font-size="15.00" fill="#eb6000">1.89e+00</text>
</g>
<!-- 14 -->
<g id="node16" class="node">
<title>14</title>
<ellipse fill="white" stroke="black" cx="663.7" cy="-342" rx="33.1" ry="18"/>
<text text-anchor="middle" x="663.7" y="-335.62" font-family="Helvetica,Arial,sans-serif" font-size="15.00">2,2,1</text>
</g>
<!-- 3&#45;&gt;14 -->
<g id="edge13" class="edge">
<title>3&#45;&gt;14</title>
<path fill="none" stroke="#f9eb56" d="M465.4,-649.04C499.47,-596.01 604.15,-433.11 645.57,-368.65"/>
<polygon fill="#f9eb56" stroke="#f9eb56" points="648.38,-370.76 650.84,-360.46 642.49,-366.98 648.38,-370.76"/>
<text text-anchor="middle" x="525.86" y="-494.6" font-family="Helvetica,Arial,sans-serif" font-size="15.00" fill="#f9eb56">9.43e&#45;01</text>
</g>
<!-- 4&#45;&gt;3 -->
<g id="edge14" class="edge">
<title>4&#45;&gt;3</title>
<path fill="none" stroke="#848de9" d="M631.07,-777.63C586.69,-765.11 507.45,-722.63 472.22,-691.1"/>
<polygon fill="#848de9" stroke="#848de9" points="474.95,-688.87 465.35,-684.4 470.07,-693.89 474.95,-688.87"/>
<text text-anchor="middle" x="543.4" y="-720.12" font-family="Helvetica,Arial,sans-serif" font-size="15.00" fill="#848de9">50</text>
</g>
<!-- 15 -->
<g id="node17" class="node">
<title>15</title>
<ellipse fill="white" stroke="black" cx="873.9" cy="-450" rx="33.1" ry="18"/>
<text text-anchor="middle" x="873.9" y="-443.62" font-family="Helvetica,Arial,sans-serif" font-size="15.00">2,2,2</text>
</g>
<!-- 4&#45;&gt;15 -->
<g id="edge15" class="edge">
<title>4&#45;&gt;15</title>
<path fill="none" stroke="#579f58" d="M675.6,-757.04C709.67,-704.01 814.35,-541.11 855.77,-476.65"/>
<polygon fill="#579f58" stroke="#579f58" points="858.58,-478.76 861.04,-468.46 852.69,-474.98 858.58,-478.76"/>
<text text-anchor="middle" x="761.56" y="-602.6" font-family="Helvetica,Arial,sans-serif" font-size="15.00" fill="#579f58">3</text>
</g>
<!-- 5&#45;&gt;6 -->
<g id="edge16" class="edge">
<title>5&#45;&gt;6</title>
<path fill="none" stroke="#de0d66" d="M275.92,-446.37C320.39,-458.91 399.87,-501.55 434.99,-533.09"/>
<polygon fill="#de0d66" stroke="#de0d66" points="432.24,-535.3 441.84,-539.79 437.14,-530.29 432.24,-535.3"/>
<text text-anchor="middle" x="323.96" y="-475.48" font-family="Helvetica,Arial,sans-serif" font-size="15.00" fill="#de0d66">1.24e+00</text>
</g>
<!-- 11 -->
<g id="node13" class="node">
<title>11</title>
<ellipse fill="white" stroke="black" cx="453.5" cy="-450" rx="33.1" ry="18"/>
<text text-anchor="middle" x="453.5" y="-443.62" font-family="Helvetica,Arial,sans-serif" font-size="15.00">1,3,0</text>
</g>
<!-- 5&#45;&gt;11 -->
<g id="edge17" class="edge">
<title>5&#45;&gt;11</title>
<path fill="none" stroke="#1a087a" d="M276.83,-450C312.35,-450 369.43,-450 408.83,-450"/>
<polygon fill="#1a087a" stroke="#1a087a" points="408.68,-453.5 418.68,-450 408.68,-446.5 408.68,-453.5"/>
<text text-anchor="middle" x="313.21" y="-435.75" font-family="Helvetica,Arial,sans-serif" font-size="15.00" fill="#1a087a">2.07e&#45;01</text>
</g>
<!-- 13 -->
<g id="node15" class="node">
<title>13</title>
<ellipse fill="white" stroke="black" cx="453.5" cy="-234" rx="33.1" ry="18"/>
<text text-anchor="middle" x="453.5" y="-227.62" font-family="Helvetica,Arial,sans-serif" font-size="15.00">2,2,0</text>
</g>
<!-- 5&#45;&gt;13 -->
<g id="edge18" class="edge">
<title>5&#45;&gt;13</title>
<path fill="none" stroke="#f9e33d" d="M259.61,-434.12C295.71,-396.67 386.32,-302.66 429.25,-258.12"/>
<polygon fill="#f9e33d" stroke="#f9e33d" points="431.7,-260.62 436.12,-251 426.66,-255.77 431.7,-260.62"/>
<text text-anchor="middle" x="314.8" y="-331.87" font-family="Helvetica,Arial,sans-serif" font-size="15.00" fill="#f9e33d">6.22e&#45;01</text>
</g>
<!-- 6&#45;&gt;5 -->
<g id="edge19" class="edge">
<title>6&#45;&gt;5</title>
<path fill="none" stroke="#2c5ebb" d="M420.87,-561.63C376.49,-549.11 297.25,-506.63 262.02,-475.1"/>
<polygon fill="#2c5ebb" stroke="#2c5ebb" points="264.75,-472.87 255.15,-468.4 259.87,-477.89 264.75,-472.87"/>
<text text-anchor="middle" x="309.94" y="-504.12" font-family="Helvetica,Arial,sans-serif" font-size="15.00" fill="#2c5ebb">3.74e+00</text>
</g>
<!-- 6&#45;&gt;7 -->
<g id="edge20" class="edge">
<title>6&#45;&gt;7</title>
<path fill="none" stroke="#c0d73e" d="M486.12,-554.37C530.59,-566.91 610.07,-609.55 645.19,-641.09"/>
<polygon fill="#c0d73e" stroke="#c0d73e" points="642.44,-643.3 652.04,-647.79 647.34,-638.29 642.44,-643.3"/>
<text text-anchor="middle" x="536.03" y="-583.48" font-family="Helvetica,Arial,sans-serif" font-size="15.00" fill="#c0d73e">1.50e&#45;01</text>
</g>
<!-- 12 -->
<g id="node14" class="node">
<title>12</title>
<ellipse fill="white" stroke="black" cx="663.7" cy="-558" rx="33.1" ry="18"/>
<text text-anchor="middle" x="663.7" y="-551.62" font-family="Helvetica,Arial,sans-serif" font-size="15.00">1,3,1</text>
</g>
<!-- 6&#45;&gt;12 -->
<g id="edge21" class="edge">
<title>6&#45;&gt;12</title>
<path fill="none" stroke="#3a9b5d" d="M487.03,-558C522.55,-558 579.63,-558 619.03,-558"/>
<polygon fill="#3a9b5d" stroke="#3a9b5d" points="618.88,-561.5 628.88,-558 618.88,-554.5 618.88,-561.5"/>
<text text-anchor="middle" x="523.41" y="-543.75" font-family="Helvetica,Arial,sans-serif" font-size="15.00" fill="#3a9b5d">7.48e&#45;02</text>
</g>
<!-- 6&#45;&gt;14 -->
<g id="edge22" class="edge">
<title>6&#45;&gt;14</title>
<path fill="none" stroke="#a35b34" d="M469.81,-542.12C505.91,-504.67 596.52,-410.66 639.45,-366.12"/>
<polygon fill="#a35b34" stroke="#a35b34" points="641.9,-368.62 646.32,-359 636.86,-363.77 641.9,-368.62"/>
<text text-anchor="middle" x="525" y="-439.87" font-family="Helvetica,Arial,sans-serif" font-size="15.00" fill="#a35b34">2.24e&#45;01</text>
</g>
<!-- 7&#45;&gt;6 -->
<g id="edge23" class="edge">
<title>7&#45;&gt;6</title>
<path fill="none" stroke="#c98ddf" d="M631.07,-669.63C586.69,-657.11 507.45,-614.63 472.22,-583.1"/>
<polygon fill="#c98ddf" stroke="#c98ddf" points="474.95,-580.87 465.35,-576.4 470.07,-585.89 474.95,-580.87"/>
<text text-anchor="middle" x="520.15" y="-612.12" font-family="Helvetica,Arial,sans-serif" font-size="15.00" fill="#c98ddf">3.37e+00</text>
</g>
<!-- 7&#45;&gt;15 -->
<g id="edge24" class="edge">
<title>7&#45;&gt;15</title>
<path fill="none" stroke="#a01c47" d="M680.01,-650.12C716.11,-612.67 806.72,-518.66 849.65,-474.12"/>
<polygon fill="#a01c47" stroke="#a01c47" points="852.1,-476.62 856.52,-467 847.06,-471.77 852.1,-476.62"/>
<text text-anchor="middle" x="735.2" y="-547.87" font-family="Helvetica,Arial,sans-serif" font-size="15.00" fill="#a01c47">6.74e&#45;02</text>
</g>
<!-- 19 -->
<g id="node21" class="node">
<title>19</title>
<ellipse fill="white" stroke="black" cx="873.9" cy="-342" rx="33.1" ry="18"/>
<text text-anchor="middle" x="873.9" y="-335.62" font-family="Helvetica,Arial,sans-serif" font-size="15.00">1,2,1</text>
</g>
<!-- 7&#45;&gt;19 -->
<g id="edge25" class="edge">
<title>7&#45;&gt;19</title>
<path fill="none" stroke="#cd10d6" d="M675.6,-649.04C709.67,-596.01 814.35,-433.11 855.77,-368.65"/>
<polygon fill="#cd10d6" stroke="#cd10d6" points="858.58,-370.76 861.04,-360.46 852.69,-366.98 858.58,-370.76"/>
<text text-anchor="middle" x="736.06" y="-494.6" font-family="Helvetica,Arial,sans-serif" font-size="15.00" fill="#cd10d6">3.37e&#45;02</text>
</g>
<!-- 8&#45;&gt;9 -->
<g id="edge26" class="edge">
<title>8&#45;&gt;9</title>
<path fill="none" stroke="#afbfef" d="M260.99,-326.49C296.77,-312.44 381.2,-311.27 425.02,-323.01"/>
<polygon fill="#afbfef" stroke="#afbfef" points="423.7,-326.26 434.29,-325.99 425.85,-319.59 423.7,-326.26"/>
<text text-anchor="middle" x="311.5" y="-310.5" font-family="Helvetica,Arial,sans-serif" font-size="15.00" fill="#afbfef">1.24e+00</text>
</g>
<!-- 8&#45;&gt;13 -->
<g id="edge27" class="edge">
<title>8&#45;&gt;13</title>
<path fill="none" stroke="#29ab1f" d="M268.18,-329.61C305.21,-310.41 376.58,-273.38 418.82,-251.47"/>
<polygon fill="#29ab1f" stroke="#29ab1f" points="420.29,-254.65 427.55,-246.94 417.06,-248.44 420.29,-254.65"/>
<text text-anchor="middle" x="313.88" y="-276.29" font-family="Helvetica,Arial,sans-serif" font-size="15.00" fill="#29ab1f">6.22e&#45;01</text>
</g>
<!-- 16 -->
<g id="node18" class="node">
<title>16</title>
<ellipse fill="white" stroke="black" cx="453.5" cy="-126" rx="33.1" ry="18"/>
<text text-anchor="middle" x="453.5" y="-119.62" font-family="Helvetica,Arial,sans-serif" font-size="15.00">3,1,0</text>
</g>
<!-- 8&#45;&gt;16 -->
<g id="edge28" class="edge">
<title>8&#45;&gt;16</title>
<path fill="none" stroke="#f31885" d="M259.61,-326.12C295.71,-288.67 386.32,-194.66 429.25,-150.12"/>
<polygon fill="#f31885" stroke="#f31885" points="431.7,-152.62 436.12,-143 426.66,-147.77 431.7,-152.62"/>
<text text-anchor="middle" x="314.8" y="-223.87" font-family="Helvetica,Arial,sans-serif" font-size="15.00" fill="#f31885">2.07e&#45;01</text>
</g>
<!-- 9&#45;&gt;8 -->
<g id="edge29" class="edge">
<title>9&#45;&gt;8</title>
<path fill="none" stroke="#ab4608" d="M435.73,-357.54C399.88,-371.58 315.45,-372.72 271.68,-360.97"/>
<polygon fill="#ab4608" stroke="#ab4608" points="273.02,-357.72 262.43,-357.98 270.86,-364.38 273.02,-357.72"/>
<text text-anchor="middle" x="385.21" y="-345.01" font-family="Helvetica,Arial,sans-serif" font-size="15.00" fill="#ab4608">3.74e+00</text>
</g>
<!-- 9&#45;&gt;10 -->
<g id="edge30" class="edge">
<title>9&#45;&gt;10</title>
<path fill="none" stroke="#ad1a26" d="M486.12,-338.37C530.59,-350.91 610.07,-393.55 645.19,-425.09"/>
<polygon fill="#ad1a26" stroke="#ad1a26" points="642.44,-427.3 652.04,-431.79 647.34,-422.29 642.44,-427.3"/>
<text text-anchor="middle" x="536.03" y="-367.48" font-family="Helvetica,Arial,sans-serif" font-size="15.00" fill="#ad1a26">1.50e&#45;01</text>
</g>
<!-- 9&#45;&gt;14 -->
<g id="edge31" class="edge">
<title>9&#45;&gt;14</title>
<path fill="none" stroke="#2da49d" d="M487.03,-342C522.55,-342 579.63,-342 619.03,-342"/>
<polygon fill="#2da49d" stroke="#2da49d" points="618.88,-345.5 628.88,-342 618.88,-338.5 618.88,-345.5"/>
<text text-anchor="middle" x="523.41" y="-327.75" font-family="Helvetica,Arial,sans-serif" font-size="15.00" fill="#2da49d">2.24e&#45;01</text>
</g>
<!-- 17 -->
<g id="node19" class="node">
<title>17</title>
<ellipse fill="white" stroke="black" cx="663.7" cy="-126" rx="33.1" ry="18"/>
<text text-anchor="middle" x="663.7" y="-119.62" font-family="Helvetica,Arial,sans-serif" font-size="15.00">3,1,1</text>
</g>
<!-- 9&#45;&gt;17 -->
<g id="edge32" class="edge">
<title>9&#45;&gt;17</title>
<path fill="none" stroke="#8cc9fb" d="M469.81,-326.12C505.91,-288.67 596.52,-194.66 639.45,-150.12"/>
<polygon fill="#8cc9fb" stroke="#8cc9fb" points="641.9,-152.62 646.32,-143 636.86,-147.77 641.9,-152.62"/>
<text text-anchor="middle" x="584.25" y="-223.87" font-family="Helvetica,Arial,sans-serif" font-size="15.00" fill="#8cc9fb">7.48e&#45;02</text>
</g>
<!-- 10&#45;&gt;9 -->
<g id="edge33" class="edge">
<title>10&#45;&gt;9</title>
<path fill="none" stroke="#89cb0e" d="M631.07,-453.63C586.69,-441.11 507.45,-398.63 472.22,-367.1"/>
<polygon fill="#89cb0e" stroke="#89cb0e" points="474.95,-364.87 465.35,-360.4 470.07,-369.89 474.95,-364.87"/>
<text text-anchor="middle" x="520.15" y="-396.12" font-family="Helvetica,Arial,sans-serif" font-size="15.00" fill="#89cb0e">3.37e+00</text>
</g>
<!-- 10&#45;&gt;15 -->
<g id="edge34" class="edge">
<title>10&#45;&gt;15</title>
<path fill="none" stroke="#003036" d="M697.23,-450C732.75,-450 789.83,-450 829.23,-450"/>
<polygon fill="#003036" stroke="#003036" points="829.08,-453.5 839.08,-450 829.08,-446.5 829.08,-453.5"/>
<text text-anchor="middle" x="733.61" y="-435.75" font-family="Helvetica,Arial,sans-serif" font-size="15.00" fill="#003036">6.74e&#45;02</text>
</g>
<!-- 21 -->
<g id="node23" class="node">
<title>21</title>
<ellipse fill="white" stroke="black" cx="873.9" cy="-234" rx="33.1" ry="18"/>
<text text-anchor="middle" x="873.9" y="-227.62" font-family="Helvetica,Arial,sans-serif" font-size="15.00">2,1,1</text>
</g>
<!-- 10&#45;&gt;21 -->
<g id="edge35" class="edge">
<title>10&#45;&gt;21</title>
<path fill="none" stroke="#d222dc" d="M680.01,-434.12C716.11,-396.67 806.72,-302.66 849.65,-258.12"/>
<polygon fill="#d222dc" stroke="#d222dc" points="852.1,-260.62 856.52,-251 847.06,-255.77 852.1,-260.62"/>
<text text-anchor="middle" x="794.45" y="-331.87" font-family="Helvetica,Arial,sans-serif" font-size="15.00" fill="#d222dc">3.37e&#45;02</text>
</g>
<!-- 11&#45;&gt;12 -->
<g id="edge36" class="edge">
<title>11&#45;&gt;12</title>
<path fill="none" stroke="#feee01" d="M486.12,-446.37C530.59,-458.91 610.07,-501.55 645.19,-533.09"/>
<polygon fill="#feee01" stroke="#feee01" points="642.44,-535.3 652.04,-539.79 647.34,-530.29 642.44,-535.3"/>
<text text-anchor="middle" x="536.03" y="-475.48" font-family="Helvetica,Arial,sans-serif" font-size="15.00" fill="#feee01">6.59e&#45;02</text>
</g>
<!-- 18 -->
<g id="node20" class="node">
<title>18</title>
<ellipse fill="white" stroke="black" cx="663.7" cy="-234" rx="33.1" ry="18"/>
<text text-anchor="middle" x="663.7" y="-227.62" font-family="Helvetica,Arial,sans-serif" font-size="15.00">1,2,0</text>
</g>
<!-- 11&#45;&gt;18 -->
<g id="edge37" class="edge">
<title>11&#45;&gt;18</title>
<path fill="none" stroke="#142754" d="M469.81,-434.12C505.91,-396.67 596.52,-302.66 639.45,-258.12"/>
<polygon fill="#142754" stroke="#142754" points="641.9,-260.62 646.32,-251 636.86,-255.77 641.9,-260.62"/>
<text text-anchor="middle" x="584.25" y="-331.87" font-family="Helvetica,Arial,sans-serif" font-size="15.00" fill="#142754">6.59e&#45;02</text>
</g>
<!-- 12&#45;&gt;11 -->
<g id="edge38" class="edge">
<title>12&#45;&gt;11</title>
<path fill="none" stroke="#7951e4" d="M631.07,-561.63C586.69,-549.11 507.45,-506.63 472.22,-475.1"/>
<polygon fill="#7951e4" stroke="#7951e4" points="474.95,-472.87 465.35,-468.4 470.07,-477.89 474.95,-472.87"/>
<text text-anchor="middle" x="522.02" y="-519.87" font-family="Helvetica,Arial,sans-serif" font-size="15.00" fill="#7951e4">6.68e&#45;02</text>
</g>
<!-- 12&#45;&gt;19 -->
<g id="edge39" class="edge">
<title>12&#45;&gt;19</title>
<path fill="none" stroke="#babdbe" d="M680.01,-542.12C716.11,-504.67 806.72,-410.66 849.65,-366.12"/>
<polygon fill="#babdbe" stroke="#babdbe" points="852.1,-368.62 856.52,-359 847.06,-363.77 852.1,-368.62"/>
<text text-anchor="middle" x="794.45" y="-439.87" font-family="Helvetica,Arial,sans-serif" font-size="15.00" fill="#babdbe">4.01e&#45;03</text>
</g>
<!-- 13&#45;&gt;14 -->
<g id="edge40" class="edge">
<title>13&#45;&gt;14</title>
<path fill="none" stroke="#7d745b" d="M486.12,-230.37C530.59,-242.91 610.07,-285.55 645.19,-317.09"/>
<polygon fill="#7d745b" stroke="#7d745b" points="642.44,-319.3 652.04,-323.79 647.34,-314.29 642.44,-319.3"/>
<text text-anchor="middle" x="536.03" y="-259.48" font-family="Helvetica,Arial,sans-serif" font-size="15.00" fill="#7d745b">2.75e&#45;01</text>
</g>
<!-- 13&#45;&gt;18 -->
<g id="edge41" class="edge">
<title>13&#45;&gt;18</title>
<path fill="none" stroke="#8d00d9" d="M487.03,-234C522.55,-234 579.63,-234 619.03,-234"/>
<polygon fill="#8d00d9" stroke="#8d00d9" points="618.88,-237.5 628.88,-234 618.88,-230.5 618.88,-237.5"/>
<text text-anchor="middle" x="523.41" y="-219.75" font-family="Helvetica,Arial,sans-serif" font-size="15.00" fill="#8d00d9">6.88e&#45;02</text>
</g>
<!-- 20 -->
<g id="node22" class="node">
<title>20</title>
<ellipse fill="white" stroke="black" cx="663.7" cy="-18" rx="33.1" ry="18"/>
<text text-anchor="middle" x="663.7" y="-11.62" font-family="Helvetica,Arial,sans-serif" font-size="15.00">2,1,0</text>
</g>
<!-- 13&#45;&gt;20 -->
<g id="edge42" class="edge">
<title>13&#45;&gt;20</title>
<path fill="none" stroke="#dffe0c" d="M469.81,-218.12C505.91,-180.67 596.52,-86.66 639.45,-42.12"/>
<polygon fill="#dffe0c" stroke="#dffe0c" points="641.9,-44.62 646.32,-35 636.86,-39.77 641.9,-44.62"/>
<text text-anchor="middle" x="525" y="-115.87" font-family="Helvetica,Arial,sans-serif" font-size="15.00" fill="#dffe0c">6.88e&#45;02</text>
</g>
<!-- 14&#45;&gt;13 -->
<g id="edge43" class="edge">
<title>14&#45;&gt;13</title>
<path fill="none" stroke="#c9f1b0" d="M631.07,-345.63C586.69,-333.11 507.45,-290.63 472.22,-259.1"/>
<polygon fill="#c9f1b0" stroke="#c9f1b0" points="474.95,-256.87 465.35,-252.4 470.07,-261.89 474.95,-256.87"/>
<text text-anchor="middle" x="520.15" y="-288.12" font-family="Helvetica,Arial,sans-serif" font-size="15.00" fill="#c9f1b0">5.01e+00</text>
</g>
<!-- 14&#45;&gt;15 -->
<g id="edge44" class="edge">
<title>14&#45;&gt;15</title>
<path fill="none" stroke="#e4a402" d="M696.32,-338.37C740.79,-350.91 820.27,-393.55 855.39,-425.09"/>
<polygon fill="#e4a402" stroke="#e4a402" points="852.64,-427.3 862.24,-431.79 857.54,-422.29 852.64,-427.3"/>
<text text-anchor="middle" x="746.23" y="-367.48" font-family="Helvetica,Arial,sans-serif" font-size="15.00" fill="#e4a402">1.00e&#45;01</text>
</g>
<!-- 14&#45;&gt;19 -->
<g id="edge45" class="edge">
<title>14&#45;&gt;19</title>
<path fill="none" stroke="#270435" d="M697.23,-342C732.75,-342 789.83,-342 829.23,-342"/>
<polygon fill="#270435" stroke="#270435" points="829.08,-345.5 839.08,-342 829.08,-338.5 829.08,-345.5"/>
<text text-anchor="middle" x="733.61" y="-327.75" font-family="Helvetica,Arial,sans-serif" font-size="15.00" fill="#270435">1.00e&#45;01</text>
</g>
<!-- 14&#45;&gt;21 -->
<g id="edge46" class="edge">
<title>14&#45;&gt;21</title>
<path fill="none" stroke="#b3b9cf" d="M688.58,-329.61C725.61,-310.41 796.98,-273.38 839.22,-251.47"/>
<polygon fill="#b3b9cf" stroke="#b3b9cf" points="840.69,-254.65 847.95,-246.94 837.46,-248.44 840.69,-254.65"/>
<text text-anchor="middle" x="734.28" y="-276.29" font-family="Helvetica,Arial,sans-serif" font-size="15.00" fill="#b3b9cf">1.00e&#45;01</text>
</g>
<!-- 15&#45;&gt;Absorb -->
<g id="edge58" class="edge">
<title>15&#45;&gt;Absorb</title>
<path fill="none" stroke="#577f33" d="M894.17,-435.62C932.07,-407.36 1016.53,-344.36 1061.89,-310.52"/>
<polygon fill="#577f33" stroke="#577f33" points="1063.81,-313.45 1069.73,-304.67 1059.63,-307.84 1063.81,-313.45"/>
<text text-anchor="middle" x="1050.41" y="-358.82" font-family="Helvetica,Arial,sans-serif" font-size="15.00" fill="#577f33">0.0572580012037784</text>
</g>
<!-- 15&#45;&gt;14 -->
<g id="edge47" class="edge">
<title>15&#45;&gt;14</title>
<path fill="none" stroke="#19eb18" d="M841.27,-453.63C796.89,-441.11 717.65,-398.63 682.42,-367.1"/>
<polygon fill="#19eb18" stroke="#19eb18" points="685.15,-364.87 675.55,-360.4 680.27,-369.89 685.15,-364.87"/>
<text text-anchor="middle" x="730.35" y="-396.12" font-family="Helvetica,Arial,sans-serif" font-size="15.00" fill="#19eb18">5.73e+00</text>
</g>
<!-- 16&#45;&gt;17 -->
<g id="edge48" class="edge">
<title>16&#45;&gt;17</title>
<path fill="none" stroke="#9ebd26" d="M471.19,-110.49C506.97,-96.44 591.4,-95.27 635.22,-107.01"/>
<polygon fill="#9ebd26" stroke="#9ebd26" points="633.9,-110.26 644.49,-109.99 636.05,-103.59 633.9,-110.26"/>
<text text-anchor="middle" x="523.58" y="-94.5" font-family="Helvetica,Arial,sans-serif" font-size="15.00" fill="#9ebd26">6.59e&#45;02</text>
</g>
<!-- 16&#45;&gt;20 -->
<g id="edge49" class="edge">
<title>16&#45;&gt;20</title>
<path fill="none" stroke="#cf4d7f" d="M478.38,-113.61C515.41,-94.41 586.78,-57.38 629.02,-35.47"/>
<polygon fill="#cf4d7f" stroke="#cf4d7f" points="630.49,-38.65 637.75,-30.94 627.26,-32.44 630.49,-38.65"/>
<text text-anchor="middle" x="524.08" y="-60.29" font-family="Helvetica,Arial,sans-serif" font-size="15.00" fill="#cf4d7f">6.59e&#45;02</text>
</g>
<!-- 17&#45;&gt;16 -->
<g id="edge50" class="edge">
<title>17&#45;&gt;16</title>
<path fill="none" stroke="#dbf169" d="M645.93,-141.54C610.08,-155.58 525.65,-156.72 481.88,-144.97"/>
<polygon fill="#dbf169" stroke="#dbf169" points="483.22,-141.72 472.63,-141.98 481.06,-148.38 483.22,-141.72"/>
<text text-anchor="middle" x="593.53" y="-129.01" font-family="Helvetica,Arial,sans-serif" font-size="15.00" fill="#dbf169">6.68e&#45;02</text>
</g>
<!-- 17&#45;&gt;21 -->
<g id="edge51" class="edge">
<title>17&#45;&gt;21</title>
<path fill="none" stroke="#fefab8" d="M688.58,-138.39C725.61,-157.59 796.98,-194.62 839.22,-216.53"/>
<polygon fill="#fefab8" stroke="#fefab8" points="837.46,-219.56 847.95,-221.06 840.69,-213.35 837.46,-219.56"/>
<text text-anchor="middle" x="734.28" y="-163.21" font-family="Helvetica,Arial,sans-serif" font-size="15.00" fill="#fefab8">4.01e&#45;03</text>
</g>
<!-- 18&#45;&gt;19 -->
<g id="edge52" class="edge">
<title>18&#45;&gt;19</title>
<path fill="none" stroke="#8ef7cc" d="M696.32,-230.37C740.79,-242.91 820.27,-285.55 855.39,-317.09"/>
<polygon fill="#8ef7cc" stroke="#8ef7cc" points="852.64,-319.3 862.24,-323.79 857.54,-314.29 852.64,-319.3"/>
<text text-anchor="middle" x="746.23" y="-259.48" font-family="Helvetica,Arial,sans-serif" font-size="15.00" fill="#8ef7cc">2.63e&#45;02</text>
</g>
<!-- 22 -->
<g id="node24" class="node">
<title>22</title>
<ellipse fill="white" stroke="black" cx="873.9" cy="-126" rx="33.1" ry="18"/>
<text text-anchor="middle" x="873.9" y="-119.62" font-family="Helvetica,Arial,sans-serif" font-size="15.00">1,1,0</text>
</g>
<!-- 18&#45;&gt;22 -->
<g id="edge53" class="edge">
<title>18&#45;&gt;22</title>
<path fill="none" stroke="#59684a" d="M688.58,-221.61C725.61,-202.41 796.98,-165.38 839.22,-143.47"/>
<polygon fill="#59684a" stroke="#59684a" points="840.69,-146.65 847.95,-138.94 837.46,-140.44 840.69,-146.65"/>
<text text-anchor="middle" x="793.53" y="-168.29" font-family="Helvetica,Arial,sans-serif" font-size="15.00" fill="#59684a">1.31e&#45;02</text>
</g>
<!-- 19&#45;&gt;Absorb -->
<g id="edge59" class="edge">
<title>19&#45;&gt;Absorb</title>
<path fill="none" stroke="#a94dfe" d="M904.64,-334.6C940.9,-325.59 1002.61,-310.25 1045.26,-299.64"/>
<polygon fill="#a94dfe" stroke="#a94dfe" points="1045.88,-303.09 1054.74,-297.29 1044.19,-296.3 1045.88,-303.09"/>
<text text-anchor="middle" x="899.2" y="-302.87" font-family="Helvetica,Arial,sans-serif" font-size="15.00" fill="#a94dfe">0.00170239119375844</text>
</g>
<!-- 19&#45;&gt;18 -->
<g id="edge54" class="edge">
<title>19&#45;&gt;18</title>
<path fill="none" stroke="#448670" d="M841.27,-345.63C796.89,-333.11 717.65,-290.63 682.42,-259.1"/>
<polygon fill="#448670" stroke="#448670" points="685.15,-256.87 675.55,-252.4 680.27,-261.89 685.15,-256.87"/>
<text text-anchor="middle" x="732.22" y="-303.87" font-family="Helvetica,Arial,sans-serif" font-size="15.00" fill="#448670">8.51e&#45;02</text>
</g>
<!-- 20&#45;&gt;21 -->
<g id="edge55" class="edge">
<title>20&#45;&gt;21</title>
<path fill="none" stroke="#34fb1b" d="M692.35,-27.64C737.78,-62.68 826.5,-156.42 859.83,-206.47"/>
<polygon fill="#34fb1b" stroke="#34fb1b" points="856.82,-208.26 865.09,-214.88 862.75,-204.55 856.82,-208.26"/>
<text text-anchor="middle" x="746.46" y="-102.81" font-family="Helvetica,Arial,sans-serif" font-size="15.00" fill="#34fb1b">2.63e&#45;02</text>
</g>
<!-- 20&#45;&gt;22 -->
<g id="edge56" class="edge">
<title>20&#45;&gt;22</title>
<path fill="none" stroke="#3bb6f3" d="M688.58,-30.39C725.61,-49.59 796.98,-86.62 839.22,-108.53"/>
<polygon fill="#3bb6f3" stroke="#3bb6f3" points="837.46,-111.56 847.95,-113.06 840.69,-105.35 837.46,-111.56"/>
<text text-anchor="middle" x="734.28" y="-55.21" font-family="Helvetica,Arial,sans-serif" font-size="15.00" fill="#3bb6f3">1.31e&#45;02</text>
</g>
<!-- 21&#45;&gt;Absorb -->
<g id="edge60" class="edge">
<title>21&#45;&gt;Absorb</title>
<path fill="none" stroke="#2815d9" d="M904.64,-241.4C940.9,-250.41 1002.61,-265.75 1045.26,-276.36"/>
<polygon fill="#2815d9" stroke="#2815d9" points="1044.19,-279.7 1054.74,-278.71 1045.88,-272.91 1044.19,-279.7"/>
<text text-anchor="middle" x="1050.7" y="-244.63" font-family="Helvetica,Arial,sans-serif" font-size="15.00" fill="#2815d9">0.00170239119375844</text>
</g>
<!-- 21&#45;&gt;20 -->
<g id="edge57" class="edge">
<title>21&#45;&gt;20</title>
<path fill="none" stroke="#5b8a11" d="M845.39,-224.47C799.97,-189.49 710.98,-95.47 677.68,-45.4"/>
<polygon fill="#5b8a11" stroke="#5b8a11" points="680.7,-43.62 672.43,-36.99 674.76,-47.33 680.7,-43.62"/>
<text text-anchor="middle" x="731.91" y="-120.68" font-family="Helvetica,Arial,sans-serif" font-size="15.00" fill="#5b8a11">8.51e&#45;02</text>
</g>
<!-- 22&#45;&gt;Absorb -->
<g id="edge61" class="edge">
<title>22&#45;&gt;Absorb</title>
<path fill="none" stroke="#018005" d="M894.17,-140.38C932.07,-168.64 1016.53,-231.64 1061.89,-265.48"/>
<polygon fill="#018005" stroke="#018005" points="1059.63,-268.16 1069.73,-271.33 1063.81,-262.55 1059.63,-268.16"/>
<text text-anchor="middle" x="901.53" y="-188.68" font-family="Helvetica,Arial,sans-serif" font-size="15.00" fill="#018005">0.00875310389574789</text>
</g>
</g>
</svg>
