<?xml version="1.0" encoding="UTF-8" standalone="no"?>
<!DOCTYPE svg PUBLIC "-//W3C//DTD SVG 1.1//EN"
 "http://www.w3.org/Graphics/SVG/1.1/DTD/svg11.dtd">
<!-- Generated by graphviz version 8.1.0 (0)
 -->
<!-- Title: G Pages: 1 -->
<svg width="720pt" height="379pt"
 viewBox="0.00 0.00 720.00 378.70" xmlns="http://www.w3.org/2000/svg" xmlns:xlink="http://www.w3.org/1999/xlink">
<g id="graph0" class="graph" transform="scale(0.584416 0.584416) rotate(0) translate(36 612)">
<title>G</title>
<g id="clust8" class="cluster">
<title>cluster_11x11</title>
<polygon fill="whitesmoke" stroke="whitesmoke" points="8,-352 8,-427 672,-427 672,-352 8,-352"/>
<text text-anchor="middle" x="340" y="-409.7" font-family="Helvetica,Arial,sans-serif" font-size="14.00">11x11</text>
</g>
<g id="clust9" class="cluster">
<title>cluster_2x11</title>
<polygon fill="whitesmoke" stroke="whitesmoke" points="248,-172 248,-247 672,-247 672,-172 248,-172"/>
<text text-anchor="middle" x="460" y="-229.7" font-family="Helvetica,Arial,sans-serif" font-size="14.00">2x11</text>
</g>
<g id="clust10" class="cluster">
<title>cluster_11x2</title>
<polygon fill="whitesmoke" stroke="whitesmoke" points="728,-172 728,-247 1152,-247 1152,-172 728,-172"/>
<text text-anchor="middle" x="940" y="-229.7" font-family="Helvetica,Arial,sans-serif" font-size="14.00">11x2</text>
</g>
<!-- Absorb -->
<g id="node1" class="node">
<title>Absorb</title>
<ellipse fill="white" stroke="lightgrey" cx="460" cy="-18" rx="42.08" ry="18"/>
<text text-anchor="middle" x="460" y="-11.62" font-family="Helvetica,Arial,sans-serif" font-size="15.00">Absorb</text>
</g>
<!-- IPV -->
<g id="node2" class="node">
<title>IPV</title>
<ellipse fill="white" stroke="lightgrey" cx="100" cy="-558" rx="27" ry="18"/>
<text text-anchor="middle" x="100" y="-551.62" font-family="Helvetica,Arial,sans-serif" font-size="15.00">IPV</text>
</g>
<!-- 1 -->
<g id="node3" class="node">
<title>1</title>
<ellipse fill="white" stroke="black" cx="100" cy="-378" rx="84" ry="18"/>
<text text-anchor="middle" x="100" y="-371.62" font-family="Helvetica,Arial,sans-serif" font-size="15.00">0,0,0,0,2,0,0,0,0</text>
</g>
<!-- IPV&#45;&gt;1 -->
<g id="edge1" class="edge">
<title>IPV&#45;&gt;1</title>
<path fill="none" stroke="#000000" d="M100,-539.61C100,-508.77 100,-444.26 100,-407.06"/>
<polygon fill="#000000" stroke="#000000" points="103.5,-407.46 100,-397.46 96.5,-407.46 103.5,-407.46"/>
<text text-anchor="middle" x="95.88" y="-469.7" font-family="Helvetica,Arial,sans-serif" font-size="15.00" fill="#000000">1</text>
</g>
<!-- 1&#45;&gt;Absorb -->
<g id="edge12" class="edge">
<title>1&#45;&gt;Absorb</title>
<path fill="none" stroke="#000000" d="M104.91,-359.66C116.39,-321.68 148.16,-229.96 202,-172 264.6,-104.62 363.62,-57.39 419.02,-34.57"/>
<polygon fill="#000000" stroke="#000000" points="420.21,-37.46 428.16,-30.47 417.58,-30.97 420.21,-37.46"/>
<text text-anchor="middle" x="221.67" y="-150.28" font-family="Helvetica,Arial,sans-serif" font-size="15.00" fill="#000000">2</text>
</g>
<!-- 2 -->
<g id="node4" class="node">
<title>2</title>
<ellipse fill="white" stroke="black" cx="340" cy="-378" rx="84" ry="18"/>
<text text-anchor="middle" x="340" y="-371.62" font-family="Helvetica,Arial,sans-serif" font-size="15.00">0,1,0,1,1,0,0,0,0</text>
</g>
<!-- 1&#45;&gt;2 -->
<g id="edge2" class="edge">
<title>1&#45;&gt;2</title>
<path fill="none" stroke="#000000" d="M184.38,-378C204.56,-378 224.74,-378 244.92,-378"/>
<polygon fill="#000000" stroke="#000000" points="244.8,-381.5 254.8,-378 244.8,-374.5 244.8,-381.5"/>
<text text-anchor="middle" x="215.73" y="-379.5" font-family="Helvetica,Arial,sans-serif" font-size="15.00" fill="#000000">3</text>
</g>
<!-- 2&#45;&gt;Absorb -->
<g id="edge13" class="edge">
<title>2&#45;&gt;Absorb</title>
<path fill="none" stroke="#000000" d="M318.86,-360.26C277.38,-325.3 192.52,-241.96 230,-172 269.47,-98.33 361.79,-54.06 416.71,-33.3"/>
<polygon fill="#000000" stroke="#000000" points="417.66,-36.31 425.84,-29.58 415.24,-29.74 417.66,-36.31"/>
<text text-anchor="middle" x="234.89" y="-97.28" font-family="Helvetica,Arial,sans-serif" font-size="15.00" fill="#000000">1.52777777777778</text>
</g>
<!-- 3 -->
<g id="node5" class="node">
<title>3</title>
<ellipse fill="white" stroke="black" cx="580" cy="-378" rx="84" ry="18"/>
<text text-anchor="middle" x="580" y="-371.62" font-family="Helvetica,Arial,sans-serif" font-size="15.00">0,2,0,2,0,0,0,0,0</text>
</g>
<!-- 2&#45;&gt;3 -->
<g id="edge3" class="edge">
<title>2&#45;&gt;3</title>
<path fill="none" stroke="#000000" d="M424.38,-378C444.56,-378 464.74,-378 484.92,-378"/>
<polygon fill="#000000" stroke="#000000" points="484.8,-381.5 494.8,-378 484.8,-374.5 484.8,-381.5"/>
<text text-anchor="middle" x="455.73" y="-379.5" font-family="Helvetica,Arial,sans-serif" font-size="15.00" fill="#000000">3</text>
</g>
<!-- 4 -->
<g id="node6" class="node">
<title>4</title>
<ellipse fill="white" stroke="black" cx="340" cy="-198" rx="84" ry="18"/>
<text text-anchor="middle" x="340" y="-191.62" font-family="Helvetica,Arial,sans-serif" font-size="15.00">0,0,0,1,0,1,0,0,0</text>
</g>
<!-- 2&#45;&gt;4 -->
<g id="edge4" class="edge">
<title>2&#45;&gt;4</title>
<path fill="none" stroke="#000000" d="M340,-359.61C340,-328.77 340,-264.26 340,-227.06"/>
<polygon fill="#000000" stroke="#000000" points="343.5,-227.46 340,-217.46 336.5,-227.46 343.5,-227.46"/>
<text text-anchor="middle" x="335.88" y="-289.7" font-family="Helvetica,Arial,sans-serif" font-size="15.00" fill="#000000">2</text>
</g>
<!-- 5 -->
<g id="node7" class="node">
<title>5</title>
<ellipse fill="white" stroke="black" cx="820" cy="-198" rx="84" ry="18"/>
<text text-anchor="middle" x="820" y="-191.62" font-family="Helvetica,Arial,sans-serif" font-size="15.00">0,1,0,0,0,0,0,1,0</text>
</g>
<!-- 2&#45;&gt;5 -->
<g id="edge5" class="edge">
<title>2&#45;&gt;5</title>
<path fill="none" stroke="#000000" d="M380.92,-361.82C468.33,-329.41 673.07,-253.48 768.88,-217.96"/>
<polygon fill="#000000" stroke="#000000" points="770.02,-220.9 778.18,-214.14 767.59,-214.33 770.02,-220.9"/>
<text text-anchor="middle" x="575.88" y="-273.75" font-family="Helvetica,Arial,sans-serif" font-size="15.00" fill="#000000">2</text>
</g>
<!-- 3&#45;&gt;4 -->
<g id="edge6" class="edge">
<title>3&#45;&gt;4</title>
<path fill="none" stroke="#000000" d="M557.42,-360.25C514.25,-328.24 419.94,-258.29 370.94,-221.95"/>
<polygon fill="#000000" stroke="#000000" points="373.46,-218.72 363.34,-215.57 369.29,-224.34 373.46,-218.72"/>
<text text-anchor="middle" x="428.69" y="-289.64" font-family="Helvetica,Arial,sans-serif" font-size="15.00" fill="#000000">4.36e+00</text>
</g>
<!-- 3&#45;&gt;5 -->
<g id="edge7" class="edge">
<title>3&#45;&gt;5</title>
<path fill="none" stroke="#000000" d="M602.58,-360.25C645.75,-328.24 740.06,-258.29 789.06,-221.95"/>
<polygon fill="#000000" stroke="#000000" points="790.71,-224.34 796.66,-215.57 786.54,-218.72 790.71,-224.34"/>
<text text-anchor="middle" x="668.31" y="-289.64" font-family="Helvetica,Arial,sans-serif" font-size="15.00" fill="#000000">6.86e+00</text>
</g>
<!-- 6 -->
<g id="node8" class="node">
<title>6</title>
<ellipse fill="white" stroke="black" cx="580" cy="-198" rx="84" ry="18"/>
<text text-anchor="middle" x="580" y="-191.62" font-family="Helvetica,Arial,sans-serif" font-size="15.00">0,0,1,2,0,0,0,0,0</text>
</g>
<!-- 3&#45;&gt;6 -->
<g id="edge8" class="edge">
<title>3&#45;&gt;6</title>
<path fill="none" stroke="#000000" d="M580,-359.61C580,-328.77 580,-264.26 580,-227.06"/>
<polygon fill="#000000" stroke="#000000" points="583.5,-227.46 580,-217.46 576.5,-227.46 583.5,-227.46"/>
<text text-anchor="middle" x="575.88" y="-289.7" font-family="Helvetica,Arial,sans-serif" font-size="15.00" fill="#000000">2</text>
</g>
<!-- 7 -->
<g id="node9" class="node">
<title>7</title>
<ellipse fill="white" stroke="black" cx="1060" cy="-198" rx="84" ry="18"/>
<text text-anchor="middle" x="1060" y="-191.62" font-family="Helvetica,Arial,sans-serif" font-size="15.00">0,2,0,0,0,0,1,0,0</text>
</g>
<!-- 3&#45;&gt;7 -->
<g id="edge9" class="edge">
<title>3&#45;&gt;7</title>
<path fill="none" stroke="#000000" d="M622.84,-362.06C690.48,-338.35 826.03,-290.36 940,-247 963.9,-237.91 990.3,-227.4 1012.24,-218.54"/>
<polygon fill="#000000" stroke="#000000" points="1013.34,-221.46 1021.3,-214.46 1010.71,-214.97 1013.34,-221.46"/>
<text text-anchor="middle" x="819.18" y="-291.91" font-family="Helvetica,Arial,sans-serif" font-size="15.00" fill="#000000">2</text>
</g>
<!-- 4&#45;&gt;Absorb -->
<g id="edge14" class="edge">
<title>4&#45;&gt;Absorb</title>
<path fill="none" stroke="#000000" d="M351.51,-179.93C372.71,-148.49 418.03,-81.26 442.86,-44.43"/>
<polygon fill="#000000" stroke="#000000" points="446.02,-47 448.7,-36.76 440.21,-43.09 446.02,-47"/>
<text text-anchor="middle" x="396.11" y="-109.16" font-family="Helvetica,Arial,sans-serif" font-size="15.00" fill="#000000">2</text>
</g>
<!-- 4&#45;&gt;6 -->
<g id="edge10" class="edge">
<title>4&#45;&gt;6</title>
<path fill="none" stroke="#000000" d="M424.38,-198C444.56,-198 464.74,-198 484.92,-198"/>
<polygon fill="#000000" stroke="#000000" points="484.8,-201.5 494.8,-198 484.8,-194.5 484.8,-201.5"/>
<text text-anchor="middle" x="455.73" y="-199.5" font-family="Helvetica,Arial,sans-serif" font-size="15.00" fill="#000000">3</text>
</g>
<!-- 5&#45;&gt;Absorb -->
<g id="edge15" class="edge">
<title>5&#45;&gt;Absorb</title>
<path fill="none" stroke="#000000" d="M787.74,-181.05C720.79,-147.94 567.15,-71.98 496.62,-37.11"/>
<polygon fill="#000000" stroke="#000000" points="498.35,-33.56 487.83,-32.27 495.25,-39.84 498.35,-33.56"/>
<text text-anchor="middle" x="633.21" y="-108.18" font-family="Helvetica,Arial,sans-serif" font-size="15.00" fill="#000000">2</text>
</g>
<!-- 5&#45;&gt;7 -->
<g id="edge11" class="edge">
<title>5&#45;&gt;7</title>
<path fill="none" stroke="#000000" d="M904.38,-198C924.56,-198 944.74,-198 964.92,-198"/>
<polygon fill="#000000" stroke="#000000" points="964.8,-201.5 974.8,-198 964.8,-194.5 964.8,-201.5"/>
<text text-anchor="middle" x="935.73" y="-199.5" font-family="Helvetica,Arial,sans-serif" font-size="15.00" fill="#000000">3</text>
</g>
<!-- 6&#45;&gt;Absorb -->
<g id="edge16" class="edge">
<title>6&#45;&gt;Absorb</title>
<path fill="none" stroke="#000000" d="M568.49,-179.93C547.29,-148.49 501.97,-81.26 477.14,-44.43"/>
<polygon fill="#000000" stroke="#000000" points="479.79,-43.09 471.3,-36.76 473.98,-47 479.79,-43.09"/>
<text text-anchor="middle" x="455.64" y="-93.41" font-family="Helvetica,Arial,sans-serif" font-size="15.00" fill="#000000">7.92592592592592</text>
</g>
<!-- 7&#45;&gt;Absorb -->
<g id="edge17" class="edge">
<title>7&#45;&gt;Absorb</title>
<path fill="none" stroke="#000000" d="M1012.17,-182.81C898.65,-149.13 614.29,-64.77 504.35,-32.16"/>
<polygon fill="#000000" stroke="#000000" points="505.55,-28.57 494.97,-29.08 503.56,-35.28 505.55,-28.57"/>
<text text-anchor="middle" x="688.73" y="-91.63" font-family="Helvetica,Arial,sans-serif" font-size="15.00" fill="#000000">5.92592592592592</text>
</g>
</g>
</svg>
