<?xml version="1.0" encoding="UTF-8" standalone="no"?>
<!DOCTYPE svg PUBLIC "-//W3C//DTD SVG 1.1//EN"
 "http://www.w3.org/Graphics/SVG/1.1/DTD/svg11.dtd">
<!-- Generated by graphviz version 12.0.0 (0)
 -->
<!-- Title: G Pages: 1 -->
<svg width="720pt" height="429pt"
 viewBox="0.00 0.00 720.00 428.54" xmlns="http://www.w3.org/2000/svg" xmlns:xlink="http://www.w3.org/1999/xlink">
<g id="graph0" class="graph" transform="scale(0.428541 0.428541) rotate(0) translate(36 964)">
<title>G</title>
<g id="clust26" class="cluster">
<title>cluster_0000</title>
<polygon fill="whitesmoke" stroke="whitesmoke" points="1421.02,-157 1421.02,-304 1600.12,-304 1600.12,-157 1421.02,-157"/>
<text text-anchor="middle" x="1510.57" y="-286.7" font-family="Helvetica,Arial,sans-serif" font-size="14.00">0000</text>
</g>
<g id="clust27" class="cluster">
<title>cluster_4000</title>
<polygon fill="whitesmoke" stroke="whitesmoke" points="192.64,-368 192.64,-515 371.74,-515 371.74,-368 192.64,-368"/>
<text text-anchor="middle" x="282.19" y="-497.7" font-family="Helvetica,Arial,sans-serif" font-size="14.00">4000</text>
</g>
<g id="clust28" class="cluster">
<title>cluster_2100</title>
<polygon fill="whitesmoke" stroke="whitesmoke" points="499.74,-224 499.74,-515 678.83,-515 678.83,-224 499.74,-224"/>
<text text-anchor="middle" x="589.28" y="-497.7" font-family="Helvetica,Arial,sans-serif" font-size="14.00">2100</text>
</g>
<g id="clust29" class="cluster">
<title>cluster_0200</title>
<polygon fill="whitesmoke" stroke="whitesmoke" points="806.83,-523 806.83,-814 985.93,-814 985.93,-523 806.83,-523"/>
<text text-anchor="middle" x="896.38" y="-796.7" font-family="Helvetica,Arial,sans-serif" font-size="14.00">0200</text>
</g>
<g id="clust30" class="cluster">
<title>cluster_1010</title>
<polygon fill="whitesmoke" stroke="whitesmoke" points="806.83,-8 806.83,-515 985.93,-515 985.93,-8 806.83,-8"/>
<text text-anchor="middle" x="896.38" y="-497.7" font-family="Helvetica,Arial,sans-serif" font-size="14.00">1010</text>
</g>
<g id="clust31" class="cluster">
<title>cluster_0001</title>
<polygon fill="whitesmoke" stroke="whitesmoke" points="1113.93,-413 1113.93,-920 1293.02,-920 1293.02,-413 1113.93,-413"/>
<text text-anchor="middle" x="1203.48" y="-902.7" font-family="Helvetica,Arial,sans-serif" font-size="14.00">0001</text>
</g>
<!-- Absorb -->
<g id="node1" class="node">
<title>Absorb</title>
<ellipse fill="white" stroke="lightgrey" cx="1510.57" cy="-655" rx="45.72" ry="18"/>
<text text-anchor="middle" x="1510.57" y="-648.05" font-family="Helvetica,Arial,sans-serif" font-size="16.00">Absorb</text>
</g>
<!-- IPV -->
<g id="node2" class="node">
<title>IPV</title>
<ellipse fill="white" stroke="lightgrey" cx="28.32" cy="-466" rx="28.32" ry="18"/>
<text text-anchor="middle" x="28.32" y="-459.05" font-family="Helvetica,Arial,sans-serif" font-size="16.00">IPV</text>
</g>
<!-- 3 -->
<g id="node5" class="node">
<title>3</title>
<ellipse fill="white" stroke="black" cx="282.19" cy="-466" rx="81.55" ry="18"/>
<text text-anchor="middle" x="282.19" y="-459.05" font-family="Helvetica,Arial,sans-serif" font-size="16.00">4,0,0,0,0,0,0,0</text>
</g>
<!-- IPV&#45;&gt;3 -->
<g id="edge1" class="edge">
<title>IPV&#45;&gt;3</title>
<path fill="none" stroke="#000000" d="M56.75,-466C88.38,-466 142.04,-466 188.96,-466"/>
<polygon fill="#000000" stroke="#000000" points="188.9,-469.5 198.9,-466 188.9,-462.5 188.9,-469.5"/>
<text text-anchor="middle" x="118.36" y="-450.8" font-family="Helvetica,Arial,sans-serif" font-size="16.00" fill="#000000">1</text>
</g>
<!-- 1 -->
<g id="node3" class="node">
<title>1</title>
<ellipse fill="white" stroke="black" cx="1510.57" cy="-183" rx="81.55" ry="18"/>
<text text-anchor="middle" x="1510.57" y="-176.05" font-family="Helvetica,Arial,sans-serif" font-size="16.00">0,0,0,0,0,0,0,0</text>
</g>
<!-- 2 -->
<g id="node4" class="node">
<title>2</title>
<ellipse fill="white" stroke="black" cx="1510.57" cy="-255" rx="81.55" ry="18"/>
<text text-anchor="middle" x="1510.57" y="-248.05" font-family="Helvetica,Arial,sans-serif" font-size="16.00">0,0,0,0,0,0,0,0</text>
</g>
<!-- 1&#45;&gt;2 -->
<g id="edge2" class="edge">
<title>1&#45;&gt;2</title>
<path fill="none" stroke="#000000" d="M1552.38,-198.75C1574.32,-210.23 1577.6,-221.7 1562.25,-233.18"/>
<polygon fill="#000000" stroke="#000000" points="1560.48,-230.16 1553.8,-238.39 1564.15,-236.11 1560.48,-230.16"/>
<text text-anchor="middle" x="1552.81" y="-217.26" font-family="Helvetica,Arial,sans-serif" font-size="16.00" fill="#000000">1</text>
</g>
<!-- 2&#45;&gt;1 -->
<g id="edge3" class="edge">
<title>2&#45;&gt;1</title>
<path fill="none" stroke="#000000" d="M1468.63,-239.18C1446.77,-227.7 1443.56,-216.23 1458.99,-204.75"/>
<polygon fill="#000000" stroke="#000000" points="1460.78,-207.76 1467.47,-199.54 1457.12,-201.79 1460.78,-207.76"/>
<text text-anchor="middle" x="1459.31" y="-206.77" font-family="Helvetica,Arial,sans-serif" font-size="16.00" fill="#000000">1</text>
</g>
<!-- 4 -->
<g id="node6" class="node">
<title>4</title>
<ellipse fill="white" stroke="black" cx="589.28" cy="-466" rx="81.55" ry="18"/>
<text text-anchor="middle" x="589.28" y="-459.05" font-family="Helvetica,Arial,sans-serif" font-size="16.00">2,1,0,0,0,0,0,0</text>
</g>
<!-- 3&#45;&gt;4 -->
<g id="edge4" class="edge">
<title>3&#45;&gt;4</title>
<path fill="none" stroke="#000000" d="M364.15,-466C404.74,-466 454.07,-466 496.11,-466"/>
<polygon fill="#000000" stroke="#000000" points="495.96,-469.5 505.96,-466 495.96,-462.5 495.96,-469.5"/>
<text text-anchor="middle" x="398.25" y="-450.8" font-family="Helvetica,Arial,sans-serif" font-size="16.00" fill="#000000">6.00e&#45;01</text>
</g>
<!-- 5 -->
<g id="node7" class="node">
<title>5</title>
<ellipse fill="white" stroke="black" cx="282.19" cy="-394" rx="81.55" ry="18"/>
<text text-anchor="middle" x="282.19" y="-387.05" font-family="Helvetica,Arial,sans-serif" font-size="16.00">4,0,0,0,1,0,0,0</text>
</g>
<!-- 3&#45;&gt;5 -->
<g id="edge5" class="edge">
<title>3&#45;&gt;5</title>
<path fill="none" stroke="#000000" d="M282.19,-447.53C282.19,-439.55 282.19,-431.56 282.19,-423.57"/>
<polygon fill="#000000" stroke="#000000" points="285.69,-423.79 282.19,-413.79 278.69,-423.79 285.69,-423.79"/>
<text text-anchor="middle" x="250.31" y="-420.35" font-family="Helvetica,Arial,sans-serif" font-size="16.00" fill="#000000">4.00e&#45;01</text>
</g>
<!-- 6 -->
<g id="node8" class="node">
<title>6</title>
<ellipse fill="white" stroke="black" cx="896.38" cy="-765" rx="81.55" ry="18"/>
<text text-anchor="middle" x="896.38" y="-758.05" font-family="Helvetica,Arial,sans-serif" font-size="16.00">0,2,0,0,0,0,0,0</text>
</g>
<!-- 4&#45;&gt;6 -->
<g id="edge6" class="edge">
<title>4&#45;&gt;6</title>
<path fill="none" stroke="#000000" d="M608.46,-483.81C660.28,-534.6 808.96,-680.31 869.38,-739.52"/>
<polygon fill="#000000" stroke="#000000" points="866.63,-741.73 876.22,-746.23 871.53,-736.73 866.63,-741.73"/>
<text text-anchor="middle" x="707.04" y="-596.47" font-family="Helvetica,Arial,sans-serif" font-size="16.00" fill="#000000">1.67e&#45;01</text>
</g>
<!-- 7 -->
<g id="node9" class="node">
<title>7</title>
<ellipse fill="white" stroke="black" cx="896.38" cy="-466" rx="81.55" ry="18"/>
<text text-anchor="middle" x="896.38" y="-459.05" font-family="Helvetica,Arial,sans-serif" font-size="16.00">1,0,1,0,0,0,0,0</text>
</g>
<!-- 4&#45;&gt;7 -->
<g id="edge7" class="edge">
<title>4&#45;&gt;7</title>
<path fill="none" stroke="#000000" d="M671.24,-466C711.83,-466 761.17,-466 803.21,-466"/>
<polygon fill="#000000" stroke="#000000" points="803.06,-469.5 813.06,-466 803.06,-462.5 803.06,-469.5"/>
<text text-anchor="middle" x="705.35" y="-450.8" font-family="Helvetica,Arial,sans-serif" font-size="16.00" fill="#000000">3.33e&#45;01</text>
</g>
<!-- 8 -->
<g id="node10" class="node">
<title>8</title>
<ellipse fill="white" stroke="black" cx="589.28" cy="-322" rx="81.55" ry="18"/>
<text text-anchor="middle" x="589.28" y="-315.05" font-family="Helvetica,Arial,sans-serif" font-size="16.00">2,1,0,0,0,1,0,0</text>
</g>
<!-- 4&#45;&gt;8 -->
<g id="edge8" class="edge">
<title>4&#45;&gt;8</title>
<path fill="none" stroke="#000000" d="M589.28,-447.83C589.28,-415.76 589.28,-383.69 589.28,-351.62"/>
<polygon fill="#000000" stroke="#000000" points="592.78,-351.79 589.28,-341.79 585.78,-351.79 592.78,-351.79"/>
<text text-anchor="middle" x="621.16" y="-401.03" font-family="Helvetica,Arial,sans-serif" font-size="16.00" fill="#000000">1.67e&#45;01</text>
</g>
<!-- 9 -->
<g id="node11" class="node">
<title>9</title>
<ellipse fill="white" stroke="black" cx="589.28" cy="-394" rx="81.55" ry="18"/>
<text text-anchor="middle" x="589.28" y="-387.05" font-family="Helvetica,Arial,sans-serif" font-size="16.00">2,1,0,0,1,0,0,0</text>
</g>
<!-- 4&#45;&gt;9 -->
<g id="edge9" class="edge">
<title>4&#45;&gt;9</title>
<path fill="none" stroke="#000000" d="M589.28,-447.53C589.28,-439.55 589.28,-431.56 589.28,-423.57"/>
<polygon fill="#000000" stroke="#000000" points="592.78,-423.79 589.28,-413.79 585.78,-423.79 592.78,-423.79"/>
<text text-anchor="middle" x="557.41" y="-420.35" font-family="Helvetica,Arial,sans-serif" font-size="16.00" fill="#000000">3.33e&#45;01</text>
</g>
<!-- 5&#45;&gt;2 -->
<g id="edge10" class="edge">
<title>5&#45;&gt;2</title>
<path fill="none" stroke="#000000" d="M355.35,-385.72C570.08,-361.42 1197.74,-290.4 1426.18,-264.55"/>
<polygon fill="#000000" stroke="#000000" points="1426.36,-268.05 1435.9,-263.45 1425.57,-261.1 1426.36,-268.05"/>
<text text-anchor="middle" x="858.89" y="-326.44" font-family="Helvetica,Arial,sans-serif" font-size="16.00" fill="#000000">4.00e&#45;01</text>
</g>
<!-- 5&#45;&gt;9 -->
<g id="edge11" class="edge">
<title>5&#45;&gt;9</title>
<path fill="none" stroke="#000000" d="M364.15,-394C404.74,-394 454.07,-394 496.11,-394"/>
<polygon fill="#000000" stroke="#000000" points="495.96,-397.5 505.96,-394 495.96,-390.5 495.96,-397.5"/>
<text text-anchor="middle" x="398.25" y="-378.8" font-family="Helvetica,Arial,sans-serif" font-size="16.00" fill="#000000">6.00e&#45;01</text>
</g>
<!-- 10 -->
<g id="node12" class="node">
<title>10</title>
<ellipse fill="white" stroke="black" cx="1203.48" cy="-871" rx="81.55" ry="18"/>
<text text-anchor="middle" x="1203.48" y="-864.05" font-family="Helvetica,Arial,sans-serif" font-size="16.00">0,0,0,1,0,0,0,0</text>
</g>
<!-- 6&#45;&gt;10 -->
<g id="edge12" class="edge">
<title>6&#45;&gt;10</title>
<path fill="none" stroke="#000000" d="M941.74,-780.41C996.35,-799.39 1089.07,-831.6 1147.97,-852.06"/>
<polygon fill="#000000" stroke="#000000" points="1146.53,-855.27 1157.12,-855.24 1148.83,-848.66 1146.53,-855.27"/>
<text text-anchor="middle" x="1012.98" y="-801.04" font-family="Helvetica,Arial,sans-serif" font-size="16.00" fill="#000000">3.33e&#45;01</text>
</g>
<!-- 12 -->
<g id="node14" class="node">
<title>12</title>
<ellipse fill="white" stroke="black" cx="896.38" cy="-621" rx="81.55" ry="18"/>
<text text-anchor="middle" x="896.38" y="-614.05" font-family="Helvetica,Arial,sans-serif" font-size="16.00">0,2,0,0,0,1,0,0</text>
</g>
<!-- 6&#45;&gt;12 -->
<g id="edge13" class="edge">
<title>6&#45;&gt;12</title>
<path fill="none" stroke="#000000" d="M896.38,-746.83C896.38,-714.76 896.38,-682.69 896.38,-650.62"/>
<polygon fill="#000000" stroke="#000000" points="899.88,-650.79 896.38,-640.79 892.88,-650.79 899.88,-650.79"/>
<text text-anchor="middle" x="864.51" y="-700.03" font-family="Helvetica,Arial,sans-serif" font-size="16.00" fill="#000000">6.67e&#45;01</text>
</g>
<!-- 7&#45;&gt;10 -->
<g id="edge14" class="edge">
<title>7&#45;&gt;10</title>
<path fill="none" stroke="#000000" d="M911.08,-484.19C959.67,-548.69 1123.94,-766.75 1181.97,-843.78"/>
<polygon fill="#000000" stroke="#000000" points="1179.09,-845.77 1187.9,-851.65 1184.68,-841.56 1179.09,-845.77"/>
<text text-anchor="middle" x="1014.65" y="-648.78" font-family="Helvetica,Arial,sans-serif" font-size="16.00" fill="#000000">3.33e&#45;01</text>
</g>
<!-- 11 -->
<g id="node13" class="node">
<title>11</title>
<ellipse fill="white" stroke="black" cx="896.38" cy="-106" rx="81.55" ry="18"/>
<text text-anchor="middle" x="896.38" y="-99.05" font-family="Helvetica,Arial,sans-serif" font-size="16.00">1,0,1,0,0,0,1,0</text>
</g>
<!-- 7&#45;&gt;11 -->
<g id="edge15" class="edge">
<title>7&#45;&gt;11</title>
<path fill="none" stroke="#000000" d="M896.38,-447.65C896.38,-343.65 896.38,-239.65 896.38,-135.65"/>
<polygon fill="#000000" stroke="#000000" points="899.88,-135.79 896.38,-125.79 892.88,-135.79 899.88,-135.79"/>
<text text-anchor="middle" x="864.51" y="-276.45" font-family="Helvetica,Arial,sans-serif" font-size="16.00" fill="#000000">3.33e&#45;01</text>
</g>
<!-- 14 -->
<g id="node16" class="node">
<title>14</title>
<ellipse fill="white" stroke="black" cx="896.38" cy="-394" rx="81.55" ry="18"/>
<text text-anchor="middle" x="896.38" y="-387.05" font-family="Helvetica,Arial,sans-serif" font-size="16.00">1,0,1,0,1,0,0,0</text>
</g>
<!-- 7&#45;&gt;14 -->
<g id="edge16" class="edge">
<title>7&#45;&gt;14</title>
<path fill="none" stroke="#000000" d="M896.38,-447.53C896.38,-439.55 896.38,-431.56 896.38,-423.57"/>
<polygon fill="#000000" stroke="#000000" points="899.88,-423.79 896.38,-413.79 892.88,-423.79 899.88,-423.79"/>
<text text-anchor="middle" x="864.51" y="-420.35" font-family="Helvetica,Arial,sans-serif" font-size="16.00" fill="#000000">3.33e&#45;01</text>
</g>
<!-- 8&#45;&gt;2 -->
<g id="edge17" class="edge">
<title>8&#45;&gt;2</title>
<path fill="none" stroke="#000000" d="M667.04,-316.35C837.13,-303.98 1241.4,-274.58 1421.43,-261.48"/>
<polygon fill="#000000" stroke="#000000" points="1421.47,-264.99 1431.19,-260.77 1420.96,-258.01 1421.47,-264.99"/>
<text text-anchor="middle" x="1012.36" y="-273.71" font-family="Helvetica,Arial,sans-serif" font-size="16.00" fill="#000000">1.67e&#45;01</text>
</g>
<!-- 8&#45;&gt;12 -->
<g id="edge18" class="edge">
<title>8&#45;&gt;12</title>
<path fill="none" stroke="#000000" d="M608.46,-339.81C660.28,-390.6 808.96,-536.31 869.38,-595.52"/>
<polygon fill="#000000" stroke="#000000" points="866.63,-597.73 876.22,-602.23 871.53,-592.73 866.63,-597.73"/>
<text text-anchor="middle" x="770.79" y="-452.47" font-family="Helvetica,Arial,sans-serif" font-size="16.00" fill="#000000">1.67e&#45;01</text>
</g>
<!-- 13 -->
<g id="node15" class="node">
<title>13</title>
<ellipse fill="white" stroke="black" cx="896.38" cy="-322" rx="81.55" ry="18"/>
<text text-anchor="middle" x="896.38" y="-315.05" font-family="Helvetica,Arial,sans-serif" font-size="16.00">1,0,1,0,0,1,0,0</text>
</g>
<!-- 8&#45;&gt;13 -->
<g id="edge19" class="edge">
<title>8&#45;&gt;13</title>
<path fill="none" stroke="#000000" d="M671.24,-322C711.83,-322 761.17,-322 803.21,-322"/>
<polygon fill="#000000" stroke="#000000" points="803.06,-325.5 813.06,-322 803.06,-318.5 803.06,-325.5"/>
<text text-anchor="middle" x="705.35" y="-306.8" font-family="Helvetica,Arial,sans-serif" font-size="16.00" fill="#000000">3.33e&#45;01</text>
</g>
<!-- 16 -->
<g id="node18" class="node">
<title>16</title>
<ellipse fill="white" stroke="black" cx="589.28" cy="-250" rx="81.55" ry="18"/>
<text text-anchor="middle" x="589.28" y="-243.05" font-family="Helvetica,Arial,sans-serif" font-size="16.00">2,1,0,0,1,1,0,0</text>
</g>
<!-- 8&#45;&gt;16 -->
<g id="edge20" class="edge">
<title>8&#45;&gt;16</title>
<path fill="none" stroke="#000000" d="M589.28,-303.53C589.28,-295.55 589.28,-287.56 589.28,-279.57"/>
<polygon fill="#000000" stroke="#000000" points="592.78,-279.79 589.28,-269.79 585.78,-279.79 592.78,-279.79"/>
<text text-anchor="middle" x="557.41" y="-276.35" font-family="Helvetica,Arial,sans-serif" font-size="16.00" fill="#000000">3.33e&#45;01</text>
</g>
<!-- 9&#45;&gt;2 -->
<g id="edge21" class="edge">
<title>9&#45;&gt;2</title>
<path fill="none" stroke="#000000" d="M657.4,-383.72C824.31,-358.54 1253.01,-293.86 1431.13,-266.99"/>
<polygon fill="#000000" stroke="#000000" points="1431.63,-270.45 1441,-265.5 1430.58,-263.53 1431.63,-270.45"/>
<text text-anchor="middle" x="1012.39" y="-310.15" font-family="Helvetica,Arial,sans-serif" font-size="16.00" fill="#000000">3.33e&#45;01</text>
</g>
<!-- 9&#45;&gt;14 -->
<g id="edge22" class="edge">
<title>9&#45;&gt;14</title>
<path fill="none" stroke="#000000" d="M671.24,-394C711.83,-394 761.17,-394 803.21,-394"/>
<polygon fill="#000000" stroke="#000000" points="803.06,-397.5 813.06,-394 803.06,-390.5 803.06,-397.5"/>
<text text-anchor="middle" x="705.35" y="-378.8" font-family="Helvetica,Arial,sans-serif" font-size="16.00" fill="#000000">3.33e&#45;01</text>
</g>
<!-- 15 -->
<g id="node17" class="node">
<title>15</title>
<ellipse fill="white" stroke="black" cx="896.38" cy="-693" rx="81.55" ry="18"/>
<text text-anchor="middle" x="896.38" y="-686.05" font-family="Helvetica,Arial,sans-serif" font-size="16.00">0,2,0,0,1,0,0,0</text>
</g>
<!-- 9&#45;&gt;15 -->
<g id="edge23" class="edge">
<title>9&#45;&gt;15</title>
<path fill="none" stroke="#000000" d="M608.46,-411.81C660.28,-462.6 808.96,-608.31 869.38,-667.52"/>
<polygon fill="#000000" stroke="#000000" points="866.63,-669.73 876.22,-674.23 871.53,-664.73 866.63,-669.73"/>
<text text-anchor="middle" x="707.04" y="-524.47" font-family="Helvetica,Arial,sans-serif" font-size="16.00" fill="#000000">1.67e&#45;01</text>
</g>
<!-- 9&#45;&gt;16 -->
<g id="edge24" class="edge">
<title>9&#45;&gt;16</title>
<path fill="none" stroke="#000000" d="M589.28,-375.83C589.28,-343.76 589.28,-311.69 589.28,-279.62"/>
<polygon fill="#000000" stroke="#000000" points="592.78,-279.79 589.28,-269.79 585.78,-279.79 592.78,-279.79"/>
<text text-anchor="middle" x="621.16" y="-329.03" font-family="Helvetica,Arial,sans-serif" font-size="16.00" fill="#000000">1.67e&#45;01</text>
</g>
<!-- 10&#45;&gt;Absorb -->
<g id="edge56" class="edge">
<title>10&#45;&gt;Absorb</title>
<path fill="none" stroke="#000000" d="M1229.19,-853.51C1284.26,-814.52 1417.02,-720.52 1477.99,-677.36"/>
<polygon fill="#000000" stroke="#000000" points="1479.77,-680.39 1485.91,-671.76 1475.72,-674.68 1479.77,-680.39"/>
<text text-anchor="middle" x="1342.34" y="-750.23" font-family="Helvetica,Arial,sans-serif" font-size="16.00" fill="#000000">0.5</text>
</g>
<!-- 10&#45;&gt;2 -->
<g id="edge25" class="edge">
<title>10&#45;&gt;2</title>
<path fill="none" stroke="#000000" d="M1213.44,-852.9C1256.55,-765.85 1442.62,-390.18 1495.5,-283.4"/>
<polygon fill="#000000" stroke="#000000" points="1498.63,-284.97 1499.93,-274.46 1492.36,-281.87 1498.63,-284.97"/>
<text text-anchor="middle" x="1322.6" y="-552.95" font-family="Helvetica,Arial,sans-serif" font-size="16.00" fill="#000000">5.00e&#45;01</text>
</g>
<!-- 11&#45;&gt;2 -->
<g id="edge26" class="edge">
<title>11&#45;&gt;2</title>
<path fill="none" stroke="#000000" d="M951.97,-119.49C1065.22,-146.96 1322.25,-209.31 1444.1,-238.87"/>
<polygon fill="#000000" stroke="#000000" points="1443.1,-242.23 1453.64,-241.19 1444.75,-235.43 1443.1,-242.23"/>
<text text-anchor="middle" x="1166.16" y="-163.98" font-family="Helvetica,Arial,sans-serif" font-size="16.00" fill="#000000">3.33e&#45;01</text>
</g>
<!-- 17 -->
<g id="node19" class="node">
<title>17</title>
<ellipse fill="white" stroke="black" cx="1203.48" cy="-511" rx="81.55" ry="18"/>
<text text-anchor="middle" x="1203.48" y="-504.05" font-family="Helvetica,Arial,sans-serif" font-size="16.00">0,0,0,1,0,0,1,0</text>
</g>
<!-- 11&#45;&gt;17 -->
<g id="edge27" class="edge">
<title>11&#45;&gt;17</title>
<path fill="none" stroke="#000000" d="M911.08,-124.19C959.67,-188.69 1123.94,-406.75 1181.97,-483.78"/>
<polygon fill="#000000" stroke="#000000" points="1179.09,-485.77 1187.9,-491.65 1184.68,-481.56 1179.09,-485.77"/>
<text text-anchor="middle" x="1078.4" y="-288.78" font-family="Helvetica,Arial,sans-serif" font-size="16.00" fill="#000000">3.33e&#45;01</text>
</g>
<!-- 20 -->
<g id="node22" class="node">
<title>20</title>
<ellipse fill="white" stroke="black" cx="896.38" cy="-178" rx="81.55" ry="18"/>
<text text-anchor="middle" x="896.38" y="-171.05" font-family="Helvetica,Arial,sans-serif" font-size="16.00">1,0,1,0,1,0,1,0</text>
</g>
<!-- 11&#45;&gt;20 -->
<g id="edge28" class="edge">
<title>11&#45;&gt;20</title>
<path fill="none" stroke="#000000" d="M896.38,-124.28C896.38,-132.27 896.38,-140.26 896.38,-148.24"/>
<polygon fill="#000000" stroke="#000000" points="892.88,-148.02 896.38,-158.02 899.88,-148.02 892.88,-148.02"/>
<text text-anchor="middle" x="864.51" y="-137.56" font-family="Helvetica,Arial,sans-serif" font-size="16.00" fill="#000000">3.33e&#45;01</text>
</g>
<!-- 12&#45;&gt;2 -->
<g id="edge29" class="edge">
<title>12&#45;&gt;2</title>
<path fill="none" stroke="#000000" d="M925.18,-603.84C1025.32,-544.16 1358.45,-345.65 1472.15,-277.9"/>
<polygon fill="#000000" stroke="#000000" points="1473.74,-281.03 1480.54,-272.9 1470.15,-275.01 1473.74,-281.03"/>
<text text-anchor="middle" x="1166.79" y="-425.67" font-family="Helvetica,Arial,sans-serif" font-size="16.00" fill="#000000">6.67e&#45;01</text>
</g>
<!-- 18 -->
<g id="node20" class="node">
<title>18</title>
<ellipse fill="white" stroke="black" cx="1203.48" cy="-727" rx="81.55" ry="18"/>
<text text-anchor="middle" x="1203.48" y="-720.05" font-family="Helvetica,Arial,sans-serif" font-size="16.00">0,0,0,1,0,1,0,0</text>
</g>
<!-- 12&#45;&gt;18 -->
<g id="edge30" class="edge">
<title>12&#45;&gt;18</title>
<path fill="none" stroke="#000000" d="M941.74,-636.41C996.35,-655.39 1089.07,-687.6 1147.97,-708.06"/>
<polygon fill="#000000" stroke="#000000" points="1146.53,-711.27 1157.12,-711.24 1148.83,-704.66 1146.53,-711.27"/>
<text text-anchor="middle" x="1012.98" y="-673.54" font-family="Helvetica,Arial,sans-serif" font-size="16.00" fill="#000000">3.33e&#45;01</text>
</g>
<!-- 13&#45;&gt;18 -->
<g id="edge31" class="edge">
<title>13&#45;&gt;18</title>
<path fill="none" stroke="#000000" d="M911.08,-340.19C959.67,-404.69 1123.94,-622.75 1181.97,-699.78"/>
<polygon fill="#000000" stroke="#000000" points="1179.09,-701.77 1187.9,-707.65 1184.68,-697.56 1179.09,-701.77"/>
<text text-anchor="middle" x="1014.65" y="-504.78" font-family="Helvetica,Arial,sans-serif" font-size="16.00" fill="#000000">3.33e&#45;01</text>
</g>
<!-- 19 -->
<g id="node21" class="node">
<title>19</title>
<ellipse fill="white" stroke="black" cx="896.38" cy="-34" rx="81.55" ry="18"/>
<text text-anchor="middle" x="896.38" y="-27.05" font-family="Helvetica,Arial,sans-serif" font-size="16.00">1,0,1,0,0,1,1,0</text>
</g>
<!-- 13&#45;&gt;19 -->
<g id="edge32" class="edge">
<title>13&#45;&gt;19</title>
<path fill="none" stroke="#000000" d="M896.38,-303.56C896.38,-223.56 896.38,-143.57 896.38,-63.57"/>
<polygon fill="#000000" stroke="#000000" points="899.88,-63.79 896.38,-53.79 892.88,-63.79 899.88,-63.79"/>
<text text-anchor="middle" x="864.51" y="-184.87" font-family="Helvetica,Arial,sans-serif" font-size="16.00" fill="#000000">3.33e&#45;01</text>
</g>
<!-- 23 -->
<g id="node25" class="node">
<title>23</title>
<ellipse fill="white" stroke="black" cx="896.38" cy="-250" rx="81.55" ry="18"/>
<text text-anchor="middle" x="896.38" y="-243.05" font-family="Helvetica,Arial,sans-serif" font-size="16.00">1,0,1,0,1,1,0,0</text>
</g>
<!-- 13&#45;&gt;23 -->
<g id="edge33" class="edge">
<title>13&#45;&gt;23</title>
<path fill="none" stroke="#000000" d="M896.38,-303.53C896.38,-295.55 896.38,-287.56 896.38,-279.57"/>
<polygon fill="#000000" stroke="#000000" points="899.88,-279.79 896.38,-269.79 892.88,-279.79 899.88,-279.79"/>
<text text-anchor="middle" x="928.26" y="-276.35" font-family="Helvetica,Arial,sans-serif" font-size="16.00" fill="#000000">3.33e&#45;01</text>
</g>
<!-- 14&#45;&gt;2 -->
<g id="edge34" class="edge">
<title>14&#45;&gt;2</title>
<path fill="none" stroke="#000000" d="M954.16,-380.92C1067.82,-355.2 1319.99,-298.13 1441.92,-270.54"/>
<polygon fill="#000000" stroke="#000000" points="1442.49,-274 1451.47,-268.38 1440.94,-267.17 1442.49,-274"/>
<text text-anchor="middle" x="1166.16" y="-310.53" font-family="Helvetica,Arial,sans-serif" font-size="16.00" fill="#000000">3.33e&#45;01</text>
</g>
<!-- 14&#45;&gt;20 -->
<g id="edge35" class="edge">
<title>14&#45;&gt;20</title>
<path fill="none" stroke="#000000" d="M896.38,-375.84C896.38,-319.68 896.38,-263.53 896.38,-207.37"/>
<polygon fill="#000000" stroke="#000000" points="899.88,-207.65 896.38,-197.65 892.88,-207.65 899.88,-207.65"/>
<text text-anchor="middle" x="864.51" y="-292.9" font-family="Helvetica,Arial,sans-serif" font-size="16.00" fill="#000000">3.33e&#45;01</text>
</g>
<!-- 21 -->
<g id="node23" class="node">
<title>21</title>
<ellipse fill="white" stroke="black" cx="1203.48" cy="-799" rx="81.55" ry="18"/>
<text text-anchor="middle" x="1203.48" y="-792.05" font-family="Helvetica,Arial,sans-serif" font-size="16.00">0,0,0,1,1,0,0,0</text>
</g>
<!-- 14&#45;&gt;21 -->
<g id="edge36" class="edge">
<title>14&#45;&gt;21</title>
<path fill="none" stroke="#000000" d="M911.08,-412.19C959.67,-476.69 1123.94,-694.75 1181.97,-771.78"/>
<polygon fill="#000000" stroke="#000000" points="1179.09,-773.77 1187.9,-779.65 1184.68,-769.56 1179.09,-773.77"/>
<text text-anchor="middle" x="1014.65" y="-576.78" font-family="Helvetica,Arial,sans-serif" font-size="16.00" fill="#000000">3.33e&#45;01</text>
</g>
<!-- 15&#45;&gt;21 -->
<g id="edge37" class="edge">
<title>15&#45;&gt;21</title>
<path fill="none" stroke="#000000" d="M941.74,-708.41C996.35,-727.39 1089.07,-759.6 1147.97,-780.06"/>
<polygon fill="#000000" stroke="#000000" points="1146.53,-783.27 1157.12,-783.24 1148.83,-776.66 1146.53,-783.27"/>
<text text-anchor="middle" x="1012.98" y="-729.04" font-family="Helvetica,Arial,sans-serif" font-size="16.00" fill="#000000">3.33e&#45;01</text>
</g>
<!-- 22 -->
<g id="node24" class="node">
<title>22</title>
<ellipse fill="white" stroke="black" cx="896.38" cy="-549" rx="81.55" ry="18"/>
<text text-anchor="middle" x="896.38" y="-542.05" font-family="Helvetica,Arial,sans-serif" font-size="16.00">0,2,0,0,1,1,0,0</text>
</g>
<!-- 15&#45;&gt;22 -->
<g id="edge38" class="edge">
<title>15&#45;&gt;22</title>
<path fill="none" stroke="#000000" d="M896.38,-674.83C896.38,-642.76 896.38,-610.69 896.38,-578.62"/>
<polygon fill="#000000" stroke="#000000" points="899.88,-578.79 896.38,-568.79 892.88,-578.79 899.88,-578.79"/>
<text text-anchor="middle" x="864.51" y="-628.03" font-family="Helvetica,Arial,sans-serif" font-size="16.00" fill="#000000">6.67e&#45;01</text>
</g>
<!-- 16&#45;&gt;2 -->
<g id="edge39" class="edge">
<title>16&#45;&gt;2</title>
<path fill="none" stroke="#000000" d="M671.04,-250.44C842.09,-251.37 1236.78,-253.51 1417.35,-254.49"/>
<polygon fill="#000000" stroke="#000000" points="1417.14,-257.99 1427.15,-254.55 1417.17,-250.99 1417.14,-257.99"/>
<text text-anchor="middle" x="1012.32" y="-237.27" font-family="Helvetica,Arial,sans-serif" font-size="16.00" fill="#000000">5.00e&#45;01</text>
</g>
<!-- 16&#45;&gt;22 -->
<g id="edge40" class="edge">
<title>16&#45;&gt;22</title>
<path fill="none" stroke="#000000" d="M608.46,-267.81C660.28,-318.6 808.96,-464.31 869.38,-523.52"/>
<polygon fill="#000000" stroke="#000000" points="866.63,-525.73 876.22,-530.23 871.53,-520.73 866.63,-525.73"/>
<text text-anchor="middle" x="770.79" y="-380.47" font-family="Helvetica,Arial,sans-serif" font-size="16.00" fill="#000000">1.67e&#45;01</text>
</g>
<!-- 16&#45;&gt;23 -->
<g id="edge41" class="edge">
<title>16&#45;&gt;23</title>
<path fill="none" stroke="#000000" d="M671.24,-250C711.83,-250 761.17,-250 803.21,-250"/>
<polygon fill="#000000" stroke="#000000" points="803.06,-253.5 813.06,-250 803.06,-246.5 803.06,-253.5"/>
<text text-anchor="middle" x="705.35" y="-234.8" font-family="Helvetica,Arial,sans-serif" font-size="16.00" fill="#000000">3.33e&#45;01</text>
</g>
<!-- 17&#45;&gt;Absorb -->
<g id="edge57" class="edge">
<title>17&#45;&gt;Absorb</title>
<path fill="none" stroke="#000000" d="M1239.48,-527.52C1296.77,-554.56 1410.18,-608.09 1470.2,-636.42"/>
<polygon fill="#000000" stroke="#000000" points="1468.5,-639.48 1479.04,-640.59 1471.49,-633.15 1468.5,-639.48"/>
<text text-anchor="middle" x="1366.09" y="-566.77" font-family="Helvetica,Arial,sans-serif" font-size="16.00" fill="#000000">0.5</text>
</g>
<!-- 17&#45;&gt;2 -->
<g id="edge42" class="edge">
<title>17&#45;&gt;2</title>
<path fill="none" stroke="#000000" d="M1225.45,-493.4C1278.57,-448.83 1418.57,-331.36 1479.98,-279.83"/>
<polygon fill="#000000" stroke="#000000" points="1481.89,-282.8 1487.3,-273.69 1477.39,-277.44 1481.89,-282.8"/>
<text text-anchor="middle" x="1320.84" y="-371.42" font-family="Helvetica,Arial,sans-serif" font-size="16.00" fill="#000000">5.00e&#45;01</text>
</g>
<!-- 18&#45;&gt;Absorb -->
<g id="edge58" class="edge">
<title>18&#45;&gt;Absorb</title>
<path fill="none" stroke="#000000" d="M1260.44,-713.79C1317.45,-700.34 1405.05,-679.67 1459.74,-666.76"/>
<polygon fill="#000000" stroke="#000000" points="1460.49,-670.18 1469.42,-664.48 1458.88,-663.37 1460.49,-670.18"/>
<text text-anchor="middle" x="1348.84" y="-675.08" font-family="Helvetica,Arial,sans-serif" font-size="16.00" fill="#000000">0.5</text>
</g>
<!-- 18&#45;&gt;2 -->
<g id="edge43" class="edge">
<title>18&#45;&gt;2</title>
<path fill="none" stroke="#000000" d="M1216.25,-708.79C1262.97,-636.51 1435.47,-369.63 1491.72,-282.63"/>
<polygon fill="#000000" stroke="#000000" points="1494.52,-284.73 1497.01,-274.43 1488.65,-280.93 1494.52,-284.73"/>
<text text-anchor="middle" x="1322.11" y="-480.51" font-family="Helvetica,Arial,sans-serif" font-size="16.00" fill="#000000">5.00e&#45;01</text>
</g>
<!-- 19&#45;&gt;2 -->
<g id="edge44" class="edge">
<title>19&#45;&gt;2</title>
<path fill="none" stroke="#000000" d="M939.57,-49.54C1048.79,-88.84 1335.88,-192.14 1456.25,-235.45"/>
<polygon fill="#000000" stroke="#000000" points="1455,-238.72 1465.6,-238.82 1457.37,-232.14 1455,-238.72"/>
<text text-anchor="middle" x="1166.03" y="-127.3" font-family="Helvetica,Arial,sans-serif" font-size="16.00" fill="#000000">6.67e&#45;01</text>
</g>
<!-- 24 -->
<g id="node26" class="node">
<title>24</title>
<ellipse fill="white" stroke="black" cx="1203.48" cy="-439" rx="81.55" ry="18"/>
<text text-anchor="middle" x="1203.48" y="-432.05" font-family="Helvetica,Arial,sans-serif" font-size="16.00">0,0,0,1,0,1,1,0</text>
</g>
<!-- 19&#45;&gt;24 -->
<g id="edge45" class="edge">
<title>19&#45;&gt;24</title>
<path fill="none" stroke="#000000" d="M911.08,-52.19C959.67,-116.69 1123.94,-334.75 1181.97,-411.78"/>
<polygon fill="#000000" stroke="#000000" points="1179.09,-413.77 1187.9,-419.65 1184.68,-409.56 1179.09,-413.77"/>
<text text-anchor="middle" x="1014.65" y="-216.78" font-family="Helvetica,Arial,sans-serif" font-size="16.00" fill="#000000">3.33e&#45;01</text>
</g>
<!-- 20&#45;&gt;2 -->
<g id="edge46" class="edge">
<title>20&#45;&gt;2</title>
<path fill="none" stroke="#000000" d="M968.04,-186.98C1082.54,-201.34 1306.16,-229.37 1427.48,-244.58"/>
<polygon fill="#000000" stroke="#000000" points="1427.04,-248.05 1437.4,-245.83 1427.91,-241.11 1427.04,-248.05"/>
<text text-anchor="middle" x="1165.89" y="-200.58" font-family="Helvetica,Arial,sans-serif" font-size="16.00" fill="#000000">6.67e&#45;01</text>
</g>
<!-- 25 -->
<g id="node27" class="node">
<title>25</title>
<ellipse fill="white" stroke="black" cx="1203.48" cy="-583" rx="81.55" ry="18"/>
<text text-anchor="middle" x="1203.48" y="-576.05" font-family="Helvetica,Arial,sans-serif" font-size="16.00">0,0,0,1,1,0,1,0</text>
</g>
<!-- 20&#45;&gt;25 -->
<g id="edge47" class="edge">
<title>20&#45;&gt;25</title>
<path fill="none" stroke="#000000" d="M911.08,-196.19C959.67,-260.69 1123.94,-478.75 1181.97,-555.78"/>
<polygon fill="#000000" stroke="#000000" points="1179.09,-557.77 1187.9,-563.65 1184.68,-553.56 1179.09,-557.77"/>
<text text-anchor="middle" x="1014.65" y="-360.78" font-family="Helvetica,Arial,sans-serif" font-size="16.00" fill="#000000">3.33e&#45;01</text>
</g>
<!-- 21&#45;&gt;Absorb -->
<g id="edge59" class="edge">
<title>21&#45;&gt;Absorb</title>
<path fill="none" stroke="#000000" d="M1239.48,-782.48C1296.77,-755.44 1410.18,-701.91 1470.2,-673.58"/>
<polygon fill="#000000" stroke="#000000" points="1471.49,-676.85 1479.04,-669.41 1468.5,-670.52 1471.49,-676.85"/>
<text text-anchor="middle" x="1343.59" y="-712.83" font-family="Helvetica,Arial,sans-serif" font-size="16.00" fill="#000000">0.5</text>
</g>
<!-- 21&#45;&gt;2 -->
<g id="edge48" class="edge">
<title>21&#45;&gt;2</title>
<path fill="none" stroke="#000000" d="M1214.63,-780.9C1259.38,-701.11 1439.21,-380.47 1493.79,-283.15"/>
<polygon fill="#000000" stroke="#000000" points="1496.8,-284.92 1498.64,-274.49 1490.7,-281.5 1496.8,-284.92"/>
<text text-anchor="middle" x="1322.33" y="-516.82" font-family="Helvetica,Arial,sans-serif" font-size="16.00" fill="#000000">5.00e&#45;01</text>
</g>
<!-- 22&#45;&gt;2 -->
<g id="edge49" class="edge">
<title>22&#45;&gt;2</title>
<path fill="none" stroke="#000000" d="M931.16,-532.35C1035.98,-482.18 1348.75,-332.46 1465.75,-276.46"/>
<polygon fill="#000000" stroke="#000000" points="1466.92,-279.78 1474.43,-272.3 1463.9,-273.46 1466.92,-279.78"/>
<text text-anchor="middle" x="1166.58" y="-389.2" font-family="Helvetica,Arial,sans-serif" font-size="16.00" fill="#000000">6.67e&#45;01</text>
</g>
<!-- 26 -->
<g id="node28" class="node">
<title>26</title>
<ellipse fill="white" stroke="black" cx="1203.48" cy="-655" rx="81.55" ry="18"/>
<text text-anchor="middle" x="1203.48" y="-648.05" font-family="Helvetica,Arial,sans-serif" font-size="16.00">0,0,0,1,1,1,0,0</text>
</g>
<!-- 22&#45;&gt;26 -->
<g id="edge50" class="edge">
<title>22&#45;&gt;26</title>
<path fill="none" stroke="#000000" d="M941.74,-564.41C996.35,-583.39 1089.07,-615.6 1147.97,-636.06"/>
<polygon fill="#000000" stroke="#000000" points="1146.53,-639.27 1157.12,-639.24 1148.83,-632.66 1146.53,-639.27"/>
<text text-anchor="middle" x="1012.98" y="-601.54" font-family="Helvetica,Arial,sans-serif" font-size="16.00" fill="#000000">3.33e&#45;01</text>
</g>
<!-- 23&#45;&gt;2 -->
<g id="edge51" class="edge">
<title>23&#45;&gt;2</title>
<path fill="none" stroke="#000000" d="M978.26,-250.67C1092.16,-251.59 1297.87,-253.27 1417.47,-254.24"/>
<polygon fill="#000000" stroke="#000000" points="1417.23,-257.74 1427.26,-254.32 1417.29,-250.74 1417.23,-257.74"/>
<text text-anchor="middle" x="1165.99" y="-237.25" font-family="Helvetica,Arial,sans-serif" font-size="16.00" fill="#000000">6.67e&#45;01</text>
</g>
<!-- 23&#45;&gt;26 -->
<g id="edge52" class="edge">
<title>23&#45;&gt;26</title>
<path fill="none" stroke="#000000" d="M911.08,-268.19C959.67,-332.69 1123.94,-550.75 1181.97,-627.78"/>
<polygon fill="#000000" stroke="#000000" points="1179.09,-629.77 1187.9,-635.65 1184.68,-625.56 1179.09,-629.77"/>
<text text-anchor="middle" x="1014.65" y="-432.78" font-family="Helvetica,Arial,sans-serif" font-size="16.00" fill="#000000">3.33e&#45;01</text>
</g>
<!-- 24&#45;&gt;Absorb -->
<g id="edge60" class="edge">
<title>24&#45;&gt;Absorb</title>
<path fill="none" stroke="#000000" d="M1229.19,-456.49C1284.26,-495.48 1417.02,-589.48 1477.99,-632.64"/>
<polygon fill="#000000" stroke="#000000" points="1475.72,-635.32 1485.91,-638.24 1479.77,-629.61 1475.72,-635.32"/>
<text text-anchor="middle" x="1364.84" y="-533.49" font-family="Helvetica,Arial,sans-serif" font-size="16.00" fill="#000000">0.5</text>
</g>
<!-- 24&#45;&gt;2 -->
<g id="edge53" class="edge">
<title>24&#45;&gt;2</title>
<path fill="none" stroke="#000000" d="M1232.91,-421.85C1287.98,-388.64 1409.23,-315.52 1471.31,-278.08"/>
<polygon fill="#000000" stroke="#000000" points="1473.05,-281.11 1479.81,-272.95 1469.44,-275.12 1473.05,-281.11"/>
<text text-anchor="middle" x="1320.23" y="-334.77" font-family="Helvetica,Arial,sans-serif" font-size="16.00" fill="#000000">5.00e&#45;01</text>
</g>
<!-- 25&#45;&gt;Absorb -->
<g id="edge61" class="edge">
<title>25&#45;&gt;Absorb</title>
<path fill="none" stroke="#000000" d="M1260.44,-596.21C1317.45,-609.66 1405.05,-630.33 1459.74,-643.24"/>
<polygon fill="#000000" stroke="#000000" points="1458.88,-646.63 1469.42,-645.52 1460.49,-639.82 1458.88,-646.63"/>
<text text-anchor="middle" x="1348.84" y="-604.52" font-family="Helvetica,Arial,sans-serif" font-size="16.00" fill="#000000">0.5</text>
</g>
<!-- 25&#45;&gt;2 -->
<g id="edge54" class="edge">
<title>25&#45;&gt;2</title>
<path fill="none" stroke="#000000" d="M1220.88,-565.37C1271.48,-510.97 1425.3,-345.6 1485.27,-281.13"/>
<polygon fill="#000000" stroke="#000000" points="1487.81,-283.54 1492.06,-273.83 1482.68,-278.77 1487.81,-283.54"/>
<text text-anchor="middle" x="1321.2" y="-408.05" font-family="Helvetica,Arial,sans-serif" font-size="16.00" fill="#000000">5.00e&#45;01</text>
</g>
<!-- 26&#45;&gt;Absorb -->
<g id="edge62" class="edge">
<title>26&#45;&gt;Absorb</title>
<path fill="none" stroke="#000000" d="M1285.44,-655C1338.33,-655 1406.07,-655 1453.17,-655"/>
<polygon fill="#000000" stroke="#000000" points="1453.16,-658.5 1463.16,-655 1453.16,-651.5 1453.16,-658.5"/>
<text text-anchor="middle" x="1358.05" y="-639.8" font-family="Helvetica,Arial,sans-serif" font-size="16.00" fill="#000000">0.5</text>
</g>
<!-- 26&#45;&gt;2 -->
<g id="edge55" class="edge">
<title>26&#45;&gt;2</title>
<path fill="none" stroke="#000000" d="M1218.18,-637.04C1266.77,-573.33 1431.04,-357.96 1489.06,-281.89"/>
<polygon fill="#000000" stroke="#000000" points="1491.71,-284.19 1494.99,-274.12 1486.14,-279.95 1491.71,-284.19"/>
<text text-anchor="middle" x="1321.75" y="-444.26" font-family="Helvetica,Arial,sans-serif" font-size="16.00" fill="#000000">5.00e&#45;01</text>
</g>
</g>
</svg>
