<?xml version="1.0" encoding="UTF-8" standalone="no"?>
<!DOCTYPE svg PUBLIC "-//W3C//DTD SVG 1.1//EN"
 "http://www.w3.org/Graphics/SVG/1.1/DTD/svg11.dtd">
<!-- Generated by graphviz version 12.0.0 (0)
 -->
<!-- Title: G Pages: 1 -->
<svg width="864pt" height="200pt"
 viewBox="0.00 0.00 864.00 199.76" xmlns="http://www.w3.org/2000/svg" xmlns:xlink="http://www.w3.org/1999/xlink">
<g id="graph0" class="graph" transform="scale(0.599596 0.599596) rotate(0) translate(36 297.16)">
<title>G</title>
<!-- Absorb -->
<g id="node1" class="node">
<title>Absorb</title>
<ellipse fill="white" stroke="lightgrey" cx="1326.89" cy="-72" rx="42.08" ry="18"/>
<text text-anchor="middle" x="1326.89" y="-65.62" font-family="Helvetica,Arial,sans-serif" font-size="15.00">Absorb</text>
</g>
<!-- IPV -->
<g id="node2" class="node">
<title>IPV</title>
<ellipse fill="white" stroke="lightgrey" cx="349.44" cy="-18" rx="27" ry="18"/>
<text text-anchor="middle" x="349.44" y="-11.62" font-family="Helvetica,Arial,sans-serif" font-size="15.00">IPV</text>
</g>
<!-- 3 -->
<g id="node5" class="node">
<title>3</title>
<ellipse fill="white" stroke="black" cx="606.4" cy="-126" rx="92.48" ry="18"/>
<text text-anchor="middle" x="606.4" y="-119.62" font-family="Helvetica,Arial,sans-serif" font-size="15.00">0,2,0,2,0,0,0,0,0,0</text>
</g>
<!-- IPV&#45;&gt;3 -->
<g id="edge1" class="edge">
<title>IPV&#45;&gt;3</title>
<path fill="none" stroke="#8f4b6c" d="M372.62,-27.4C413.25,-44.61 500.54,-81.58 555.92,-105.04"/>
<polygon fill="#8f4b6c" stroke="#8f4b6c" points="554.24,-108.13 564.82,-108.81 556.97,-101.68 554.24,-108.13"/>
<text text-anchor="middle" x="460.15" y="-51.97" font-family="Helvetica,Arial,sans-serif" font-size="15.00" fill="#8f4b6c">1</text>
</g>
<!-- 1 -->
<g id="node3" class="node">
<title>1</title>
<ellipse fill="white" stroke="black" cx="92.48" cy="-126" rx="92.48" ry="18"/>
<text text-anchor="middle" x="92.48" y="-119.62" font-family="Helvetica,Arial,sans-serif" font-size="15.00">0,0,0,0,2,0,0,0,0,0</text>
</g>
<!-- 1&#45;&gt;Absorb -->
<g id="edge16" class="edge">
<title>1&#45;&gt;Absorb</title>
<path fill="none" stroke="#6cb6fa" d="M183.25,-122.03C425.39,-111.44 1081.3,-82.74 1273.36,-74.34"/>
<polygon fill="#6cb6fa" stroke="#6cb6fa" points="1273.46,-77.84 1283.3,-73.91 1273.15,-70.85 1273.46,-77.84"/>
<text text-anchor="middle" x="724.18" y="-83.94" font-family="Helvetica,Arial,sans-serif" font-size="15.00" fill="#6cb6fa">1</text>
</g>
<!-- 2 -->
<g id="node4" class="node">
<title>2</title>
<ellipse fill="white" stroke="black" cx="349.44" cy="-126" rx="92.48" ry="18"/>
<text text-anchor="middle" x="349.44" y="-119.62" font-family="Helvetica,Arial,sans-serif" font-size="15.00">0,1,0,1,1,0,0,0,0,0</text>
</g>
<!-- 1&#45;&gt;2 -->
<g id="edge2" class="edge">
<title>1&#45;&gt;2</title>
<path fill="none" stroke="#b52950" d="M120.77,-108.52C166.27,-96.73 257.78,-95.89 309.86,-105.99"/>
<polygon fill="#b52950" stroke="#b52950" points="308.97,-109.38 319.49,-108.14 310.49,-102.54 308.97,-109.38"/>
<text text-anchor="middle" x="211.19" y="-93" font-family="Helvetica,Arial,sans-serif" font-size="15.00" fill="#b52950">1</text>
</g>
<!-- 2&#45;&gt;1 -->
<g id="edge3" class="edge">
<title>2&#45;&gt;1</title>
<path fill="none" stroke="#b770e3" d="M320.97,-143.53C275.34,-155.28 183.82,-156.1 131.84,-145.97"/>
<polygon fill="#b770e3" stroke="#b770e3" points="132.77,-142.59 122.24,-143.81 131.23,-149.42 132.77,-142.59"/>
<text text-anchor="middle" x="222.28" y="-130.5" font-family="Helvetica,Arial,sans-serif" font-size="15.00" fill="#b770e3">1</text>
</g>
<!-- 2&#45;&gt;3 -->
<g id="edge4" class="edge">
<title>2&#45;&gt;3</title>
<path fill="none" stroke="#2a273b" d="M377.73,-108.52C423.23,-96.73 514.74,-95.89 566.82,-105.99"/>
<polygon fill="#2a273b" stroke="#2a273b" points="565.93,-109.38 576.45,-108.14 567.45,-102.54 565.93,-109.38"/>
<text text-anchor="middle" x="468.15" y="-93" font-family="Helvetica,Arial,sans-serif" font-size="15.00" fill="#2a273b">1</text>
</g>
<!-- 5 -->
<g id="node7" class="node">
<title>5</title>
<ellipse fill="white" stroke="black" cx="1120.32" cy="-234" rx="92.48" ry="18"/>
<text text-anchor="middle" x="1120.32" y="-227.62" font-family="Helvetica,Arial,sans-serif" font-size="15.00">0,0,0,1,0,1,0,0,0,0</text>
</g>
<!-- 2&#45;&gt;5 -->
<g id="edge5" class="edge">
<title>2&#45;&gt;5</title>
<path fill="none" stroke="#ae3748" d="M425.11,-136.6C568.99,-156.76 881.17,-200.5 1033.38,-221.82"/>
<polygon fill="#ae3748" stroke="#ae3748" points="1032.61,-225.25 1043,-223.17 1033.58,-218.31 1032.61,-225.25"/>
<text text-anchor="middle" x="725.12" y="-164.96" font-family="Helvetica,Arial,sans-serif" font-size="15.00" fill="#ae3748">1</text>
</g>
<!-- 7 -->
<g id="node9" class="node">
<title>7</title>
<ellipse fill="white" stroke="black" cx="1120.32" cy="-18" rx="92.48" ry="18"/>
<text text-anchor="middle" x="1120.32" y="-11.62" font-family="Helvetica,Arial,sans-serif" font-size="15.00">0,1,0,0,0,0,0,1,0,0</text>
</g>
<!-- 2&#45;&gt;7 -->
<g id="edge6" class="edge">
<title>2&#45;&gt;7</title>
<path fill="none" stroke="#abc814" d="M425.11,-115.4C568.99,-95.24 881.17,-51.5 1033.38,-30.18"/>
<polygon fill="#abc814" stroke="#abc814" points="1033.58,-33.69 1043,-28.83 1032.61,-26.75 1033.58,-33.69"/>
<text text-anchor="middle" x="725.12" y="-58.54" font-family="Helvetica,Arial,sans-serif" font-size="15.00" fill="#abc814">1</text>
</g>
<!-- 3&#45;&gt;2 -->
<g id="edge7" class="edge">
<title>3&#45;&gt;2</title>
<path fill="none" stroke="#c0e81e" d="M577.93,-143.53C532.3,-155.28 440.78,-156.1 388.8,-145.97"/>
<polygon fill="#c0e81e" stroke="#c0e81e" points="389.73,-142.59 379.2,-143.81 388.19,-149.42 389.73,-142.59"/>
<text text-anchor="middle" x="479.24" y="-130.5" font-family="Helvetica,Arial,sans-serif" font-size="15.00" fill="#c0e81e">4</text>
</g>
<!-- 4 -->
<g id="node6" class="node">
<title>4</title>
<ellipse fill="white" stroke="black" cx="863.36" cy="-234" rx="92.48" ry="18"/>
<text text-anchor="middle" x="863.36" y="-227.62" font-family="Helvetica,Arial,sans-serif" font-size="15.00">0,0,1,2,0,0,0,0,0,0</text>
</g>
<!-- 3&#45;&gt;4 -->
<g id="edge8" class="edge">
<title>3&#45;&gt;4</title>
<path fill="none" stroke="#398209" d="M646.68,-142.64C691.22,-161.51 763.95,-192.31 812.47,-212.86"/>
<polygon fill="#398209" stroke="#398209" points="811.07,-216.07 821.65,-216.75 813.8,-209.63 811.07,-216.07"/>
<text text-anchor="middle" x="733.7" y="-163.5" font-family="Helvetica,Arial,sans-serif" font-size="15.00" fill="#398209">1</text>
</g>
<!-- 6 -->
<g id="node8" class="node">
<title>6</title>
<ellipse fill="white" stroke="black" cx="863.36" cy="-126" rx="92.48" ry="18"/>
<text text-anchor="middle" x="863.36" y="-119.62" font-family="Helvetica,Arial,sans-serif" font-size="15.00">0,2,0,0,0,0,1,0,0,0</text>
</g>
<!-- 3&#45;&gt;6 -->
<g id="edge9" class="edge">
<title>3&#45;&gt;6</title>
<path fill="none" stroke="#6e246d" d="M699.09,-126C718.63,-126 739.4,-126 759.33,-126"/>
<polygon fill="#6e246d" stroke="#6e246d" points="759.12,-129.5 769.12,-126 759.12,-122.5 759.12,-129.5"/>
<text text-anchor="middle" x="725.09" y="-111.75" font-family="Helvetica,Arial,sans-serif" font-size="15.00" fill="#6e246d">1</text>
</g>
<!-- 4&#45;&gt;5 -->
<g id="edge10" class="edge">
<title>4&#45;&gt;5</title>
<path fill="none" stroke="#8c4fdf" d="M891.65,-216.52C937.15,-204.73 1028.66,-203.89 1080.75,-213.99"/>
<polygon fill="#8c4fdf" stroke="#8c4fdf" points="1079.85,-217.38 1090.37,-216.14 1081.38,-210.54 1079.85,-217.38"/>
<text text-anchor="middle" x="982.07" y="-201" font-family="Helvetica,Arial,sans-serif" font-size="15.00" fill="#8c4fdf">2</text>
</g>
<!-- 8 -->
<g id="node10" class="node">
<title>8</title>
<ellipse fill="white" stroke="black" cx="1120.32" cy="-126" rx="92.48" ry="18"/>
<text text-anchor="middle" x="1120.32" y="-119.62" font-family="Helvetica,Arial,sans-serif" font-size="15.00">0,0,1,0,0,0,1,0,0,0</text>
</g>
<!-- 4&#45;&gt;8 -->
<g id="edge11" class="edge">
<title>4&#45;&gt;8</title>
<path fill="none" stroke="#8d8a3f" d="M903.64,-217.36C948.19,-198.49 1020.91,-167.69 1069.43,-147.14"/>
<polygon fill="#8d8a3f" stroke="#8d8a3f" points="1070.76,-150.37 1078.61,-143.25 1068.03,-143.93 1070.76,-150.37"/>
<text text-anchor="middle" x="982.41" y="-168" font-family="Helvetica,Arial,sans-serif" font-size="15.00" fill="#8d8a3f">1</text>
</g>
<!-- 5&#45;&gt;Absorb -->
<g id="edge17" class="edge">
<title>5&#45;&gt;Absorb</title>
<path fill="none" stroke="#aff412" d="M1143.61,-216.35C1180.78,-186.91 1255.45,-127.78 1296.75,-95.07"/>
<polygon fill="#aff412" stroke="#aff412" points="1298.91,-97.83 1304.58,-88.88 1294.56,-92.34 1298.91,-97.83"/>
<text text-anchor="middle" x="1224.3" y="-141.46" font-family="Helvetica,Arial,sans-serif" font-size="15.00" fill="#aff412">1</text>
</g>
<!-- 5&#45;&gt;4 -->
<g id="edge12" class="edge">
<title>5&#45;&gt;4</title>
<path fill="none" stroke="#ee4349" d="M1091.85,-251.53C1046.22,-263.28 954.7,-264.1 902.73,-253.97"/>
<polygon fill="#ee4349" stroke="#ee4349" points="903.65,-250.59 893.13,-251.81 902.12,-257.42 903.65,-250.59"/>
<text text-anchor="middle" x="993.16" y="-238.5" font-family="Helvetica,Arial,sans-serif" font-size="15.00" fill="#ee4349">1</text>
</g>
<!-- 6&#45;&gt;7 -->
<g id="edge13" class="edge">
<title>6&#45;&gt;7</title>
<path fill="none" stroke="#bf87a3" d="M877.36,-107.75C905,-84.02 971.74,-51.34 1028.14,-30.62"/>
<polygon fill="#bf87a3" stroke="#bf87a3" points="1029.24,-33.95 1037.47,-27.28 1026.88,-27.36 1029.24,-33.95"/>
<text text-anchor="middle" x="948.62" y="-54.94" font-family="Helvetica,Arial,sans-serif" font-size="15.00" fill="#bf87a3">2</text>
</g>
<!-- 6&#45;&gt;8 -->
<g id="edge14" class="edge">
<title>6&#45;&gt;8</title>
<path fill="none" stroke="#10a63b" d="M956.05,-126C975.59,-126 996.36,-126 1016.29,-126"/>
<polygon fill="#10a63b" stroke="#10a63b" points="1016.08,-129.5 1026.08,-126 1016.08,-122.5 1016.08,-129.5"/>
<text text-anchor="middle" x="982.05" y="-111.75" font-family="Helvetica,Arial,sans-serif" font-size="15.00" fill="#10a63b">1</text>
</g>
<!-- 7&#45;&gt;Absorb -->
<g id="edge18" class="edge">
<title>7&#45;&gt;Absorb</title>
<path fill="none" stroke="#fb96f8" d="M1176.68,-32.61C1208.93,-41.13 1249.12,-51.74 1279.66,-59.8"/>
<polygon fill="#fb96f8" stroke="#fb96f8" points="1278.42,-63.09 1288.98,-62.26 1280.21,-56.32 1278.42,-63.09"/>
<text text-anchor="middle" x="1224.05" y="-31.96" font-family="Helvetica,Arial,sans-serif" font-size="15.00" fill="#fb96f8">1</text>
</g>
<!-- 7&#45;&gt;6 -->
<g id="edge15" class="edge">
<title>7&#45;&gt;6</title>
<path fill="none" stroke="#e20d55" d="M1106.29,-36.28C1078.6,-60.02 1011.84,-92.71 955.45,-113.42"/>
<polygon fill="#e20d55" stroke="#e20d55" points="954.35,-110.09 946.11,-116.75 956.7,-116.68 954.35,-110.09"/>
<text text-anchor="middle" x="1026.74" y="-60.6" font-family="Helvetica,Arial,sans-serif" font-size="15.00" fill="#e20d55">1</text>
</g>
<!-- 8&#45;&gt;Absorb -->
<g id="edge19" class="edge">
<title>8&#45;&gt;Absorb</title>
<path fill="none" stroke="#1daea9" d="M1176.68,-111.39C1208.93,-102.87 1249.12,-92.26 1279.66,-84.2"/>
<polygon fill="#1daea9" stroke="#1daea9" points="1280.21,-87.68 1288.98,-81.74 1278.42,-80.91 1280.21,-87.68"/>
<text text-anchor="middle" x="1224.05" y="-83.54" font-family="Helvetica,Arial,sans-serif" font-size="15.00" fill="#1daea9">1</text>
</g>
</g>
</svg>
