<?xml version="1.0" encoding="UTF-8" standalone="no"?>
<!DOCTYPE svg PUBLIC "-//W3C//DTD SVG 1.1//EN"
 "http://www.w3.org/Graphics/SVG/1.1/DTD/svg11.dtd">
<!-- Generated by graphviz version 8.1.0 (0)
 -->
<!-- Title: G Pages: 1 -->
<svg width="864pt" height="200pt"
 viewBox="0.00 0.00 864.00 199.76" xmlns="http://www.w3.org/2000/svg" xmlns:xlink="http://www.w3.org/1999/xlink">
<g id="graph0" class="graph" transform="scale(0.599596 0.599596) rotate(0) translate(36 297.15)">
<title>G</title>
<!-- Absorb -->
<g id="node1" class="node">
<title>Absorb</title>
<ellipse fill="white" stroke="lightgrey" cx="1326.89" cy="-72" rx="42.08" ry="18"/>
<text text-anchor="middle" x="1326.89" y="-65.62" font-family="Helvetica,Arial,sans-serif" font-size="15.00">Absorb</text>
</g>
<!-- IPV -->
<g id="node2" class="node">
<title>IPV</title>
<ellipse fill="white" stroke="lightgrey" cx="349.44" cy="-18" rx="27" ry="18"/>
<text text-anchor="middle" x="349.44" y="-11.62" font-family="Helvetica,Arial,sans-serif" font-size="15.00">IPV</text>
</g>
<!-- 3 -->
<g id="node5" class="node">
<title>3</title>
<ellipse fill="white" stroke="black" cx="606.4" cy="-126" rx="92.48" ry="18"/>
<text text-anchor="middle" x="606.4" y="-119.62" font-family="Helvetica,Arial,sans-serif" font-size="15.00">0,2,0,2,0,0,0,0,0,0</text>
</g>
<!-- IPV&#45;&gt;3 -->
<g id="edge1" class="edge">
<title>IPV&#45;&gt;3</title>
<path fill="none" stroke="#20394f" d="M372.62,-27.4C413.34,-44.64 500.9,-81.73 556.27,-105.19"/>
<polygon fill="#20394f" stroke="#20394f" points="554.64,-108.72 565.21,-109.4 557.37,-102.27 554.64,-108.72"/>
<text text-anchor="middle" x="460.32" y="-52.04" font-family="Helvetica,Arial,sans-serif" font-size="15.00" fill="#20394f">1</text>
</g>
<!-- 1 -->
<g id="node3" class="node">
<title>1</title>
<ellipse fill="white" stroke="black" cx="92.48" cy="-126" rx="92.48" ry="18"/>
<text text-anchor="middle" x="92.48" y="-119.62" font-family="Helvetica,Arial,sans-serif" font-size="15.00">0,0,0,0,2,0,0,0,0,0</text>
</g>
<!-- 1&#45;&gt;Absorb -->
<g id="edge16" class="edge">
<title>1&#45;&gt;Absorb</title>
<path fill="none" stroke="#549531" d="M183.25,-122.03C425.63,-111.43 1082.61,-82.69 1273.94,-74.32"/>
<polygon fill="#549531" stroke="#549531" points="1273.97,-77.77 1283.81,-73.84 1273.67,-70.78 1273.97,-77.77"/>
<text text-anchor="middle" x="724.47" y="-83.92" font-family="Helvetica,Arial,sans-serif" font-size="15.00" fill="#549531">1</text>
</g>
<!-- 2 -->
<g id="node4" class="node">
<title>2</title>
<ellipse fill="white" stroke="black" cx="349.44" cy="-126" rx="92.48" ry="18"/>
<text text-anchor="middle" x="349.44" y="-119.62" font-family="Helvetica,Arial,sans-serif" font-size="15.00">0,1,0,1,1,0,0,0,0,0</text>
</g>
<!-- 1&#45;&gt;2 -->
<g id="edge2" class="edge">
<title>1&#45;&gt;2</title>
<path fill="none" stroke="#622764" d="M120.77,-108.52C166.46,-96.69 258.55,-95.89 310.52,-106.12"/>
<polygon fill="#622764" stroke="#622764" points="309.44,-109.69 319.97,-108.47 310.98,-102.86 309.44,-109.69"/>
<text text-anchor="middle" x="211.52" y="-93.07" font-family="Helvetica,Arial,sans-serif" font-size="15.00" fill="#622764">1</text>
</g>
<!-- 2&#45;&gt;1 -->
<g id="edge3" class="edge">
<title>2&#45;&gt;1</title>
<path fill="none" stroke="#48076d" d="M320.97,-143.53C275.15,-155.33 183.05,-156.1 131.19,-145.84"/>
<polygon fill="#48076d" stroke="#48076d" points="132.29,-142.27 121.77,-143.48 130.75,-149.1 132.29,-142.27"/>
<text text-anchor="middle" x="221.95" y="-130.43" font-family="Helvetica,Arial,sans-serif" font-size="15.00" fill="#48076d">1</text>
</g>
<!-- 2&#45;&gt;3 -->
<g id="edge4" class="edge">
<title>2&#45;&gt;3</title>
<path fill="none" stroke="#3c0496" d="M377.73,-108.52C423.42,-96.69 515.51,-95.89 567.48,-106.12"/>
<polygon fill="#3c0496" stroke="#3c0496" points="566.4,-109.69 576.93,-108.47 567.94,-102.86 566.4,-109.69"/>
<text text-anchor="middle" x="468.48" y="-93.07" font-family="Helvetica,Arial,sans-serif" font-size="15.00" fill="#3c0496">1</text>
</g>
<!-- 5 -->
<g id="node7" class="node">
<title>5</title>
<ellipse fill="white" stroke="black" cx="1120.32" cy="-234" rx="92.48" ry="18"/>
<text text-anchor="middle" x="1120.32" y="-227.62" font-family="Helvetica,Arial,sans-serif" font-size="15.00">0,0,0,1,0,1,0,0,0,0</text>
</g>
<!-- 2&#45;&gt;5 -->
<g id="edge5" class="edge">
<title>2&#45;&gt;5</title>
<path fill="none" stroke="#689b0f" d="M425.11,-136.6C569.13,-156.78 881.8,-200.58 1033.84,-221.88"/>
<polygon fill="#689b0f" stroke="#689b0f" points="1033.11,-225.46 1043.5,-223.38 1034.08,-218.52 1033.11,-225.46"/>
<text text-anchor="middle" x="725.35" y="-164.99" font-family="Helvetica,Arial,sans-serif" font-size="15.00" fill="#689b0f">1</text>
</g>
<!-- 7 -->
<g id="node9" class="node">
<title>7</title>
<ellipse fill="white" stroke="black" cx="1120.32" cy="-18" rx="92.48" ry="18"/>
<text text-anchor="middle" x="1120.32" y="-11.62" font-family="Helvetica,Arial,sans-serif" font-size="15.00">0,1,0,0,0,0,0,1,0,0</text>
</g>
<!-- 2&#45;&gt;7 -->
<g id="edge6" class="edge">
<title>2&#45;&gt;7</title>
<path fill="none" stroke="#ffaa5f" d="M425.11,-115.4C569.13,-95.22 881.8,-51.42 1033.84,-30.12"/>
<polygon fill="#ffaa5f" stroke="#ffaa5f" points="1034.08,-33.48 1043.5,-28.62 1033.11,-26.54 1034.08,-33.48"/>
<text text-anchor="middle" x="725.35" y="-58.51" font-family="Helvetica,Arial,sans-serif" font-size="15.00" fill="#ffaa5f">1</text>
</g>
<!-- 3&#45;&gt;2 -->
<g id="edge7" class="edge">
<title>3&#45;&gt;2</title>
<path fill="none" stroke="#b7994e" d="M577.93,-143.53C532.11,-155.33 440.01,-156.1 388.15,-145.84"/>
<polygon fill="#b7994e" stroke="#b7994e" points="389.25,-142.27 378.73,-143.48 387.71,-149.1 389.25,-142.27"/>
<text text-anchor="middle" x="478.91" y="-130.43" font-family="Helvetica,Arial,sans-serif" font-size="15.00" fill="#b7994e">4</text>
</g>
<!-- 4 -->
<g id="node6" class="node">
<title>4</title>
<ellipse fill="white" stroke="black" cx="863.36" cy="-234" rx="92.48" ry="18"/>
<text text-anchor="middle" x="863.36" y="-227.62" font-family="Helvetica,Arial,sans-serif" font-size="15.00">0,0,1,2,0,0,0,0,0,0</text>
</g>
<!-- 3&#45;&gt;4 -->
<g id="edge8" class="edge">
<title>3&#45;&gt;4</title>
<path fill="none" stroke="#83306d" d="M646.68,-142.64C691.41,-161.59 764.56,-192.57 813.08,-213.12"/>
<polygon fill="#83306d" stroke="#83306d" points="811.47,-216.67 822.04,-217.34 814.2,-210.22 811.47,-216.67"/>
<text text-anchor="middle" x="734.01" y="-163.63" font-family="Helvetica,Arial,sans-serif" font-size="15.00" fill="#83306d">1</text>
</g>
<!-- 6 -->
<g id="node8" class="node">
<title>6</title>
<ellipse fill="white" stroke="black" cx="863.36" cy="-126" rx="92.48" ry="18"/>
<text text-anchor="middle" x="863.36" y="-119.62" font-family="Helvetica,Arial,sans-serif" font-size="15.00">0,2,0,0,0,0,1,0,0,0</text>
</g>
<!-- 3&#45;&gt;6 -->
<g id="edge9" class="edge">
<title>3&#45;&gt;6</title>
<path fill="none" stroke="#3f10f7" d="M699.09,-126C718.81,-126 739.78,-126 759.89,-126"/>
<polygon fill="#3f10f7" stroke="#3f10f7" points="759.63,-129.5 769.63,-126 759.63,-122.5 759.63,-129.5"/>
<text text-anchor="middle" x="725.36" y="-111.75" font-family="Helvetica,Arial,sans-serif" font-size="15.00" fill="#3f10f7">1</text>
</g>
<!-- 4&#45;&gt;5 -->
<g id="edge10" class="edge">
<title>4&#45;&gt;5</title>
<path fill="none" stroke="#6e9502" d="M891.65,-216.52C937.34,-204.69 1029.43,-203.89 1081.4,-214.12"/>
<polygon fill="#6e9502" stroke="#6e9502" points="1080.33,-217.69 1090.85,-216.47 1081.86,-210.86 1080.33,-217.69"/>
<text text-anchor="middle" x="982.4" y="-201.07" font-family="Helvetica,Arial,sans-serif" font-size="15.00" fill="#6e9502">2</text>
</g>
<!-- 8 -->
<g id="node10" class="node">
<title>8</title>
<ellipse fill="white" stroke="black" cx="1120.32" cy="-126" rx="92.48" ry="18"/>
<text text-anchor="middle" x="1120.32" y="-119.62" font-family="Helvetica,Arial,sans-serif" font-size="15.00">0,0,1,0,0,0,1,0,0,0</text>
</g>
<!-- 4&#45;&gt;8 -->
<g id="edge11" class="edge">
<title>4&#45;&gt;8</title>
<path fill="none" stroke="#794cd4" d="M903.64,-217.36C948.37,-198.41 1021.52,-167.43 1070.04,-146.88"/>
<polygon fill="#794cd4" stroke="#794cd4" points="1071.16,-149.78 1079,-142.66 1068.43,-143.33 1071.16,-149.78"/>
<text text-anchor="middle" x="982.72" y="-167.87" font-family="Helvetica,Arial,sans-serif" font-size="15.00" fill="#794cd4">1</text>
</g>
<!-- 5&#45;&gt;Absorb -->
<g id="edge17" class="edge">
<title>5&#45;&gt;Absorb</title>
<path fill="none" stroke="#3b1ac7" d="M1143.61,-216.35C1180.94,-186.79 1256.08,-127.28 1297.27,-94.66"/>
<polygon fill="#3b1ac7" stroke="#3b1ac7" points="1299.1,-96.89 1304.76,-87.94 1294.75,-91.4 1299.1,-96.89"/>
<text text-anchor="middle" x="1216.31" y="-141.26" font-family="Helvetica,Arial,sans-serif" font-size="15.00" fill="#3b1ac7">1</text>
</g>
<!-- 5&#45;&gt;4 -->
<g id="edge12" class="edge">
<title>5&#45;&gt;4</title>
<path fill="none" stroke="#b9efc3" d="M1091.85,-251.53C1046.03,-263.33 953.93,-264.1 902.07,-253.84"/>
<polygon fill="#b9efc3" stroke="#b9efc3" points="903.17,-250.27 892.65,-251.48 901.63,-257.1 903.17,-250.27"/>
<text text-anchor="middle" x="992.84" y="-238.43" font-family="Helvetica,Arial,sans-serif" font-size="15.00" fill="#b9efc3">1</text>
</g>
<!-- 6&#45;&gt;7 -->
<g id="edge13" class="edge">
<title>6&#45;&gt;7</title>
<path fill="none" stroke="#3dc64a" d="M877.36,-107.75C905.12,-83.92 972.3,-51.06 1028.84,-30.37"/>
<polygon fill="#3dc64a" stroke="#3dc64a" points="1029.66,-33.43 1037.9,-26.77 1027.3,-26.84 1029.66,-33.43"/>
<text text-anchor="middle" x="948.97" y="-54.81" font-family="Helvetica,Arial,sans-serif" font-size="15.00" fill="#3dc64a">2</text>
</g>
<!-- 6&#45;&gt;8 -->
<g id="edge14" class="edge">
<title>6&#45;&gt;8</title>
<path fill="none" stroke="#dcaed0" d="M956.05,-126C975.78,-126 996.75,-126 1016.85,-126"/>
<polygon fill="#dcaed0" stroke="#dcaed0" points="1016.6,-129.5 1026.6,-126 1016.6,-122.5 1016.6,-129.5"/>
<text text-anchor="middle" x="982.33" y="-111.75" font-family="Helvetica,Arial,sans-serif" font-size="15.00" fill="#dcaed0">1</text>
</g>
<!-- 7&#45;&gt;Absorb -->
<g id="edge18" class="edge">
<title>7&#45;&gt;Absorb</title>
<path fill="none" stroke="#eb09a7" d="M1176.68,-32.61C1209.07,-41.16 1249.47,-51.83 1280.06,-59.9"/>
<polygon fill="#eb09a7" stroke="#eb09a7" points="1278.88,-63.48 1289.45,-62.64 1280.67,-56.71 1278.88,-63.48"/>
<text text-anchor="middle" x="1224.25" y="-32.01" font-family="Helvetica,Arial,sans-serif" font-size="15.00" fill="#eb09a7">1</text>
</g>
<!-- 7&#45;&gt;6 -->
<g id="edge15" class="edge">
<title>7&#45;&gt;6</title>
<path fill="none" stroke="#47865e" d="M1106.29,-36.28C1078.49,-60.12 1011.28,-92.99 954.74,-113.67"/>
<polygon fill="#47865e" stroke="#47865e" points="953.93,-110.6 945.69,-117.26 956.28,-117.2 953.93,-110.6"/>
<text text-anchor="middle" x="1026.39" y="-60.73" font-family="Helvetica,Arial,sans-serif" font-size="15.00" fill="#47865e">1</text>
</g>
<!-- 8&#45;&gt;Absorb -->
<g id="edge19" class="edge">
<title>8&#45;&gt;Absorb</title>
<path fill="none" stroke="#d75a77" d="M1176.68,-111.39C1209.07,-102.84 1249.47,-92.17 1280.06,-84.1"/>
<polygon fill="#d75a77" stroke="#d75a77" points="1280.67,-87.29 1289.45,-81.36 1278.88,-80.52 1280.67,-87.29"/>
<text text-anchor="middle" x="1224.25" y="-83.49" font-family="Helvetica,Arial,sans-serif" font-size="15.00" fill="#d75a77">1</text>
</g>
</g>
</svg>
