<?xml version="1.0" encoding="UTF-8" standalone="no"?>
<!DOCTYPE svg PUBLIC "-//W3C//DTD SVG 1.1//EN"
 "http://www.w3.org/Graphics/SVG/1.1/DTD/svg11.dtd">
<!-- Generated by graphviz version 8.1.0 (0)
 -->
<!-- Title: G Pages: 1 -->
<svg width="720pt" height="429pt"
 viewBox="0.00 0.00 720.00 428.54" xmlns="http://www.w3.org/2000/svg" xmlns:xlink="http://www.w3.org/1999/xlink">
<g id="graph0" class="graph" transform="scale(0.428541 0.428541) rotate(0) translate(36 964)">
<title>G</title>
<g id="clust26" class="cluster">
<title>cluster_0000</title>
<polygon fill="whitesmoke" stroke="whitesmoke" points="1421.02,-229 1421.02,-376 1600.12,-376 1600.12,-229 1421.02,-229"/>
<text text-anchor="middle" x="1510.57" y="-358.7" font-family="Helvetica,Arial,sans-serif" font-size="14.00">0000</text>
</g>
<g id="clust27" class="cluster">
<title>cluster_4000</title>
<polygon fill="whitesmoke" stroke="whitesmoke" points="192.64,-368 192.64,-515 371.74,-515 371.74,-368 192.64,-368"/>
<text text-anchor="middle" x="282.19" y="-497.7" font-family="Helvetica,Arial,sans-serif" font-size="14.00">4000</text>
</g>
<g id="clust28" class="cluster">
<title>cluster_2100</title>
<polygon fill="whitesmoke" stroke="whitesmoke" points="499.74,-224 499.74,-515 678.83,-515 678.83,-224 499.74,-224"/>
<text text-anchor="middle" x="589.28" y="-497.7" font-family="Helvetica,Arial,sans-serif" font-size="14.00">2100</text>
</g>
<g id="clust29" class="cluster">
<title>cluster_0200</title>
<polygon fill="whitesmoke" stroke="whitesmoke" points="806.83,-523 806.83,-814 985.93,-814 985.93,-523 806.83,-523"/>
<text text-anchor="middle" x="896.38" y="-796.7" font-family="Helvetica,Arial,sans-serif" font-size="14.00">0200</text>
</g>
<g id="clust30" class="cluster">
<title>cluster_1010</title>
<polygon fill="whitesmoke" stroke="whitesmoke" points="806.83,-8 806.83,-515 985.93,-515 985.93,-8 806.83,-8"/>
<text text-anchor="middle" x="896.38" y="-497.7" font-family="Helvetica,Arial,sans-serif" font-size="14.00">1010</text>
</g>
<g id="clust31" class="cluster">
<title>cluster_0001</title>
<polygon fill="whitesmoke" stroke="whitesmoke" points="1113.93,-413 1113.93,-920 1293.02,-920 1293.02,-413 1113.93,-413"/>
<text text-anchor="middle" x="1203.48" y="-902.7" font-family="Helvetica,Arial,sans-serif" font-size="14.00">0001</text>
</g>
<!-- Absorb -->
<g id="node1" class="node">
<title>Absorb</title>
<ellipse fill="white" stroke="lightgrey" cx="1510.57" cy="-655" rx="45.72" ry="18"/>
<text text-anchor="middle" x="1510.57" y="-648.05" font-family="Helvetica,Arial,sans-serif" font-size="16.00">Absorb</text>
</g>
<!-- IPV -->
<g id="node2" class="node">
<title>IPV</title>
<ellipse fill="white" stroke="lightgrey" cx="28.32" cy="-466" rx="28.32" ry="18"/>
<text text-anchor="middle" x="28.32" y="-459.05" font-family="Helvetica,Arial,sans-serif" font-size="16.00">IPV</text>
</g>
<!-- 3 -->
<g id="node5" class="node">
<title>3</title>
<ellipse fill="white" stroke="black" cx="282.19" cy="-466" rx="81.55" ry="18"/>
<text text-anchor="middle" x="282.19" y="-459.05" font-family="Helvetica,Arial,sans-serif" font-size="16.00">4,0,0,0,0,0,0,0</text>
</g>
<!-- IPV&#45;&gt;3 -->
<g id="edge1" class="edge">
<title>IPV&#45;&gt;3</title>
<path fill="none" stroke="#000000" d="M56.75,-466C88.51,-466 142.49,-466 189.55,-466"/>
<polygon fill="#000000" stroke="#000000" points="189.41,-469.5 199.41,-466 189.41,-462.5 189.41,-469.5"/>
<text text-anchor="middle" x="118.65" y="-450.8" font-family="Helvetica,Arial,sans-serif" font-size="16.00" fill="#000000">1</text>
</g>
<!-- 1 -->
<g id="node3" class="node">
<title>1</title>
<ellipse fill="white" stroke="black" cx="1510.57" cy="-327" rx="81.55" ry="18"/>
<text text-anchor="middle" x="1510.57" y="-320.05" font-family="Helvetica,Arial,sans-serif" font-size="16.00">0,0,0,0,0,0,0,0</text>
</g>
<!-- 2 -->
<g id="node4" class="node">
<title>2</title>
<ellipse fill="white" stroke="black" cx="1510.57" cy="-255" rx="81.55" ry="18"/>
<text text-anchor="middle" x="1510.57" y="-248.05" font-family="Helvetica,Arial,sans-serif" font-size="16.00">0,0,0,0,0,0,0,0</text>
</g>
<!-- 1&#45;&gt;2 -->
<g id="edge2" class="edge">
<title>1&#45;&gt;2</title>
<path fill="none" stroke="#000000" d="M1552.52,-311.18C1574.57,-299.6 1577.64,-288.02 1561.72,-276.44"/>
<polygon fill="#000000" stroke="#000000" points="1563.74,-272.96 1553.38,-270.75 1560.1,-278.94 1563.74,-272.96"/>
<text text-anchor="middle" x="1552.62" y="-278.61" font-family="Helvetica,Arial,sans-serif" font-size="16.00" fill="#000000">1</text>
</g>
<!-- 2&#45;&gt;1 -->
<g id="edge3" class="edge">
<title>2&#45;&gt;1</title>
<path fill="none" stroke="#000000" d="M1468.76,-270.75C1446.63,-282.33 1443.48,-293.91 1459.33,-305.49"/>
<polygon fill="#000000" stroke="#000000" points="1457.27,-308.95 1467.63,-311.18 1460.92,-302.98 1457.27,-308.95"/>
<text text-anchor="middle" x="1459.54" y="-289.42" font-family="Helvetica,Arial,sans-serif" font-size="16.00" fill="#000000">1</text>
</g>
<!-- 4 -->
<g id="node6" class="node">
<title>4</title>
<ellipse fill="white" stroke="black" cx="589.28" cy="-466" rx="81.55" ry="18"/>
<text text-anchor="middle" x="589.28" y="-459.05" font-family="Helvetica,Arial,sans-serif" font-size="16.00">2,1,0,0,0,0,0,0</text>
</g>
<!-- 3&#45;&gt;4 -->
<g id="edge4" class="edge">
<title>3&#45;&gt;4</title>
<path fill="none" stroke="#000000" d="M364.15,-466C404.91,-466 454.49,-466 496.65,-466"/>
<polygon fill="#000000" stroke="#000000" points="496.48,-469.5 506.48,-466 496.48,-462.5 496.48,-469.5"/>
<text text-anchor="middle" x="398.52" y="-450.8" font-family="Helvetica,Arial,sans-serif" font-size="16.00" fill="#000000">6.00e&#45;01</text>
</g>
<!-- 5 -->
<g id="node7" class="node">
<title>5</title>
<ellipse fill="white" stroke="black" cx="282.19" cy="-394" rx="81.55" ry="18"/>
<text text-anchor="middle" x="282.19" y="-387.05" font-family="Helvetica,Arial,sans-serif" font-size="16.00">4,0,0,0,1,0,0,0</text>
</g>
<!-- 3&#45;&gt;5 -->
<g id="edge5" class="edge">
<title>3&#45;&gt;5</title>
<path fill="none" stroke="#000000" d="M282.19,-447.53C282.19,-439.36 282.19,-431.19 282.19,-423.02"/>
<polygon fill="#000000" stroke="#000000" points="285.69,-423.28 282.19,-413.28 278.69,-423.28 285.69,-423.28"/>
<text text-anchor="middle" x="250.31" y="-420.08" font-family="Helvetica,Arial,sans-serif" font-size="16.00" fill="#000000">4.00e&#45;01</text>
</g>
<!-- 6 -->
<g id="node8" class="node">
<title>6</title>
<ellipse fill="white" stroke="black" cx="896.38" cy="-765" rx="81.55" ry="18"/>
<text text-anchor="middle" x="896.38" y="-758.05" font-family="Helvetica,Arial,sans-serif" font-size="16.00">0,2,0,0,0,0,0,0</text>
</g>
<!-- 4&#45;&gt;6 -->
<g id="edge6" class="edge">
<title>4&#45;&gt;6</title>
<path fill="none" stroke="#000000" d="M608.46,-483.81C660.39,-534.7 809.57,-680.91 869.75,-739.88"/>
<polygon fill="#000000" stroke="#000000" points="866.71,-741.79 876.3,-746.28 871.61,-736.79 866.71,-741.79"/>
<text text-anchor="middle" x="707.23" y="-596.65" font-family="Helvetica,Arial,sans-serif" font-size="16.00" fill="#000000">1.67e&#45;01</text>
</g>
<!-- 7 -->
<g id="node9" class="node">
<title>7</title>
<ellipse fill="white" stroke="black" cx="896.38" cy="-466" rx="81.55" ry="18"/>
<text text-anchor="middle" x="896.38" y="-459.05" font-family="Helvetica,Arial,sans-serif" font-size="16.00">1,0,1,0,0,0,0,0</text>
</g>
<!-- 4&#45;&gt;7 -->
<g id="edge7" class="edge">
<title>4&#45;&gt;7</title>
<path fill="none" stroke="#000000" d="M671.24,-466C712.01,-466 761.59,-466 803.74,-466"/>
<polygon fill="#000000" stroke="#000000" points="803.57,-469.5 813.57,-466 803.57,-462.5 803.57,-469.5"/>
<text text-anchor="middle" x="705.62" y="-450.8" font-family="Helvetica,Arial,sans-serif" font-size="16.00" fill="#000000">3.33e&#45;01</text>
</g>
<!-- 8 -->
<g id="node10" class="node">
<title>8</title>
<ellipse fill="white" stroke="black" cx="589.28" cy="-322" rx="81.55" ry="18"/>
<text text-anchor="middle" x="589.28" y="-315.05" font-family="Helvetica,Arial,sans-serif" font-size="16.00">2,1,0,0,0,1,0,0</text>
</g>
<!-- 4&#45;&gt;8 -->
<g id="edge8" class="edge">
<title>4&#45;&gt;8</title>
<path fill="none" stroke="#000000" d="M589.28,-447.83C589.28,-415.62 589.28,-383.41 589.28,-351.2"/>
<polygon fill="#000000" stroke="#000000" points="592.78,-351.28 589.28,-341.28 585.78,-351.28 592.78,-351.28"/>
<text text-anchor="middle" x="621.16" y="-400.82" font-family="Helvetica,Arial,sans-serif" font-size="16.00" fill="#000000">1.67e&#45;01</text>
</g>
<!-- 9 -->
<g id="node11" class="node">
<title>9</title>
<ellipse fill="white" stroke="black" cx="589.28" cy="-394" rx="81.55" ry="18"/>
<text text-anchor="middle" x="589.28" y="-387.05" font-family="Helvetica,Arial,sans-serif" font-size="16.00">2,1,0,0,1,0,0,0</text>
</g>
<!-- 4&#45;&gt;9 -->
<g id="edge9" class="edge">
<title>4&#45;&gt;9</title>
<path fill="none" stroke="#000000" d="M589.28,-447.53C589.28,-439.36 589.28,-431.19 589.28,-423.02"/>
<polygon fill="#000000" stroke="#000000" points="592.78,-423.28 589.28,-413.28 585.78,-423.28 592.78,-423.28"/>
<text text-anchor="middle" x="557.41" y="-420.08" font-family="Helvetica,Arial,sans-serif" font-size="16.00" fill="#000000">3.33e&#45;01</text>
</g>
<!-- 5&#45;&gt;2 -->
<g id="edge10" class="edge">
<title>5&#45;&gt;2</title>
<path fill="none" stroke="#000000" d="M355.35,-385.72C570.18,-361.41 1198.37,-290.33 1426.52,-264.51"/>
<polygon fill="#000000" stroke="#000000" points="1426.86,-267.88 1436.41,-263.28 1426.08,-260.93 1426.86,-267.88"/>
<text text-anchor="middle" x="859.06" y="-326.42" font-family="Helvetica,Arial,sans-serif" font-size="16.00" fill="#000000">4.00e&#45;01</text>
</g>
<!-- 5&#45;&gt;9 -->
<g id="edge11" class="edge">
<title>5&#45;&gt;9</title>
<path fill="none" stroke="#000000" d="M364.15,-394C404.91,-394 454.49,-394 496.65,-394"/>
<polygon fill="#000000" stroke="#000000" points="496.48,-397.5 506.48,-394 496.48,-390.5 496.48,-397.5"/>
<text text-anchor="middle" x="398.52" y="-378.8" font-family="Helvetica,Arial,sans-serif" font-size="16.00" fill="#000000">6.00e&#45;01</text>
</g>
<!-- 10 -->
<g id="node12" class="node">
<title>10</title>
<ellipse fill="white" stroke="black" cx="1203.48" cy="-871" rx="81.55" ry="18"/>
<text text-anchor="middle" x="1203.48" y="-864.05" font-family="Helvetica,Arial,sans-serif" font-size="16.00">0,0,0,1,0,0,0,0</text>
</g>
<!-- 6&#45;&gt;10 -->
<g id="edge12" class="edge">
<title>6&#45;&gt;10</title>
<path fill="none" stroke="#000000" d="M941.74,-780.41C996.47,-799.43 1089.46,-831.73 1148.33,-852.19"/>
<polygon fill="#000000" stroke="#000000" points="1146.96,-855.76 1157.55,-855.74 1149.26,-849.15 1146.96,-855.76"/>
<text text-anchor="middle" x="1013.16" y="-801.1" font-family="Helvetica,Arial,sans-serif" font-size="16.00" fill="#000000">3.33e&#45;01</text>
</g>
<!-- 12 -->
<g id="node14" class="node">
<title>12</title>
<ellipse fill="white" stroke="black" cx="896.38" cy="-621" rx="81.55" ry="18"/>
<text text-anchor="middle" x="896.38" y="-614.05" font-family="Helvetica,Arial,sans-serif" font-size="16.00">0,2,0,0,0,1,0,0</text>
</g>
<!-- 6&#45;&gt;12 -->
<g id="edge13" class="edge">
<title>6&#45;&gt;12</title>
<path fill="none" stroke="#000000" d="M896.38,-746.83C896.38,-714.62 896.38,-682.41 896.38,-650.2"/>
<polygon fill="#000000" stroke="#000000" points="899.88,-650.28 896.38,-640.28 892.88,-650.28 899.88,-650.28"/>
<text text-anchor="middle" x="864.51" y="-699.82" font-family="Helvetica,Arial,sans-serif" font-size="16.00" fill="#000000">6.67e&#45;01</text>
</g>
<!-- 7&#45;&gt;10 -->
<g id="edge14" class="edge">
<title>7&#45;&gt;10</title>
<path fill="none" stroke="#000000" d="M911.08,-484.19C959.77,-548.82 1124.61,-767.64 1182.32,-844.24"/>
<polygon fill="#000000" stroke="#000000" points="1180,-845.98 1188.81,-851.86 1185.59,-841.77 1180,-845.98"/>
<text text-anchor="middle" x="1014.83" y="-649.02" font-family="Helvetica,Arial,sans-serif" font-size="16.00" fill="#000000">3.33e&#45;01</text>
</g>
<!-- 11 -->
<g id="node13" class="node">
<title>11</title>
<ellipse fill="white" stroke="black" cx="896.38" cy="-106" rx="81.55" ry="18"/>
<text text-anchor="middle" x="896.38" y="-99.05" font-family="Helvetica,Arial,sans-serif" font-size="16.00">1,0,1,0,0,0,1,0</text>
</g>
<!-- 7&#45;&gt;11 -->
<g id="edge15" class="edge">
<title>7&#45;&gt;11</title>
<path fill="none" stroke="#000000" d="M896.38,-447.65C896.38,-343.44 896.38,-239.23 896.38,-135.02"/>
<polygon fill="#000000" stroke="#000000" points="899.88,-135.28 896.38,-125.28 892.88,-135.28 899.88,-135.28"/>
<text text-anchor="middle" x="864.51" y="-276.13" font-family="Helvetica,Arial,sans-serif" font-size="16.00" fill="#000000">3.33e&#45;01</text>
</g>
<!-- 14 -->
<g id="node16" class="node">
<title>14</title>
<ellipse fill="white" stroke="black" cx="896.38" cy="-394" rx="81.55" ry="18"/>
<text text-anchor="middle" x="896.38" y="-387.05" font-family="Helvetica,Arial,sans-serif" font-size="16.00">1,0,1,0,1,0,0,0</text>
</g>
<!-- 7&#45;&gt;14 -->
<g id="edge16" class="edge">
<title>7&#45;&gt;14</title>
<path fill="none" stroke="#000000" d="M896.38,-447.53C896.38,-439.36 896.38,-431.19 896.38,-423.02"/>
<polygon fill="#000000" stroke="#000000" points="899.88,-423.28 896.38,-413.28 892.88,-423.28 899.88,-423.28"/>
<text text-anchor="middle" x="864.51" y="-420.08" font-family="Helvetica,Arial,sans-serif" font-size="16.00" fill="#000000">3.33e&#45;01</text>
</g>
<!-- 8&#45;&gt;2 -->
<g id="edge17" class="edge">
<title>8&#45;&gt;2</title>
<path fill="none" stroke="#000000" d="M667.04,-316.35C837.3,-303.96 1242.21,-274.52 1421.97,-261.44"/>
<polygon fill="#000000" stroke="#000000" points="1421.98,-264.88 1431.7,-260.66 1421.47,-257.9 1421.98,-264.88"/>
<text text-anchor="middle" x="1012.63" y="-273.69" font-family="Helvetica,Arial,sans-serif" font-size="16.00" fill="#000000">1.67e&#45;01</text>
</g>
<!-- 8&#45;&gt;12 -->
<g id="edge18" class="edge">
<title>8&#45;&gt;12</title>
<path fill="none" stroke="#000000" d="M608.46,-339.81C660.39,-390.7 809.57,-536.91 869.75,-595.88"/>
<polygon fill="#000000" stroke="#000000" points="866.71,-597.79 876.3,-602.28 871.61,-592.79 866.71,-597.79"/>
<text text-anchor="middle" x="770.98" y="-452.65" font-family="Helvetica,Arial,sans-serif" font-size="16.00" fill="#000000">1.67e&#45;01</text>
</g>
<!-- 13 -->
<g id="node15" class="node">
<title>13</title>
<ellipse fill="white" stroke="black" cx="896.38" cy="-322" rx="81.55" ry="18"/>
<text text-anchor="middle" x="896.38" y="-315.05" font-family="Helvetica,Arial,sans-serif" font-size="16.00">1,0,1,0,0,1,0,0</text>
</g>
<!-- 8&#45;&gt;13 -->
<g id="edge19" class="edge">
<title>8&#45;&gt;13</title>
<path fill="none" stroke="#000000" d="M671.24,-322C712.01,-322 761.59,-322 803.74,-322"/>
<polygon fill="#000000" stroke="#000000" points="803.57,-325.5 813.57,-322 803.57,-318.5 803.57,-325.5"/>
<text text-anchor="middle" x="705.62" y="-306.8" font-family="Helvetica,Arial,sans-serif" font-size="16.00" fill="#000000">3.33e&#45;01</text>
</g>
<!-- 16 -->
<g id="node18" class="node">
<title>16</title>
<ellipse fill="white" stroke="black" cx="589.28" cy="-250" rx="81.55" ry="18"/>
<text text-anchor="middle" x="589.28" y="-243.05" font-family="Helvetica,Arial,sans-serif" font-size="16.00">2,1,0,0,1,1,0,0</text>
</g>
<!-- 8&#45;&gt;16 -->
<g id="edge20" class="edge">
<title>8&#45;&gt;16</title>
<path fill="none" stroke="#000000" d="M589.28,-303.53C589.28,-295.36 589.28,-287.19 589.28,-279.02"/>
<polygon fill="#000000" stroke="#000000" points="592.78,-279.28 589.28,-269.28 585.78,-279.28 592.78,-279.28"/>
<text text-anchor="middle" x="557.41" y="-276.08" font-family="Helvetica,Arial,sans-serif" font-size="16.00" fill="#000000">3.33e&#45;01</text>
</g>
<!-- 9&#45;&gt;2 -->
<g id="edge21" class="edge">
<title>9&#45;&gt;2</title>
<path fill="none" stroke="#000000" d="M657.4,-383.72C824.48,-358.52 1253.87,-293.73 1431.66,-266.91"/>
<polygon fill="#000000" stroke="#000000" points="1432.13,-270.22 1441.49,-265.27 1431.08,-263.3 1432.13,-270.22"/>
<text text-anchor="middle" x="1012.66" y="-310.11" font-family="Helvetica,Arial,sans-serif" font-size="16.00" fill="#000000">3.33e&#45;01</text>
</g>
<!-- 9&#45;&gt;14 -->
<g id="edge22" class="edge">
<title>9&#45;&gt;14</title>
<path fill="none" stroke="#000000" d="M671.24,-394C712.01,-394 761.59,-394 803.74,-394"/>
<polygon fill="#000000" stroke="#000000" points="803.57,-397.5 813.57,-394 803.57,-390.5 803.57,-397.5"/>
<text text-anchor="middle" x="705.62" y="-378.8" font-family="Helvetica,Arial,sans-serif" font-size="16.00" fill="#000000">3.33e&#45;01</text>
</g>
<!-- 15 -->
<g id="node17" class="node">
<title>15</title>
<ellipse fill="white" stroke="black" cx="896.38" cy="-693" rx="81.55" ry="18"/>
<text text-anchor="middle" x="896.38" y="-686.05" font-family="Helvetica,Arial,sans-serif" font-size="16.00">0,2,0,0,1,0,0,0</text>
</g>
<!-- 9&#45;&gt;15 -->
<g id="edge23" class="edge">
<title>9&#45;&gt;15</title>
<path fill="none" stroke="#000000" d="M608.46,-411.81C660.39,-462.7 809.57,-608.91 869.75,-667.88"/>
<polygon fill="#000000" stroke="#000000" points="866.71,-669.79 876.3,-674.28 871.61,-664.79 866.71,-669.79"/>
<text text-anchor="middle" x="707.23" y="-524.65" font-family="Helvetica,Arial,sans-serif" font-size="16.00" fill="#000000">1.67e&#45;01</text>
</g>
<!-- 9&#45;&gt;16 -->
<g id="edge24" class="edge">
<title>9&#45;&gt;16</title>
<path fill="none" stroke="#000000" d="M589.28,-375.83C589.28,-343.62 589.28,-311.41 589.28,-279.2"/>
<polygon fill="#000000" stroke="#000000" points="592.78,-279.28 589.28,-269.28 585.78,-279.28 592.78,-279.28"/>
<text text-anchor="middle" x="621.16" y="-328.82" font-family="Helvetica,Arial,sans-serif" font-size="16.00" fill="#000000">1.67e&#45;01</text>
</g>
<!-- 10&#45;&gt;Absorb -->
<g id="edge56" class="edge">
<title>10&#45;&gt;Absorb</title>
<path fill="none" stroke="#000000" d="M1229.19,-853.51C1284.37,-814.44 1417.57,-720.13 1478.37,-677.09"/>
<polygon fill="#000000" stroke="#000000" points="1480,-679.52 1486.14,-670.88 1475.96,-673.8 1480,-679.52"/>
<text text-anchor="middle" x="1342.53" y="-750.1" font-family="Helvetica,Arial,sans-serif" font-size="16.00" fill="#000000">0.5</text>
</g>
<!-- 10&#45;&gt;2 -->
<g id="edge25" class="edge">
<title>10&#45;&gt;2</title>
<path fill="none" stroke="#000000" d="M1213.44,-852.9C1256.64,-765.68 1443.37,-388.66 1495.82,-282.76"/>
<polygon fill="#000000" stroke="#000000" points="1499.3,-284.62 1500.61,-274.1 1493.03,-281.51 1499.3,-284.62"/>
<text text-anchor="middle" x="1322.76" y="-552.63" font-family="Helvetica,Arial,sans-serif" font-size="16.00" fill="#000000">5.00e&#45;01</text>
</g>
<!-- 11&#45;&gt;2 -->
<g id="edge26" class="edge">
<title>11&#45;&gt;2</title>
<path fill="none" stroke="#000000" d="M951.97,-119.49C1065.34,-146.99 1322.76,-209.44 1444.47,-238.96"/>
<polygon fill="#000000" stroke="#000000" points="1443.57,-242.59 1454.11,-241.55 1445.22,-235.79 1443.57,-242.59"/>
<text text-anchor="middle" x="1166.34" y="-164.02" font-family="Helvetica,Arial,sans-serif" font-size="16.00" fill="#000000">3.33e&#45;01</text>
</g>
<!-- 17 -->
<g id="node19" class="node">
<title>17</title>
<ellipse fill="white" stroke="black" cx="1203.48" cy="-511" rx="81.55" ry="18"/>
<text text-anchor="middle" x="1203.48" y="-504.05" font-family="Helvetica,Arial,sans-serif" font-size="16.00">0,0,0,1,0,0,1,0</text>
</g>
<!-- 11&#45;&gt;17 -->
<g id="edge27" class="edge">
<title>11&#45;&gt;17</title>
<path fill="none" stroke="#000000" d="M911.08,-124.19C959.77,-188.82 1124.61,-407.64 1182.32,-484.24"/>
<polygon fill="#000000" stroke="#000000" points="1180,-485.98 1188.81,-491.86 1185.59,-481.77 1180,-485.98"/>
<text text-anchor="middle" x="1078.58" y="-289.02" font-family="Helvetica,Arial,sans-serif" font-size="16.00" fill="#000000">3.33e&#45;01</text>
</g>
<!-- 20 -->
<g id="node22" class="node">
<title>20</title>
<ellipse fill="white" stroke="black" cx="896.38" cy="-34" rx="81.55" ry="18"/>
<text text-anchor="middle" x="896.38" y="-27.05" font-family="Helvetica,Arial,sans-serif" font-size="16.00">1,0,1,0,1,0,1,0</text>
</g>
<!-- 11&#45;&gt;20 -->
<g id="edge28" class="edge">
<title>11&#45;&gt;20</title>
<path fill="none" stroke="#000000" d="M896.38,-87.53C896.38,-79.36 896.38,-71.19 896.38,-63.02"/>
<polygon fill="#000000" stroke="#000000" points="899.88,-63.28 896.38,-53.28 892.88,-63.28 899.88,-63.28"/>
<text text-anchor="middle" x="864.51" y="-60.08" font-family="Helvetica,Arial,sans-serif" font-size="16.00" fill="#000000">3.33e&#45;01</text>
</g>
<!-- 12&#45;&gt;2 -->
<g id="edge29" class="edge">
<title>12&#45;&gt;2</title>
<path fill="none" stroke="#000000" d="M925.18,-603.84C1025.43,-544.1 1359.12,-345.25 1472.49,-277.69"/>
<polygon fill="#000000" stroke="#000000" points="1474.04,-280.25 1480.84,-272.12 1470.45,-274.24 1474.04,-280.25"/>
<text text-anchor="middle" x="1166.96" y="-425.56" font-family="Helvetica,Arial,sans-serif" font-size="16.00" fill="#000000">6.67e&#45;01</text>
</g>
<!-- 18 -->
<g id="node20" class="node">
<title>18</title>
<ellipse fill="white" stroke="black" cx="1203.48" cy="-727" rx="81.55" ry="18"/>
<text text-anchor="middle" x="1203.48" y="-720.05" font-family="Helvetica,Arial,sans-serif" font-size="16.00">0,0,0,1,0,1,0,0</text>
</g>
<!-- 12&#45;&gt;18 -->
<g id="edge30" class="edge">
<title>12&#45;&gt;18</title>
<path fill="none" stroke="#000000" d="M941.74,-636.41C996.47,-655.43 1089.46,-687.73 1148.33,-708.19"/>
<polygon fill="#000000" stroke="#000000" points="1146.96,-711.76 1157.55,-711.74 1149.26,-705.15 1146.96,-711.76"/>
<text text-anchor="middle" x="1013.16" y="-673.6" font-family="Helvetica,Arial,sans-serif" font-size="16.00" fill="#000000">3.33e&#45;01</text>
</g>
<!-- 13&#45;&gt;18 -->
<g id="edge31" class="edge">
<title>13&#45;&gt;18</title>
<path fill="none" stroke="#000000" d="M911.08,-340.19C959.77,-404.82 1124.61,-623.64 1182.32,-700.24"/>
<polygon fill="#000000" stroke="#000000" points="1180,-701.98 1188.81,-707.86 1185.59,-697.77 1180,-701.98"/>
<text text-anchor="middle" x="1014.83" y="-505.02" font-family="Helvetica,Arial,sans-serif" font-size="16.00" fill="#000000">3.33e&#45;01</text>
</g>
<!-- 19 -->
<g id="node21" class="node">
<title>19</title>
<ellipse fill="white" stroke="black" cx="896.38" cy="-178" rx="81.55" ry="18"/>
<text text-anchor="middle" x="896.38" y="-171.05" font-family="Helvetica,Arial,sans-serif" font-size="16.00">1,0,1,0,0,1,1,0</text>
</g>
<!-- 13&#45;&gt;19 -->
<g id="edge32" class="edge">
<title>13&#45;&gt;19</title>
<path fill="none" stroke="#000000" d="M896.38,-303.83C896.38,-271.62 896.38,-239.41 896.38,-207.2"/>
<polygon fill="#000000" stroke="#000000" points="899.88,-207.28 896.38,-197.28 892.88,-207.28 899.88,-207.28"/>
<text text-anchor="middle" x="864.51" y="-256.82" font-family="Helvetica,Arial,sans-serif" font-size="16.00" fill="#000000">3.33e&#45;01</text>
</g>
<!-- 23 -->
<g id="node25" class="node">
<title>23</title>
<ellipse fill="white" stroke="black" cx="896.38" cy="-250" rx="81.55" ry="18"/>
<text text-anchor="middle" x="896.38" y="-243.05" font-family="Helvetica,Arial,sans-serif" font-size="16.00">1,0,1,0,1,1,0,0</text>
</g>
<!-- 13&#45;&gt;23 -->
<g id="edge33" class="edge">
<title>13&#45;&gt;23</title>
<path fill="none" stroke="#000000" d="M896.38,-303.53C896.38,-295.36 896.38,-287.19 896.38,-279.02"/>
<polygon fill="#000000" stroke="#000000" points="899.88,-279.28 896.38,-269.28 892.88,-279.28 899.88,-279.28"/>
<text text-anchor="middle" x="928.26" y="-276.08" font-family="Helvetica,Arial,sans-serif" font-size="16.00" fill="#000000">3.33e&#45;01</text>
</g>
<!-- 14&#45;&gt;2 -->
<g id="edge34" class="edge">
<title>14&#45;&gt;2</title>
<path fill="none" stroke="#000000" d="M954.16,-380.92C1067.94,-355.17 1320.49,-298.02 1442.28,-270.45"/>
<polygon fill="#000000" stroke="#000000" points="1442.96,-273.66 1451.95,-268.04 1441.42,-266.84 1442.96,-273.66"/>
<text text-anchor="middle" x="1166.35" y="-310.49" font-family="Helvetica,Arial,sans-serif" font-size="16.00" fill="#000000">3.33e&#45;01</text>
</g>
<!-- 14&#45;&gt;20 -->
<g id="edge35" class="edge">
<title>14&#45;&gt;20</title>
<path fill="none" stroke="#000000" d="M896.38,-375.65C896.38,-271.44 896.38,-167.23 896.38,-63.02"/>
<polygon fill="#000000" stroke="#000000" points="899.88,-63.28 896.38,-53.28 892.88,-63.28 899.88,-63.28"/>
<text text-anchor="middle" x="864.51" y="-204.13" font-family="Helvetica,Arial,sans-serif" font-size="16.00" fill="#000000">3.33e&#45;01</text>
</g>
<!-- 21 -->
<g id="node23" class="node">
<title>21</title>
<ellipse fill="white" stroke="black" cx="1203.48" cy="-799" rx="81.55" ry="18"/>
<text text-anchor="middle" x="1203.48" y="-792.05" font-family="Helvetica,Arial,sans-serif" font-size="16.00">0,0,0,1,1,0,0,0</text>
</g>
<!-- 14&#45;&gt;21 -->
<g id="edge36" class="edge">
<title>14&#45;&gt;21</title>
<path fill="none" stroke="#000000" d="M911.08,-412.19C959.77,-476.82 1124.61,-695.64 1182.32,-772.24"/>
<polygon fill="#000000" stroke="#000000" points="1180,-773.98 1188.81,-779.86 1185.59,-769.77 1180,-773.98"/>
<text text-anchor="middle" x="1014.83" y="-577.02" font-family="Helvetica,Arial,sans-serif" font-size="16.00" fill="#000000">3.33e&#45;01</text>
</g>
<!-- 15&#45;&gt;21 -->
<g id="edge37" class="edge">
<title>15&#45;&gt;21</title>
<path fill="none" stroke="#000000" d="M941.74,-708.41C996.47,-727.43 1089.46,-759.73 1148.33,-780.19"/>
<polygon fill="#000000" stroke="#000000" points="1146.96,-783.76 1157.55,-783.74 1149.26,-777.15 1146.96,-783.76"/>
<text text-anchor="middle" x="1013.16" y="-729.1" font-family="Helvetica,Arial,sans-serif" font-size="16.00" fill="#000000">3.33e&#45;01</text>
</g>
<!-- 22 -->
<g id="node24" class="node">
<title>22</title>
<ellipse fill="white" stroke="black" cx="896.38" cy="-549" rx="81.55" ry="18"/>
<text text-anchor="middle" x="896.38" y="-542.05" font-family="Helvetica,Arial,sans-serif" font-size="16.00">0,2,0,0,1,1,0,0</text>
</g>
<!-- 15&#45;&gt;22 -->
<g id="edge38" class="edge">
<title>15&#45;&gt;22</title>
<path fill="none" stroke="#000000" d="M896.38,-674.83C896.38,-642.62 896.38,-610.41 896.38,-578.2"/>
<polygon fill="#000000" stroke="#000000" points="899.88,-578.28 896.38,-568.28 892.88,-578.28 899.88,-578.28"/>
<text text-anchor="middle" x="864.51" y="-627.82" font-family="Helvetica,Arial,sans-serif" font-size="16.00" fill="#000000">6.67e&#45;01</text>
</g>
<!-- 16&#45;&gt;2 -->
<g id="edge39" class="edge">
<title>16&#45;&gt;2</title>
<path fill="none" stroke="#000000" d="M671.04,-250.44C842.26,-251.37 1237.57,-253.52 1417.89,-254.5"/>
<polygon fill="#000000" stroke="#000000" points="1417.65,-258 1427.67,-254.56 1417.69,-251 1417.65,-258"/>
<text text-anchor="middle" x="1012.59" y="-237.27" font-family="Helvetica,Arial,sans-serif" font-size="16.00" fill="#000000">5.00e&#45;01</text>
</g>
<!-- 16&#45;&gt;22 -->
<g id="edge40" class="edge">
<title>16&#45;&gt;22</title>
<path fill="none" stroke="#000000" d="M608.46,-267.81C660.39,-318.7 809.57,-464.91 869.75,-523.88"/>
<polygon fill="#000000" stroke="#000000" points="866.71,-525.79 876.3,-530.28 871.61,-520.79 866.71,-525.79"/>
<text text-anchor="middle" x="770.98" y="-380.65" font-family="Helvetica,Arial,sans-serif" font-size="16.00" fill="#000000">1.67e&#45;01</text>
</g>
<!-- 16&#45;&gt;23 -->
<g id="edge41" class="edge">
<title>16&#45;&gt;23</title>
<path fill="none" stroke="#000000" d="M671.24,-250C712.01,-250 761.59,-250 803.74,-250"/>
<polygon fill="#000000" stroke="#000000" points="803.57,-253.5 813.57,-250 803.57,-246.5 803.57,-253.5"/>
<text text-anchor="middle" x="705.62" y="-234.8" font-family="Helvetica,Arial,sans-serif" font-size="16.00" fill="#000000">3.33e&#45;01</text>
</g>
<!-- 17&#45;&gt;Absorb -->
<g id="edge57" class="edge">
<title>17&#45;&gt;Absorb</title>
<path fill="none" stroke="#000000" d="M1239.48,-527.52C1296.88,-554.61 1410.65,-608.31 1470.57,-636.59"/>
<polygon fill="#000000" stroke="#000000" points="1468.87,-640.13 1479.41,-641.23 1471.86,-633.8 1468.87,-640.13"/>
<text text-anchor="middle" x="1366.27" y="-566.85" font-family="Helvetica,Arial,sans-serif" font-size="16.00" fill="#000000">0.5</text>
</g>
<!-- 17&#45;&gt;2 -->
<g id="edge42" class="edge">
<title>17&#45;&gt;2</title>
<path fill="none" stroke="#000000" d="M1225.45,-493.4C1278.68,-448.74 1419.15,-330.88 1480.36,-279.51"/>
<polygon fill="#000000" stroke="#000000" points="1482.04,-281.83 1487.46,-272.72 1477.55,-276.47 1482.04,-281.83"/>
<text text-anchor="middle" x="1321.03" y="-371.26" font-family="Helvetica,Arial,sans-serif" font-size="16.00" fill="#000000">5.00e&#45;01</text>
</g>
<!-- 18&#45;&gt;Absorb -->
<g id="edge58" class="edge">
<title>18&#45;&gt;Absorb</title>
<path fill="none" stroke="#000000" d="M1260.44,-713.79C1317.69,-700.28 1405.78,-679.49 1460.42,-666.6"/>
<polygon fill="#000000" stroke="#000000" points="1460.96,-669.83 1469.89,-664.13 1459.35,-663.02 1460.96,-669.83"/>
<text text-anchor="middle" x="1349.18" y="-675" font-family="Helvetica,Arial,sans-serif" font-size="16.00" fill="#000000">0.5</text>
</g>
<!-- 18&#45;&gt;2 -->
<g id="edge43" class="edge">
<title>18&#45;&gt;2</title>
<path fill="none" stroke="#000000" d="M1216.25,-708.79C1263.02,-636.44 1435.83,-369.09 1491.89,-282.36"/>
<polygon fill="#000000" stroke="#000000" points="1495.35,-284.46 1497.83,-274.16 1489.47,-280.66 1495.35,-284.46"/>
<text text-anchor="middle" x="1322.19" y="-480.37" font-family="Helvetica,Arial,sans-serif" font-size="16.00" fill="#000000">5.00e&#45;01</text>
</g>
<!-- 19&#45;&gt;2 -->
<g id="edge44" class="edge">
<title>19&#45;&gt;2</title>
<path fill="none" stroke="#000000" d="M968.04,-186.98C1082.77,-201.37 1307.06,-229.49 1428.22,-244.67"/>
<polygon fill="#000000" stroke="#000000" points="1427.54,-248.24 1437.9,-246.01 1428.41,-241.3 1427.54,-248.24"/>
<text text-anchor="middle" x="1166.25" y="-200.63" font-family="Helvetica,Arial,sans-serif" font-size="16.00" fill="#000000">6.67e&#45;01</text>
</g>
<!-- 24 -->
<g id="node26" class="node">
<title>24</title>
<ellipse fill="white" stroke="black" cx="1203.48" cy="-583" rx="81.55" ry="18"/>
<text text-anchor="middle" x="1203.48" y="-576.05" font-family="Helvetica,Arial,sans-serif" font-size="16.00">0,0,0,1,0,1,1,0</text>
</g>
<!-- 19&#45;&gt;24 -->
<g id="edge45" class="edge">
<title>19&#45;&gt;24</title>
<path fill="none" stroke="#000000" d="M911.08,-196.19C959.77,-260.82 1124.61,-479.64 1182.32,-556.24"/>
<polygon fill="#000000" stroke="#000000" points="1180,-557.98 1188.81,-563.86 1185.59,-553.77 1180,-557.98"/>
<text text-anchor="middle" x="1014.83" y="-361.02" font-family="Helvetica,Arial,sans-serif" font-size="16.00" fill="#000000">3.33e&#45;01</text>
</g>
<!-- 20&#45;&gt;2 -->
<g id="edge46" class="edge">
<title>20&#45;&gt;2</title>
<path fill="none" stroke="#000000" d="M939.57,-49.54C1049.01,-88.92 1337.04,-192.56 1456.97,-235.71"/>
<polygon fill="#000000" stroke="#000000" points="1455.43,-239.24 1466.02,-239.33 1457.8,-232.65 1455.43,-239.24"/>
<text text-anchor="middle" x="1166.4" y="-127.43" font-family="Helvetica,Arial,sans-serif" font-size="16.00" fill="#000000">6.67e&#45;01</text>
</g>
<!-- 25 -->
<g id="node27" class="node">
<title>25</title>
<ellipse fill="white" stroke="black" cx="1203.48" cy="-439" rx="81.55" ry="18"/>
<text text-anchor="middle" x="1203.48" y="-432.05" font-family="Helvetica,Arial,sans-serif" font-size="16.00">0,0,0,1,1,0,1,0</text>
</g>
<!-- 20&#45;&gt;25 -->
<g id="edge47" class="edge">
<title>20&#45;&gt;25</title>
<path fill="none" stroke="#000000" d="M911.08,-52.19C959.77,-116.82 1124.61,-335.64 1182.32,-412.24"/>
<polygon fill="#000000" stroke="#000000" points="1180,-413.98 1188.81,-419.86 1185.59,-409.77 1180,-413.98"/>
<text text-anchor="middle" x="1014.83" y="-217.02" font-family="Helvetica,Arial,sans-serif" font-size="16.00" fill="#000000">3.33e&#45;01</text>
</g>
<!-- 21&#45;&gt;Absorb -->
<g id="edge59" class="edge">
<title>21&#45;&gt;Absorb</title>
<path fill="none" stroke="#000000" d="M1239.48,-782.48C1296.88,-755.39 1410.65,-701.69 1470.57,-673.41"/>
<polygon fill="#000000" stroke="#000000" points="1471.86,-676.2 1479.41,-668.77 1468.87,-669.87 1471.86,-676.2"/>
<text text-anchor="middle" x="1343.77" y="-712.75" font-family="Helvetica,Arial,sans-serif" font-size="16.00" fill="#000000">0.5</text>
</g>
<!-- 21&#45;&gt;2 -->
<g id="edge48" class="edge">
<title>21&#45;&gt;2</title>
<path fill="none" stroke="#000000" d="M1214.63,-780.9C1259.47,-700.95 1439.94,-379.17 1494.12,-282.56"/>
<polygon fill="#000000" stroke="#000000" points="1497.54,-284.6 1499.38,-274.17 1491.44,-281.18 1497.54,-284.6"/>
<text text-anchor="middle" x="1322.5" y="-516.53" font-family="Helvetica,Arial,sans-serif" font-size="16.00" fill="#000000">5.00e&#45;01</text>
</g>
<!-- 22&#45;&gt;2 -->
<g id="edge49" class="edge">
<title>22&#45;&gt;2</title>
<path fill="none" stroke="#000000" d="M931.16,-532.35C1036.08,-482.13 1349.38,-332.16 1466.1,-276.29"/>
<polygon fill="#000000" stroke="#000000" points="1467.28,-279.12 1474.79,-271.65 1464.26,-272.81 1467.28,-279.12"/>
<text text-anchor="middle" x="1166.76" y="-389.12" font-family="Helvetica,Arial,sans-serif" font-size="16.00" fill="#000000">6.67e&#45;01</text>
</g>
<!-- 26 -->
<g id="node28" class="node">
<title>26</title>
<ellipse fill="white" stroke="black" cx="1203.48" cy="-655" rx="81.55" ry="18"/>
<text text-anchor="middle" x="1203.48" y="-648.05" font-family="Helvetica,Arial,sans-serif" font-size="16.00">0,0,0,1,1,1,0,0</text>
</g>
<!-- 22&#45;&gt;26 -->
<g id="edge50" class="edge">
<title>22&#45;&gt;26</title>
<path fill="none" stroke="#000000" d="M941.74,-564.41C996.47,-583.43 1089.46,-615.73 1148.33,-636.19"/>
<polygon fill="#000000" stroke="#000000" points="1146.96,-639.76 1157.55,-639.74 1149.26,-633.15 1146.96,-639.76"/>
<text text-anchor="middle" x="1013.16" y="-601.6" font-family="Helvetica,Arial,sans-serif" font-size="16.00" fill="#000000">3.33e&#45;01</text>
</g>
<!-- 23&#45;&gt;2 -->
<g id="edge51" class="edge">
<title>23&#45;&gt;2</title>
<path fill="none" stroke="#000000" d="M978.26,-250.67C1092.27,-251.59 1298.28,-253.27 1417.83,-254.25"/>
<polygon fill="#000000" stroke="#000000" points="1417.74,-257.75 1427.77,-254.33 1417.8,-250.75 1417.74,-257.75"/>
<text text-anchor="middle" x="1166.17" y="-237.26" font-family="Helvetica,Arial,sans-serif" font-size="16.00" fill="#000000">6.67e&#45;01</text>
</g>
<!-- 23&#45;&gt;26 -->
<g id="edge52" class="edge">
<title>23&#45;&gt;26</title>
<path fill="none" stroke="#000000" d="M911.08,-268.19C959.77,-332.82 1124.61,-551.64 1182.32,-628.24"/>
<polygon fill="#000000" stroke="#000000" points="1180,-629.98 1188.81,-635.86 1185.59,-625.77 1180,-629.98"/>
<text text-anchor="middle" x="1014.83" y="-433.02" font-family="Helvetica,Arial,sans-serif" font-size="16.00" fill="#000000">3.33e&#45;01</text>
</g>
<!-- 24&#45;&gt;Absorb -->
<g id="edge60" class="edge">
<title>24&#45;&gt;Absorb</title>
<path fill="none" stroke="#000000" d="M1260.44,-596.21C1317.69,-609.72 1405.78,-630.51 1460.42,-643.4"/>
<polygon fill="#000000" stroke="#000000" points="1459.35,-646.98 1469.89,-645.87 1460.96,-640.17 1459.35,-646.98"/>
<text text-anchor="middle" x="1349.18" y="-604.6" font-family="Helvetica,Arial,sans-serif" font-size="16.00" fill="#000000">0.5</text>
</g>
<!-- 24&#45;&gt;2 -->
<g id="edge53" class="edge">
<title>24&#45;&gt;2</title>
<path fill="none" stroke="#000000" d="M1220.88,-565.37C1271.58,-510.86 1425.93,-344.92 1485.64,-280.73"/>
<polygon fill="#000000" stroke="#000000" points="1487.84,-283.43 1492.09,-273.72 1482.71,-278.66 1487.84,-283.43"/>
<text text-anchor="middle" x="1321.38" y="-407.85" font-family="Helvetica,Arial,sans-serif" font-size="16.00" fill="#000000">5.00e&#45;01</text>
</g>
<!-- 25&#45;&gt;Absorb -->
<g id="edge61" class="edge">
<title>25&#45;&gt;Absorb</title>
<path fill="none" stroke="#000000" d="M1229.19,-456.49C1284.37,-495.56 1417.57,-589.87 1478.37,-632.91"/>
<polygon fill="#000000" stroke="#000000" points="1475.96,-636.2 1486.14,-639.12 1480,-630.48 1475.96,-636.2"/>
<text text-anchor="middle" x="1365.03" y="-533.63" font-family="Helvetica,Arial,sans-serif" font-size="16.00" fill="#000000">0.5</text>
</g>
<!-- 25&#45;&gt;2 -->
<g id="edge54" class="edge">
<title>25&#45;&gt;2</title>
<path fill="none" stroke="#000000" d="M1232.91,-421.85C1288.09,-388.57 1409.73,-315.21 1471.69,-277.85"/>
<polygon fill="#000000" stroke="#000000" points="1473.35,-280.33 1480.11,-272.17 1469.73,-274.34 1473.35,-280.33"/>
<text text-anchor="middle" x="1320.42" y="-334.65" font-family="Helvetica,Arial,sans-serif" font-size="16.00" fill="#000000">5.00e&#45;01</text>
</g>
<!-- 26&#45;&gt;Absorb -->
<g id="edge62" class="edge">
<title>26&#45;&gt;Absorb</title>
<path fill="none" stroke="#000000" d="M1285.44,-655C1338.55,-655 1406.64,-655 1453.77,-655"/>
<polygon fill="#000000" stroke="#000000" points="1453.68,-658.5 1463.68,-655 1453.68,-651.5 1453.68,-658.5"/>
<text text-anchor="middle" x="1358.35" y="-639.8" font-family="Helvetica,Arial,sans-serif" font-size="16.00" fill="#000000">0.5</text>
</g>
<!-- 26&#45;&gt;2 -->
<g id="edge55" class="edge">
<title>26&#45;&gt;2</title>
<path fill="none" stroke="#000000" d="M1218.18,-637.04C1266.87,-573.2 1431.71,-357.09 1489.42,-281.43"/>
<polygon fill="#000000" stroke="#000000" points="1492.63,-283.99 1495.91,-273.91 1487.06,-279.74 1492.63,-283.99"/>
<text text-anchor="middle" x="1321.92" y="-444.03" font-family="Helvetica,Arial,sans-serif" font-size="16.00" fill="#000000">5.00e&#45;01</text>
</g>
</g>
</svg>
